<svg xmlns="http://www.w3.org/2000/svg" xmlns:xlink="http://www.w3.org/1999/xlink" width="500" zoomAndPan="magnify" viewBox="0 0 375 374.999991" height="500" preserveAspectRatio="xMidYMid meet" version="1.0"><defs><g/><clipPath id="729b594023"><path d="M 100.773438 120 L 133.433594 120 L 133.433594 147 L 100.773438 147 Z M 100.773438 120 " clip-rule="nonzero"/></clipPath><clipPath id="c391e99ba3"><path d="M 133.4375 128 L 152.9375 128 L 152.9375 145 L 133.4375 145 Z M 133.4375 128 " clip-rule="nonzero"/></clipPath></defs><g fill="#1d4b0b" fill-opacity="1"><g transform="translate(84.447964, 197.509228)"><g><path d="M 44.015625 -50.296875 L 64.03125 -50.296875 L 24.515625 25.484375 L 4.515625 25.484375 L 21.859375 -7.84375 L -1.953125 -50.296875 L 18.046875 -50.296875 L 32.0625 -24.515625 Z M 44.015625 -50.296875 "/></g></g></g><g fill="#1d4b0b" fill-opacity="1"><g transform="translate(138.173273, 197.509228)"><g><path d="M 56.765625 -22.75 L 20.296875 -22.75 C 20.296875 -19.21875 21.4375 -16.601562 23.71875 -14.90625 C 26.007812 -13.207031 28.492188 -12.359375 31.171875 -12.359375 C 33.984375 -12.359375 36.207031 -12.734375 37.84375 -13.484375 C 39.476562 -14.234375 41.34375 -15.71875 43.4375 -17.9375 L 55.984375 -11.671875 C 50.753906 -2.910156 42.0625 1.46875 29.90625 1.46875 C 22.320312 1.46875 15.816406 -1.128906 10.390625 -6.328125 C 4.960938 -11.523438 2.25 -17.78125 2.25 -25.09375 C 2.25 -32.414062 4.960938 -38.691406 10.390625 -43.921875 C 15.816406 -49.148438 22.320312 -51.765625 29.90625 -51.765625 C 37.875 -51.765625 44.359375 -49.457031 49.359375 -44.84375 C 54.359375 -40.238281 56.859375 -33.65625 56.859375 -25.09375 C 56.859375 -23.914062 56.828125 -23.132812 56.765625 -22.75 Z M 20.78125 -32.359375 L 39.90625 -32.359375 C 39.507812 -34.972656 38.476562 -36.984375 36.8125 -38.390625 C 35.144531 -39.796875 33.003906 -40.5 30.390625 -40.5 C 27.515625 -40.5 25.226562 -39.742188 23.53125 -38.234375 C 21.832031 -36.734375 20.914062 -34.773438 20.78125 -32.359375 Z M 20.78125 -32.359375 "/></g></g></g><g fill="#1d4b0b" fill-opacity="1"><g transform="translate(188.957406, 197.509228)"><g><path d="M 42.546875 -14.515625 C 42.546875 -9.410156 40.648438 -5.550781 36.859375 -2.9375 C 33.066406 -0.320312 27.96875 0.984375 21.5625 0.984375 C 17.90625 0.984375 14.753906 0.6875 12.109375 0.09375 C 9.460938 -0.488281 7.125 -1.304688 5.09375 -2.359375 L 5.09375 -10.203125 C 7.1875 -9.148438 9.71875 -8.179688 12.6875 -7.296875 C 15.664062 -6.421875 18.691406 -5.984375 21.765625 -5.984375 C 26.140625 -5.984375 29.304688 -6.6875 31.265625 -8.09375 C 33.234375 -9.5 34.21875 -11.375 34.21875 -13.71875 C 34.21875 -15.03125 33.859375 -16.207031 33.140625 -17.25 C 32.421875 -18.300781 31.128906 -19.347656 29.265625 -20.390625 C 27.398438 -21.441406 24.738281 -22.617188 21.28125 -23.921875 C 17.875 -25.234375 14.960938 -26.539062 12.546875 -27.84375 C 10.128906 -29.15625 8.265625 -30.722656 6.953125 -32.546875 C 5.648438 -34.378906 5 -36.734375 5 -39.609375 C 5 -44.054688 6.8125 -47.488281 10.4375 -49.90625 C 14.070312 -52.320312 18.828125 -53.53125 24.703125 -53.53125 C 27.910156 -53.53125 30.898438 -53.203125 33.671875 -52.546875 C 36.453125 -51.898438 39.050781 -51.050781 41.46875 -50 L 38.53125 -43.140625 C 36.3125 -44.054688 33.988281 -44.835938 31.5625 -45.484375 C 29.144531 -46.140625 26.664062 -46.46875 24.125 -46.46875 C 20.59375 -46.46875 17.894531 -45.894531 16.03125 -44.75 C 14.164062 -43.613281 13.234375 -42.0625 13.234375 -40.09375 C 13.234375 -38.59375 13.65625 -37.351562 14.5 -36.375 C 15.351562 -35.394531 16.773438 -34.414062 18.765625 -33.4375 C 20.765625 -32.457031 23.429688 -31.34375 26.765625 -30.09375 C 30.097656 -28.851562 32.941406 -27.578125 35.296875 -26.265625 C 37.648438 -24.960938 39.445312 -23.378906 40.6875 -21.515625 C 41.925781 -19.660156 42.546875 -17.328125 42.546875 -14.515625 Z M 33.421875 13.625 C 33.421875 16.757812 32.210938 19.191406 29.796875 20.921875 C 27.378906 22.660156 23.753906 23.53125 18.921875 23.53125 C 16.828125 23.53125 15.191406 23.367188 14.015625 23.046875 L 14.015625 17.640625 C 14.597656 17.773438 15.378906 17.890625 16.359375 17.984375 C 17.347656 18.085938 18.296875 18.140625 19.203125 18.140625 C 21.554688 18.140625 23.351562 17.828125 24.59375 17.203125 C 25.84375 16.585938 26.46875 15.460938 26.46875 13.828125 C 26.46875 12.128906 25.597656 10.882812 23.859375 10.09375 C 22.128906 9.3125 20.023438 8.757812 17.546875 8.4375 L 21.765625 0 L 27.453125 0 L 24.890625 5.203125 C 27.242188 5.722656 29.253906 6.632812 30.921875 7.9375 C 32.585938 9.25 33.421875 11.144531 33.421875 13.625 Z M 33.421875 13.625 "/></g></g></g><g fill="#1d4b0b" fill-opacity="1"><g transform="translate(227.584704, 197.509228)"><g><path d="M 7.546875 -78.328125 C 9.578125 -80.359375 11.992188 -81.375 14.796875 -81.375 C 17.609375 -81.375 20.023438 -80.359375 22.046875 -78.328125 C 24.078125 -76.304688 25.09375 -73.890625 25.09375 -71.078125 C 25.09375 -68.273438 24.078125 -65.859375 22.046875 -63.828125 C 20.023438 -61.796875 17.609375 -60.78125 14.796875 -60.78125 C 11.992188 -60.78125 9.578125 -61.796875 7.546875 -63.828125 C 5.523438 -65.859375 4.515625 -68.273438 4.515625 -71.078125 C 4.515625 -73.890625 5.523438 -76.304688 7.546875 -78.328125 Z M 5.875 -50.296875 L 5.875 0 L 23.234375 0 L 23.234375 -50.296875 Z M 5.875 -50.296875 "/></g></g></g><g fill="#1d4b0b" fill-opacity="1"><g transform="translate(248.859087, 197.509228)"><g><path d="M 5.875 0 L 5.875 -84.3125 L 23.234375 -84.3125 L 23.234375 0 Z M 5.875 0 "/></g></g></g><g clip-path="url(#729b594023)"><path fill="#44aa00" d="M 108.066406 124.425781 C 123.464844 124.355469 131.730469 131.542969 132.4375 146.425781 C 132.445312 146.613281 132.71875 146.621094 132.746094 146.4375 C 133.433594 141.574219 133.296875 137.144531 132.066406 133.292969 C 127.992188 120.578125 112.457031 118.910156 101.433594 122.933594 C 100.882812 123.136719 100.769531 123.84375 101.226562 124.210938 C 109.828125 131.085938 108.65625 149.851562 129.585938 141.71875 C 126.316406 131.558594 119.613281 125.265625 108.066406 124.425781 " fill-opacity="1" fill-rule="evenodd"/></g><g clip-path="url(#c391e99ba3)"><path fill="#44aa00" d="M 148.71875 130.863281 C 139.441406 130.820312 134.460938 135.152344 134.035156 144.117188 C 134.03125 144.230469 133.867188 144.234375 133.847656 144.125 C 133.4375 141.195312 133.515625 138.523438 134.257812 136.203125 C 136.714844 128.542969 146.074219 127.539062 152.714844 129.964844 C 153.046875 130.085938 153.113281 130.511719 152.835938 130.730469 C 147.65625 134.875 148.363281 146.179688 135.753906 141.28125 C 137.722656 135.160156 141.757812 131.367188 148.71875 130.863281 " fill-opacity="1" fill-rule="evenodd"/></g><g fill="#1d4b0b" fill-opacity="1"><g transform="translate(125.317723, 211.783608)"><g><path d="M 3.734375 0 L 3.734375 -3.359375 L 0.234375 -9.34375 L 1.59375 -9.34375 L 3.109375 -6.71875 L 4.328125 -4.609375 L 7.078125 -9.34375 L 8.390625 -9.34375 L 4.890625 -3.359375 L 4.890625 0 Z M 3.734375 0 "/></g></g></g><g fill="#1d4b0b" fill-opacity="1"><g transform="translate(141.192899, 211.783608)"><g><path d="M 0.234375 0 L 4.0625 -9.34375 L 5.15625 -9.34375 L 9 0 L 7.765625 0 L 6.890625 -2.125 L 2.328125 -2.125 L 1.484375 0 Z M 2.78125 -3.21875 L 6.4375 -3.21875 L 4.609375 -7.703125 Z M 2.78125 -3.21875 "/></g></g></g><g fill="#1d4b0b" fill-opacity="1"><g transform="translate(157.681525, 211.783608)"><g><path d="M 3.59375 3.5 L 3.59375 2.609375 L 4.328125 2.609375 C 4.785156 2.609375 5.015625 2.425781 5.015625 2.0625 C 5.015625 1.6875 4.785156 1.5 4.328125 1.5 L 3.875 1.5 L 3.75 1.328125 L 4.15625 0.15625 C 3.476562 0.125 2.882812 -0.0195312 2.375 -0.28125 C 1.875 -0.550781 1.488281 -0.90625 1.21875 -1.34375 C 0.945312 -1.78125 0.804688 -2.289062 0.796875 -2.875 L 1.96875 -2.875 C 1.988281 -2.269531 2.226562 -1.796875 2.6875 -1.453125 C 3.144531 -1.117188 3.738281 -0.953125 4.46875 -0.953125 C 5.125 -0.953125 5.644531 -1.078125 6.03125 -1.328125 C 6.425781 -1.585938 6.625 -1.953125 6.625 -2.421875 C 6.625 -2.847656 6.4375 -3.191406 6.0625 -3.453125 C 5.6875 -3.722656 5.078125 -3.957031 4.234375 -4.15625 C 3.085938 -4.425781 2.242188 -4.773438 1.703125 -5.203125 C 1.171875 -5.640625 0.90625 -6.21875 0.90625 -6.9375 C 0.90625 -7.726562 1.203125 -8.351562 1.796875 -8.8125 C 2.398438 -9.28125 3.21875 -9.515625 4.25 -9.515625 C 5.289062 -9.515625 6.113281 -9.25 6.71875 -8.71875 C 7.332031 -8.195312 7.644531 -7.484375 7.65625 -6.578125 L 6.5 -6.578125 C 6.488281 -7.140625 6.28125 -7.582031 5.875 -7.90625 C 5.46875 -8.226562 4.925781 -8.390625 4.25 -8.390625 C 3.582031 -8.390625 3.054688 -8.257812 2.671875 -8 C 2.296875 -7.738281 2.109375 -7.382812 2.109375 -6.9375 C 2.109375 -6.550781 2.28125 -6.226562 2.625 -5.96875 C 2.976562 -5.707031 3.613281 -5.46875 4.53125 -5.25 C 5.71875 -4.945312 6.5625 -4.578125 7.0625 -4.140625 C 7.570312 -3.703125 7.828125 -3.140625 7.828125 -2.453125 C 7.828125 -1.710938 7.570312 -1.109375 7.0625 -0.640625 C 6.550781 -0.179688 5.859375 0.078125 4.984375 0.140625 L 4.765625 0.78125 C 5.148438 0.832031 5.453125 0.976562 5.671875 1.21875 C 5.890625 1.457031 6 1.757812 6 2.125 C 6 2.5625 5.859375 2.898438 5.578125 3.140625 C 5.296875 3.378906 4.910156 3.5 4.421875 3.5 Z M 3.59375 3.5 "/></g></g></g><g fill="#1d4b0b" fill-opacity="1"><g transform="translate(173.570034, 211.783608)"><g><path d="M 0.234375 0 L 4.0625 -9.34375 L 5.15625 -9.34375 L 9 0 L 7.765625 0 L 6.890625 -2.125 L 2.328125 -2.125 L 1.484375 0 Z M 2.78125 -3.21875 L 6.4375 -3.21875 L 4.609375 -7.703125 Z M 2.78125 -3.21875 "/></g></g></g><g fill="#1d4b0b" fill-opacity="1"><g transform="translate(190.058658, 211.783608)"><g><path d="M 1.359375 0 L 1.359375 -9.34375 L 2.453125 -9.34375 L 6.125 -3.796875 L 9.765625 -9.34375 L 10.859375 -9.34375 L 10.859375 0 L 9.6875 0 L 9.6875 -7.140625 L 6.59375 -2.484375 L 5.625 -2.484375 L 2.53125 -7.15625 L 2.53125 0 Z M 1.359375 0 "/></g></g></g></svg>