<svg viewBox="0 0 720 720" xmlns="http://www.w3.org/2000/svg"><path d="m-1.08-1.08h722.16v722.16h-722.16z" fill="#4c9f38"/><g fill="#fff"><path d="m54.61 160.16v-4.76h26.18v4.6c.21 13.42 2.55 19.71 11.21 19.71 8.84 0 10.71-6.8 10.71-19.89 0-13.77-3.23-21.59-15.3-21.93a29.18 29.18 0 0 0 -4.59-.17v-19.21h4.08c12.24 0 15.81-6.29 15.81-20.4 0-11-2.55-17.34-11.22-17.34s-10.49 7.48-10.7 18.23v6.12h-26.18v-7.52c0-24.14 13.6-37.74 36.89-37.74 23.46 0 37.06 12.92 37.06 36.89 0 16.15-7.48 27.37-17.34 30.09 10 3.74 17.34 12.92 17.34 32.47 0 25-10 42.5-36.89 42.5-27.54 0-37.06-16.66-37.06-41.65z"/><path d="m187.66 98.94 8.26-1.63c.26 6.24 1.75 10.27 6 10.27 3 0 4.35-2.08 4.35-4.94 0-4.55-2.34-7.08-5.78-10.07l-6.63-5.79c-3.77-3.25-6.11-6.89-6.11-12.74 0-8.32 5.2-13 13.58-13 9.88 0 12.68 6.63 13.2 14.3l-8.26 1.43c-.19-4.94-.91-8.64-5.13-8.64-2.86 0-4.42 2.14-4.42 4.94 0 3.57 1.49 5.52 4.29 7.93l6.56 5.78c4.29 3.71 7.87 8.32 7.87 15.28 0 7.6-5.33 12.93-13.2 12.93-9.64.01-14.19-5.59-14.58-16.05z"/><path d="m227.25 61.63h10.27l10.53 52.65h-8.91l-2.08-12.16h-9.16l-2.15 12.16h-9zm8.75 34.37-3.57-22.1-3.56 22.1z"/><path d="m250.52 96.92v-17.68c0-11.31 3.44-18.2 15-18.2 10.79 0 14.56 5.59 14.56 15.34v2.73h-9.16v-3c0-5.07-.52-8.06-5.27-8.06-5.07 0-5.46 4.1-5.46 8.91v22.04c0 5.46 1 8.91 5.72 8.91s5.79-3.64 5.79-9.36v-4.94h-5.66v-6h14.3v26.72h-6.24l-.65-5.14a8.87 8.87 0 0 1 -8.9 5.85c-10.39-.04-14.03-7.04-14.03-18.12zm5.72-48.92h5c.07 3.18 1.24 4.81 4.36 4.81s4.4-1.81 4.4-4.81h5c0 5.78-3.18 9.49-9.42 9.49s-9.34-3.73-9.34-9.49z"/><path d="m286.27 61.63h9.55v46.08h12.81v6.57h-22.36z"/><path d="m312.46 61.63h9.54v52.65h-9.49z"/><path d="m328.65 61.63h9.55v23.14l10.47-23.14h9.16l-10.07 23.46 11.11 29.19h-9.55l-8.78-23.92-2.34 4v20h-9.55z"/><path d="m373.69 61.63h8.45l7 37.24 6.56-37.24h8.65l-10.6 52.65h-9.42z"/><path d="m408.27 61.63h22.1v6.76h-12.54v15.14h9.88v6.7h-9.88v17.48h12.67v6.57h-22.23z"/><path d="m189 147.63h9.56v23.14l10.44-23.14h9.17l-10.08 23.46 11.12 29.19h-9.56l-8.77-23.92-2.34 4v20h-9.54z"/><path d="m230 147.63h10.27l10.53 52.65h-8.91l-2.08-12.16h-9.16l-2.15 12.16h-9zm8.75 34.37-3.57-22.1-3.58 22.1z"/><path d="m254.61 147.63h9.56v46.08h12.83v6.57h-22.39z"/><path d="m280.81 147.63h9.49v52.65h-9.49zm.45-14.3h8.58v8.9h-8.58z"/><path d="m302.26 154.71h-8.39v-7.08h26.2v7.08h-8.19v45.57h-9.62z"/><path d="m323.45 147.63h22.1v6.76h-12.55v15.14h9.88v6.7h-9.88v17.48h12.68v6.57h-22.23z"/><path d="m349.84 147.63h9.55v46.08h12.81v6.57h-22.36z"/><path d="m376 147.63h9.49v52.65h-9.49zm.45-14.3h8.59v8.9h-8.59z"/><path d="m413.92 180.19-10.66-32.56h9l6.5 20.86 6.11-20.86h8.78l-10.53 32.56v20.09h-9.17z"/><path d="m442.66 147.63h10.27l10.53 52.65h-8.91l-2.08-12.16h-9.16l-2.15 12.16h-9zm8.77 34.37-3.57-22.1-3.58 22.1z"/><path d="m481 201v3.25c4.82 0 8.07 2.15 8.07 6.18 0 4.61-4.1 6.56-8.85 6.56a16.87 16.87 0 0 1 -4.68-.71v-4.1a11.61 11.61 0 0 0 3.51.52c2.28 0 4-.65 4-2.4 0-2.34-2.67-3.19-5.72-3.51v-6c-7.61-1.11-11.25-6.57-11.57-15.86l8.25-1.63c.26 6.24 1.76 10.27 6 10.27 3.06 0 4.36-2.08 4.36-4.94 0-4.55-2.34-7.08-5.79-10.07l-6.63-5.79c-3.77-3.25-6.11-6.89-6.11-12.74 0-8.32 5.2-13 13.59-13 9.88 0 12.68 6.63 13.2 14.3l-8.26 1.43c-.2-4.94-.91-8.64-5.14-8.64-2.86 0-4.42 2.14-4.42 4.94 0 3.57 1.5 5.52 4.29 7.93l6.57 5.78c4.29 3.71 7.86 8.32 7.86 15.28-.05 7.35-5.05 12.62-12.53 12.95z"/><path d="m505.31 147.63h10.27l10.53 52.65h-8.9l-2.08-12.16h-9.13l-2.14 12.16h-9zm8.78 34.37-3.58-22.1-3.57 22.1z"/><path d="m530.73 147.63h9.94l7.48 36.46 7.73-36.46h9.69l1 52.65h-7.15l-.78-36.6-7.47 36.6h-5.79l-7.6-36.73-.78 36.73h-7.21z"/><path d="m603.67 450.66c0-20.41-13.1-37-32.94-37-9.92 0-21.89 10.86-28.38 17.54-6.5-6.69-17.68-17.56-27.6-17.56-19.84 0-33.74 16.55-33.74 37a37.36 37.36 0 0 0 10.53 26.14l50.85 50.95 50.78-50.89a37.39 37.39 0 0 0 10.5-26.18z"/><path d="m387.15 610.91h-.51a8.36 8.36 0 0 1 -7.72-6.93l-25.83-150.45-39.09 72.55a8.35 8.35 0 0 1 -15.61-2.78l-16.65-116.1-30.4 68.26a8.35 8.35 0 0 1 -7.63 5h-118.12a8.35 8.35 0 1 1 0-16.7h112.7l40-89.79a8.35 8.35 0 0 1 15.89 2.22l17.13 119.71 38.59-71.54a8.35 8.35 0 0 1 15.58 2.55l23.92 139.33 87.18-289.6a8.35 8.35 0 0 1 15.52-1.22l45.9 95.05a8.35 8.35 0 1 1 -15.05 7.25l-36.58-75.72-91.22 303a8.36 8.36 0 0 1 -8 5.91z"/></g></svg>