<svg viewBox="0 0 720 720" xmlns="http://www.w3.org/2000/svg"><path d="m-1.08-1.08h722.16v722.16h-722.16z" fill="#fd6925"/><g fill="#fff"><path d="m57.16 166.11v-2h24.84c0 11.56 1.36 17.17 10 17.17 8.33 0 10.2-6.63 10.2-27.88v-13.98c-2.89 4.93-9.35 7.82-17.34 8-22.27.34-29.92-18.19-29.92-41 .06-27.86 10.06-46.42 37.06-46.42 26.18 0 37.06 17.85 37.06 44v50.15c0 26.86-7.65 47.09-37.23 47.09-25.32.06-34.67-12.35-34.67-35.13zm45.05-45.05v-21.93c0-10.37-1.7-19.55-10.2-19.55-8.67 0-10.2 8.84-10.2 23.8 0 14.11.17 24 10.37 24 5.27-.03 8.33-3.38 10.03-6.32z"/><path d="m158.64 98 8.26-1.62c.26 6.24 1.75 10.27 6 10.27 3.05 0 4.35-2.08 4.35-4.94 0-4.55-2.34-7.09-5.78-10.08l-6.63-5.78c-3.77-3.25-6.11-6.89-6.11-12.74 0-8.32 5.2-13 13.58-13 9.88 0 12.68 6.63 13.2 14.3l-8.26 1.43c-.19-4.94-.91-8.65-5.13-8.65-2.86 0-4.42 2.15-4.42 4.94 0 3.58 1.49 5.53 4.29 7.93l6.56 5.79c4.29 3.7 7.87 8.32 7.87 15.27 0 7.61-5.33 12.94-13.2 12.94-9.64-.01-14.22-5.6-14.58-16.06z"/><path d="m196.28 60.68h10.27l10.53 52.65h-8.91l-2.08-12.15h-9.16l-2.15 12.15h-9zm8.77 34.39-3.57-22.07-3.58 22.1z"/><path d="m219 60.68h6.7l12.8 30v-30h7.93v52.65h-6.43l-12.85-31.46v31.46h-8.15z"/><path d="m258.87 60.68h10.27l10.53 52.65h-8.9l-2.08-12.15h-9.17l-2.14 12.15h-9zm8.78 34.39-3.58-22.07-3.57 22.1z"/><path d="m286.89 93.25-10.67-32.57h9l6.51 20.87 6.11-20.87h8.77l-10.56 32.57v20.08h-9.16z"/><path d="m308.07 60.68h9.5v52.65h-9.5zm.46-14.3h8.58v8.91h-8.58z"/><path d="m321.53 118.92a5.39 5.39 0 0 0 4.22-5.59h-4.68v-8.77h8.65v8c0 5.59-2.41 8.65-7.28 9.56z"/><path d="m352.53 93.25-10.66-32.57h9l6.5 20.87 6.12-20.87h8.77l-10.56 32.57v20.08h-9.17z"/><path d="m373.46 60.68h22.11v6.76h-12.57v15.15h9.88v6.69h-9.88v17.49h12.67v6.56h-22.21z"/><path d="m397.9 60.68h6.7l12.8 30v-30h7.93v52.65h-6.33l-12.91-31.46v31.46h-8.19z"/><path d="m430.21 60.68h9.49v52.65h-9.49zm.45-14.3h8.58v8.91h-8.58z"/><path d="m444.44 60.68h9.56v46.09h12.8v6.56h-22.36z"/><path d="m468.69 60.68h9.49v52.65h-9.49zm.45-14.3h8.58v8.91h-8.58z"/><path d="m482.92 60.68h9.56v23.14l10.46-23.14h9.17l-10.11 23.47 11.12 29.18h-9.56l-8.77-23.92-2.34 4v20h-9.56z"/><path d="m532.52 79.66v-4.55c0-4.42-.07-8-4.94-8s-5.4 3.77-5.4 8.58v22.82c0 5.72 1.17 8.45 5.4 8.45 4.74 0 4.94-3.7 4.94-8.38v-4.75h9.23v4.23c0 8.9-2.86 15.47-12.94 16v3.25c4.81 0 8.06 2.14 8.06 6.17 0 4.62-4.09 6.57-8.84 6.57a16.52 16.52 0 0 1 -4.68-.72v-4.09a11.93 11.93 0 0 0 3.51.52c2.28 0 4-.65 4-2.41 0-2.34-2.67-3.18-5.72-3.51v-5.91c-9.62-1-12.61-7.93-12.61-17.42v-18.8c0-10.79 3.44-17.61 15-17.61 10.79 0 14.24 6 14.24 15.14v4.42z"/><path d="m545.32 60.68h9.49v52.65h-9.49zm.46-14.3h8.58v8.91h-8.58z"/><path d="m559.56 60.68h9.55v46.09h12.81v6.56h-22.36z"/><path d="m583.8 60.68h9.49v52.65h-9.49zm.46-14.3h8.58v8.91h-8.58z"/><path d="m598 60.68h9.55v23.14l10.47-23.14h9.16l-10.03 23.47 11.11 29.18h-9.55l-8.78-23.92-2.34 4v20h-9.59z"/><path d="m157.47 146.68h8.45l7 37.25 6.56-37.25h8.65l-10.6 52.65h-9.42z"/><path d="m190.1 146.68h22.1v6.76h-12.54v15.15h9.88v6.69h-9.88v17.49h12.67v6.56h-22.23z"/><path d="m234.82 146.68h10.27l10.53 52.65h-8.9l-2.08-12.15h-9.17l-2.14 12.15h-9zm8.78 34.39-3.6-22.07-3.57 22.1z"/><path d="m257.5 146.68h9.56v46.09h12.81v6.56h-22.37z"/><path d="m284.15 153.77h-8.38v-7.09h26.23v7.09h-8.2v45.56h-9.62z"/><path d="m310.74 179.25-10.66-32.57h9l6.5 20.87 6.11-20.87h8.77l-10.56 32.57v20.08h-9.16z"/><path d="m337.52 146.68h10.27l10.53 52.65h-8.9l-2.08-12.15h-9.17l-2.17 12.15h-9zm8.77 34.39-3.57-22.07-3.58 22.1z"/><path d="m360.2 146.68h15.47c9.43 0 13.46 5.46 13.46 14.95 0 10.34-5.59 14.3-14.11 14.3h-5.26v23.4h-9.56zm13.26 22.49c5.27 0 6.63-2 6.63-7.6s-.71-8.13-6.63-8.13h-3.7v15.73z"/><path d="m391.34 146.68h9.49v52.65h-9.49z"/><path d="m545.32 474.1-86.24-49.77v-99.57a5.88 5.88 0 0 0 -2.94-5.1l-89.14-51.48a5.88 5.88 0 0 0 -5.88 0l-89.17 51.48a5.86 5.86 0 0 0 -2.94 5.1v99.57l-86.25 49.77a5.85 5.85 0 0 0 -2.94 5.09v103a5.86 5.86 0 0 0 2.94 5.1l89.17 51.47a5.87 5.87 0 0 0 5.88 0l86.19-49.76 86.22 49.77a5.92 5.92 0 0 0 2.94.79 5.82 5.82 0 0 0 2.94-.79l89.18-51.47a5.86 5.86 0 0 0 2.94-5.1v-103a5.85 5.85 0 0 0 -2.9-5.1zm-187.16 97.9-71.53-41.29 71.53-41.3zm83.27-144.25-71.51 41.25v-82.57zm-83.27 41.25-71.52-41.28 71.52-41.3zm17.65 10.19 77.39-44.68 77.41 44.67-77.41 44.7zm71.51-61.67-71.51-41.29 71.51-41.23zm-95.05-41.29-71.52 41.3v-82.53zm-83.27 247.23-77.41-44.68v-89.39l77.41 44.69zm11.76 0v-82.58l71.52 41.29zm255.74-44.68-77.42 44.68v-89.38l77.42-44.69z"/></g></svg>