<svg xmlns="http://www.w3.org/2000/svg" xmlns:xlink="http://www.w3.org/1999/xlink" width="1080" zoomAndPan="magnify" viewBox="0 0 810 809.999993" height="1080" preserveAspectRatio="xMidYMid meet" version="1.0"><defs><g/><clipPath id="3eba978dde"><path d="M 545.53125 179.386719 L 722.285156 179.386719 L 722.285156 578.621094 L 545.53125 578.621094 Z M 545.53125 179.386719 " clip-rule="nonzero"/></clipPath><clipPath id="e891e1d32a"><path d="M 545.53125 377 L 722.285156 377 L 722.285156 578.621094 L 545.53125 578.621094 Z M 545.53125 377 " clip-rule="nonzero"/></clipPath><clipPath id="c98f1c9b74"><path d="M 245 148.40625 L 435 148.40625 L 435 578.621094 L 245 578.621094 Z M 245 148.40625 " clip-rule="nonzero"/></clipPath><clipPath id="b23d87630c"><path d="M 271.335938 341.082031 L 432 341.082031 L 432 578.621094 L 271.335938 578.621094 Z M 271.335938 341.082031 " clip-rule="nonzero"/></clipPath><clipPath id="0de98439a9"><path d="M 87.785156 337 L 287 337 L 287 578.621094 L 87.785156 578.621094 Z M 87.785156 337 " clip-rule="nonzero"/></clipPath><clipPath id="224abb3ef5"><path d="M 407.300781 268 L 558.371094 268 L 558.371094 578.621094 L 407.300781 578.621094 Z M 407.300781 268 " clip-rule="nonzero"/></clipPath></defs><rect x="-81" width="972" fill="#ffffff" y="-80.999999" height="971.999992" fill-opacity="1"/><rect x="-81" width="972" fill="#ffffff" y="-80.999999" height="971.999992" fill-opacity="1"/><g clip-path="url(#3eba978dde)"><path fill="#f04b47" d="M 722.292969 547.128906 C 722.332031 564.515625 708.140625 578.621094 690.757812 578.621094 L 577.160156 578.621094 C 568.617188 578.621094 560.84375 575.226562 555.152344 569.664062 C 553.15625 567.765625 551.425781 565.578125 550.023438 563.175781 C 547.207031 558.472656 545.605469 552.984375 545.621094 547.128906 C 545.640625 541.347656 545.714844 535.5625 545.882812 529.78125 C 546.238281 517.265625 546.984375 504.761719 548.363281 492.339844 C 549.222656 484.277344 550.339844 476.257812 551.777344 468.273438 C 552.542969 464.035156 553.402344 459.820312 554.292969 455.605469 C 560.46875 426.765625 569.179688 398.277344 570.015625 368.839844 C 570.667969 346.824219 566.824219 324.683594 558.828125 304.160156 C 554.519531 293.210938 548.941406 282.015625 550.324219 270.335938 C 551.777344 257.390625 561.53125 246.941406 571.957031 239.164062 C 582.398438 231.367188 594.167969 225.097656 602.898438 215.472656 C 610.207031 207.429688 615.058594 195.976562 613.078125 185.621094 C 612.707031 183.570312 612.054688 181.574219 611.082031 179.632812 C 617.535156 179.839844 626.019531 179.96875 633.949219 180.101562 C 641.914062 179.96875 650.398438 179.839844 656.832031 179.632812 C 655.882812 181.554688 655.207031 183.570312 654.835938 185.621094 C 652.84375 195.976562 657.691406 207.429688 665 215.472656 C 673.746094 225.097656 685.496094 231.367188 695.941406 239.164062 C 706.382812 246.941406 716.121094 257.390625 717.609375 270.335938 C 718.957031 282.015625 713.378906 293.210938 709.109375 304.160156 C 701.085938 324.683594 697.265625 346.824219 697.898438 368.839844 C 697.953125 370.554688 698.03125 372.289062 698.121094 374.007812 C 698.121094 374.007812 698.121094 374.0625 698.144531 374.210938 C 698.195312 375.21875 698.289062 376.261719 698.363281 377.289062 C 700.734375 408.019531 710.636719 437.84375 716.121094 468.273438 C 720.820312 494.277344 722.199219 520.660156 722.292969 547.128906 " fill-opacity="1" fill-rule="nonzero"/></g><path fill="#ffba23" d="M 664.515625 157.957031 L 664.515625 178.421875 C 664.515625 182.398438 661.550781 185.621094 657.875 185.621094 L 610.039062 185.621094 C 606.363281 185.621094 603.398438 182.398438 603.398438 178.421875 L 603.398438 157.957031 C 603.398438 153.984375 606.363281 150.757812 610.039062 150.757812 L 657.875 150.757812 C 661.550781 150.757812 664.515625 153.984375 664.515625 157.957031 " fill-opacity="1" fill-rule="nonzero"/><path fill="#f76d6c" d="M 568.070312 271.175781 C 566.375 271.175781 565.113281 270.738281 564.414062 269.816406 C 561.21875 265.625 570.695312 253.027344 585.582031 241.675781 C 597.183594 232.824219 608.648438 227.34375 614.648438 227.34375 C 616.347656 227.34375 617.605469 227.78125 618.3125 228.707031 C 621.503906 232.898438 612.027344 245.492188 597.144531 256.84375 C 585.539062 265.695312 574.074219 271.175781 568.070312 271.175781 " fill-opacity="1" fill-rule="nonzero"/><g clip-path="url(#e891e1d32a)"><path fill="#e23737" d="M 722.292969 547.128906 C 722.332031 564.515625 708.140625 578.621094 690.757812 578.621094 L 577.160156 578.621094 C 568.617188 578.621094 560.84375 575.226562 555.152344 569.664062 C 553.15625 567.765625 551.425781 565.578125 550.023438 563.175781 C 547.207031 558.472656 545.605469 552.984375 545.621094 547.128906 C 545.640625 541.347656 545.714844 535.5625 545.882812 529.78125 C 547.207031 530.28125 548.511719 530.769531 549.820312 531.238281 C 552.335938 532.148438 554.816406 533.007812 557.242188 533.792969 C 646.554688 562.765625 680.015625 509.203125 692.175781 456.445312 C 692.847656 453.589844 693.441406 450.71875 693.964844 447.882812 C 699.953125 416.445312 698.925781 386.933594 698.363281 377.289062 C 700.734375 408.019531 710.636719 437.84375 716.121094 468.273438 C 720.820312 494.277344 722.199219 520.660156 722.292969 547.128906 " fill-opacity="1" fill-rule="nonzero"/></g><path fill="#ffffff" d="M 693.757812 446.714844 C 693.128906 444.011719 692.488281 441.285156 691.835938 438.519531 C 686.589844 416.316406 681.175781 393.363281 680.476562 369.347656 C 680.03125 353.90625 685.394531 328.585938 689.40625 312.089844 C 691.40625 303.867188 685.179688 295.957031 676.726562 295.957031 L 591.1875 295.957031 C 582.734375 295.957031 576.507812 303.867188 578.507812 312.089844 C 582.519531 328.585938 587.882812 353.90625 587.4375 369.347656 C 586.738281 393.363281 581.324219 416.316406 576.078125 438.519531 C 575.425781 441.285156 574.785156 444.011719 574.15625 446.714844 C 572.253906 454.90625 578.464844 462.726562 586.871094 462.726562 L 681.042969 462.726562 C 689.449219 462.726562 695.660156 454.90625 693.757812 446.714844 " fill-opacity="1" fill-rule="nonzero"/><g clip-path="url(#c98f1c9b74)"><path fill="#c3c64b" d="M 433.3125 511.160156 C 432.734375 524.128906 432.15625 537.203125 428.835938 549.742188 C 428.464844 551.175781 428.125 552.574219 427.8125 553.976562 C 426.390625 560.074219 423.277344 565.410156 419.0625 569.515625 C 417.253906 571.304688 415.242188 572.855469 413.058594 574.140625 C 408.226562 576.996094 402.617188 578.621094 396.71875 578.621094 L 279.097656 578.621094 C 276.632812 578.621094 274.246094 578.285156 271.972656 577.632812 C 268.128906 576.570312 264.625 574.628906 261.695312 572.035156 C 257.257812 568.136719 254.140625 562.726562 253.117188 556.53125 L 253.097656 556.417969 C 251.808594 548.511719 250.671875 540.5625 249.703125 532.597656 L 249.703125 532.523438 C 246.140625 503.457031 244.6875 474.132812 245.355469 444.859375 C 245.582031 433.835938 246.140625 422.828125 246.980469 411.839844 C 248.34375 393.984375 250.488281 376.1875 253.433594 358.542969 C 255.503906 345.96875 258.003906 333.46875 260.875 321.0625 C 263.726562 308.785156 266.972656 296.027344 264.230469 283.710938 C 262.238281 274.683594 257.105469 266.589844 254.964844 257.59375 C 250.09375 237.246094 260.929688 216.777344 271.375 198.664062 C 278.816406 185.773438 286.386719 172.695312 297.09375 162.378906 C 302.054688 157.582031 307.835938 153.425781 314.066406 150.457031 C 322.980469 146.207031 333.628906 148.964844 339.277344 157.042969 L 342.933594 162.265625 L 349.945312 172.320312 L 391.929688 232.375 L 408.226562 255.675781 L 416.621094 267.707031 C 425.761719 280.785156 428.035156 297.441406 422.757812 312.5 C 420.890625 317.796875 419.960938 323.339844 419.960938 328.878906 C 419.960938 333.019531 420.480469 337.160156 421.507812 341.210938 L 421.527344 341.265625 L 421.527344 341.304688 C 426.523438 360.777344 429.769531 380.648438 431.765625 400.722656 C 432.660156 409.75 433.3125 418.816406 433.742188 427.902344 C 435.101562 455.644531 434.523438 483.570312 433.3125 511.160156 " fill-opacity="1" fill-rule="nonzero"/></g><path fill="#328ecc" d="M 408.636719 228.382812 L 401.496094 233.71875 C 398.476562 235.976562 394.1875 235.359375 391.929688 232.375 C 391.871094 232.300781 391.816406 232.222656 391.761719 232.148438 L 349.945312 172.320312 L 342.933594 162.265625 C 340.863281 159.320312 341.421875 155.289062 344.203125 153.015625 L 349.890625 148.351562 C 352.929688 145.832031 357.460938 146.425781 359.792969 149.617188 L 361.230469 151.613281 L 361.246094 151.613281 L 407.855469 215.769531 L 410.09375 218.847656 C 412.292969 221.871094 411.660156 226.121094 408.636719 228.382812 " fill-opacity="1" fill-rule="nonzero"/><path fill="#58a1dd" d="M 458.339844 150.011719 C 457.746094 150.792969 457.167969 151.554688 456.570312 152.304688 L 407.855469 215.769531 L 361.230469 151.613281 L 361.246094 151.613281 L 367.050781 148.480469 L 429.339844 114.824219 C 433.515625 112.566406 438.703125 113.632812 441.648438 117.34375 L 458.132812 138.105469 C 460.878906 141.578125 460.96875 146.449219 458.339844 150.011719 " fill-opacity="1" fill-rule="nonzero"/><path fill="#d8d85d" d="M 315.246094 218.351562 C 303.992188 237.851562 288.148438 249.777344 279.855469 244.988281 C 271.566406 240.203125 273.96875 220.511719 285.222656 201.011719 C 296.480469 181.515625 312.324219 169.585938 320.613281 174.375 C 328.902344 179.160156 326.5 198.851562 315.246094 218.351562 " fill-opacity="1" fill-rule="nonzero"/><g clip-path="url(#b23d87630c)"><path fill="#b1b135" d="M 396.71875 578.621094 L 279.097656 578.621094 C 276.632812 578.621094 274.246094 578.285156 271.972656 577.632812 C 275.457031 576.773438 278.667969 575.300781 281.164062 572.652344 C 285.976562 567.613281 286.667969 559.796875 286.519531 552.6875 C 286.425781 548.601562 286.144531 544.535156 285.714844 540.488281 C 294.539062 541.722656 302.824219 542.308594 310.585938 542.308594 C 355.824219 542.308594 383.578125 522.414062 400.375 495.140625 C 407.753906 493.21875 413.121094 486.558594 413.28125 478.691406 C 413.363281 474.734375 413.417969 470.773438 413.445312 466.800781 C 432.316406 410.914062 421.953125 344.027344 421.527344 341.304688 C 426.523438 360.777344 429.769531 380.648438 431.765625 400.722656 C 425.890625 426.410156 422.234375 452.75 418.632812 478.90625 C 415.183594 503.792969 411.753906 528.714844 408.320312 553.621094 C 407.613281 558.621094 406.957031 563.921875 408.9375 568.5625 C 409.890625 570.820312 411.304688 572.667969 413.058594 574.140625 C 408.226562 576.996094 402.617188 578.621094 396.71875 578.621094 " fill-opacity="1" fill-rule="nonzero"/></g><path fill="#ffffff" d="M 406.875 373.597656 C 405.519531 365.738281 398.984375 359.835938 391.03125 359.253906 C 374.59375 358.039062 357.453125 357.40625 339.847656 357.40625 C 322.101562 357.40625 304.835938 358.058594 288.277344 359.28125 C 280.191406 359.878906 273.554688 365.96875 272.394531 373.992188 C 267.398438 408.625 265.484375 443.875 266.667969 478.90625 C 266.96875 487.703125 273.726562 494.929688 282.5 495.660156 C 300.804688 497.183594 320.03125 497.988281 339.847656 497.988281 C 359.765625 497.988281 379.074219 497.171875 397.453125 495.636719 C 406.296875 494.902344 413.101562 487.5625 413.28125 478.691406 C 413.976562 443.980469 412.867188 408.382812 406.875 373.597656 " fill-opacity="1" fill-rule="nonzero"/><path fill="#4597d4" d="M 407.855469 215.769531 L 361.230469 151.613281 L 361.246094 151.613281 L 367.050781 148.480469 C 367.050781 148.480469 382.101562 183.433594 409.488281 183.4375 C 422.496094 183.441406 438.28125 175.558594 456.570312 152.304688 L 407.855469 215.769531 " fill-opacity="1" fill-rule="nonzero"/><path fill="#187bb2" d="M 198.191406 269.03125 L 176.128906 269.03125 C 176.128906 269.03125 176.523438 268.265625 177.023438 266.941406 C 178.164062 263.917969 179.859375 257.96875 178.796875 251.214844 C 178.5 249.351562 178.011719 247.429688 177.230469 245.488281 L 197.09375 245.488281 C 196.308594 247.429688 195.824219 249.351562 195.527344 251.214844 C 194.480469 257.96875 196.160156 263.917969 197.296875 266.941406 C 197.800781 268.265625 198.191406 269.03125 198.191406 269.03125 " fill-opacity="1" fill-rule="nonzero"/><path fill="#328ecc" d="M 204.273438 273.453125 L 204.273438 299.011719 L 170.046875 299.011719 L 170.046875 273.453125 C 170.046875 270.246094 172.398438 267.480469 175.589844 267.09375 C 176.054688 267.035156 176.539062 266.980469 177.023438 266.941406 C 180.324219 266.570312 183.699219 266.382812 187.171875 266.382812 C 190.621094 266.382812 194.015625 266.570312 197.296875 266.941406 C 197.78125 266.980469 198.269531 267.035156 198.75 267.09375 C 201.921875 267.480469 204.273438 270.246094 204.273438 273.453125 " fill-opacity="1" fill-rule="nonzero"/><path fill="#58a1dd" d="M 224.695312 349.957031 C 214.472656 352.421875 204.328125 354.644531 194.035156 356.117188 C 191.757812 356.46875 189.464844 356.75 187.171875 357.011719 C 184.855469 356.75 182.566406 356.453125 180.269531 356.117188 C 169.972656 354.644531 159.832031 352.421875 149.628906 349.957031 C 152.460938 347.757812 154.199219 344.902344 155.167969 341.75 C 156.488281 337.535156 156.433594 332.777344 155.894531 328.394531 C 154.960938 320.726562 153.058594 312.6875 156.398438 305.542969 C 158.878906 300.222656 164.003906 296.195312 170.046875 293.601562 C 172.433594 292.574219 174.972656 291.773438 177.546875 291.195312 L 177.640625 291.175781 C 183.867188 289.796875 190.453125 289.796875 196.679688 291.175781 L 196.773438 291.195312 C 199.347656 291.773438 201.886719 292.574219 204.273438 293.601562 C 210.316406 296.195312 215.445312 300.222656 217.925781 305.542969 C 221.261719 312.6875 219.359375 320.726562 218.425781 328.394531 C 217.886719 332.777344 217.832031 337.535156 219.15625 341.75 C 220.125 344.902344 221.859375 347.757812 224.695312 349.957031 " fill-opacity="1" fill-rule="nonzero"/><path fill="#58a1dd" d="M 208.339844 251.214844 L 97.6875 251.214844 L 97.6875 239.109375 C 113.390625 245.804688 131.257812 245.601562 146.8125 238.378906 C 155.429688 234.390625 163.296875 228.382812 171.953125 224.539062 C 180.625 220.675781 190.75 219.167969 198.9375 224.238281 C 205.484375 228.289062 209.71875 235.566406 212.71875 243.53125 C 214.082031 247.148438 211.75 251.214844 208.339844 251.214844 " fill-opacity="1" fill-rule="nonzero"/><g clip-path="url(#0de98439a9)"><path fill="#ffba23" d="M 281.164062 572.652344 C 278.667969 575.300781 275.457031 576.773438 271.972656 577.632812 C 269.863281 578.152344 267.644531 578.433594 265.445312 578.621094 L 108.800781 578.621094 C 102.984375 578.136719 97.164062 576.882812 93.136719 572.652344 C 88.34375 567.613281 87.65625 559.796875 87.804688 552.6875 C 88.289062 530.46875 94.21875 508.828125 98.453125 487.039062 C 102.6875 465.25 105.167969 442.304688 98.882812 421.054688 C 96.496094 413.015625 92.855469 405.085938 93.195312 396.691406 C 93.660156 385.253906 101.382812 375.609375 109.550781 367.925781 C 109.773438 367.722656 109.976562 367.515625 110.199219 367.3125 C 123.40625 355.054688 138.847656 346.527344 155.167969 341.75 C 163.375 339.324219 171.804688 337.871094 180.269531 337.367188 C 184.855469 337.085938 189.464844 337.085938 194.035156 337.367188 C 202.5 337.871094 210.949219 339.34375 219.15625 341.75 C 231.242188 345.277344 242.859375 350.875 253.433594 358.542969 C 257.125 361.210938 260.707031 364.136719 264.121094 367.3125 C 264.34375 367.515625 264.550781 367.722656 264.773438 367.925781 C 267.347656 370.351562 269.882812 372.980469 272.15625 375.796875 C 277.097656 381.878906 280.8125 388.875 281.109375 396.691406 C 281.464844 405.085938 277.828125 413.015625 275.421875 421.054688 C 269.15625 442.304688 271.636719 465.25 275.867188 487.039062 C 276.335938 489.503906 276.839844 491.945312 277.339844 494.40625 C 280.53125 509.707031 284.152344 524.984375 285.714844 540.488281 C 286.144531 544.535156 286.425781 548.601562 286.519531 552.6875 C 286.667969 559.796875 285.976562 567.613281 281.164062 572.652344 " fill-opacity="1" fill-rule="nonzero"/></g><path fill="#f5a322" d="M 194.035156 411.839844 L 180.273438 411.839844 L 180.273438 337.367188 C 182.566406 337.230469 184.859375 337.160156 187.15625 337.160156 C 189.453125 337.160156 191.75 337.230469 194.035156 337.367188 L 194.035156 411.839844 " fill-opacity="1" fill-rule="nonzero"/><path fill="#ffcb5a" d="M 265.160156 572.027344 L 109.101562 572.027344 C 103.464844 571.523438 100.019531 570.324219 97.933594 568.117188 C 94.558594 564.566406 94.292969 557.691406 94.402344 552.820312 C 94.757812 536.480469 98.292969 519.902344 101.710938 503.851562 C 102.792969 498.769531 103.914062 493.5 104.929688 488.289062 C 108.753906 468.609375 112.238281 442.964844 105.207031 419.175781 L 105.183594 419.089844 C 104.109375 415.476562 106.796875 411.839844 110.5625 411.839844 L 180.273438 411.839844 L 180.273438 550.652344 L 194.035156 550.652344 L 194.035156 411.839844 L 263.746094 411.839844 C 267.523438 411.839844 270.210938 415.488281 269.125 419.101562 L 269.105469 419.164062 C 262.074219 442.964844 265.558594 468.609375 269.382812 488.289062 C 270.402344 493.5 271.523438 498.769531 272.601562 503.851562 C 276.023438 519.902344 279.558594 536.480469 279.914062 552.835938 C 280.019531 557.691406 279.78125 564.554688 276.390625 568.105469 C 274.277344 570.324219 270.808594 571.535156 265.160156 572.027344 " fill-opacity="1" fill-rule="nonzero"/><path fill="#f8ba59" d="M 180.273438 550.652344 L 194.035156 550.652344 L 194.035156 411.839844 L 180.273438 411.839844 Z M 180.273438 550.652344 " fill-opacity="1" fill-rule="nonzero"/><path fill="#ffffff" d="M 258.480469 516.359375 C 251.761719 490.628906 250.066406 467.046875 249.671875 454.386719 C 249.492188 448.542969 245.613281 443.472656 240.019531 441.792969 C 205.542969 431.4375 168.785156 431.4375 134.308594 441.792969 C 128.714844 443.472656 124.835938 448.542969 124.65625 454.386719 C 124.261719 467.046875 122.5625 490.628906 115.84375 516.359375 C 113.792969 524.207031 119.148438 532.066406 127.1875 533.140625 C 166.996094 538.457031 207.332031 538.457031 247.140625 533.140625 C 255.175781 532.066406 260.53125 524.207031 258.480469 516.359375 " fill-opacity="1" fill-rule="nonzero"/><path fill="#ffd270" d="M 116.242188 391.121094 C 113.410156 391.121094 111.289062 390.363281 110.207031 388.761719 C 106.714844 383.601562 115.351562 371.648438 129.5 362.0625 C 139.261719 355.449219 149.097656 351.683594 155.40625 351.683594 C 158.238281 351.683594 160.363281 352.445312 161.445312 354.042969 C 164.9375 359.203125 156.296875 371.15625 142.148438 380.742188 C 132.390625 387.359375 122.550781 391.121094 116.242188 391.121094 " fill-opacity="1" fill-rule="nonzero"/><g clip-path="url(#224abb3ef5)"><path fill="#88cfff" d="M 555.265625 569.496094 L 555.152344 569.664062 C 553.472656 572.480469 551.085938 574.550781 548.324219 576.046875 C 545.042969 577.835938 541.316406 578.621094 537.585938 578.621094 L 426.074219 578.621094 C 422.308594 578.621094 418.523438 577.742188 415.296875 575.765625 C 414.496094 575.28125 413.75 574.738281 413.058594 574.140625 C 411.304688 572.667969 409.890625 570.820312 408.9375 568.5625 C 406.957031 563.921875 407.613281 558.621094 408.320312 553.621094 C 411.753906 528.714844 415.183594 503.792969 418.632812 478.90625 C 422.234375 452.75 425.890625 426.410156 431.765625 400.722656 C 435.90625 382.625 441.144531 364.847656 448.230469 347.683594 C 458.898438 321.828125 473.988281 296.027344 472.421875 268.195312 L 500.957031 268.195312 C 495.082031 306.0625 505.730469 346.265625 529.695312 376.207031 C 535.476562 383.429688 542.039062 390.164062 546.292969 398.371094 C 552.484375 410.402344 553.121094 424.429688 553.621094 437.957031 L 554.292969 455.605469 L 557.242188 533.792969 L 557.929688 551.980469 C 558.152344 557.96875 558.285156 564.328125 555.265625 569.496094 " fill-opacity="1" fill-rule="nonzero"/></g><path fill="#b7d8ed" d="M 482.1875 268.195312 L 489.492188 268.195312 L 489.492188 255.890625 L 482.1875 255.890625 Z M 482.1875 268.195312 " fill-opacity="1" fill-rule="nonzero"/><path fill="#6ab8ed" d="M 482.1875 385.117188 L 489.492188 385.117188 L 489.492188 268.195312 L 482.1875 268.195312 Z M 482.1875 385.117188 " fill-opacity="1" fill-rule="nonzero"/><path fill="#f04b47" d="M 555.246094 244.089844 C 556.273438 245.433594 555.300781 247.375 553.621094 247.375 C 553.363281 247.375 553.136719 247.335938 552.894531 247.242188 C 550.191406 246.199219 532.789062 238.808594 530.011719 218.605469 L 504.628906 218.605469 L 504.589844 218.308594 L 502.09375 195.472656 L 558.042969 198.105469 C 558.042969 198.105469 538.496094 222.167969 555.246094 244.089844 " fill-opacity="1" fill-rule="nonzero"/><path fill="#f04b47" d="M 505.917969 245.042969 L 505.917969 264.480469 C 505.917969 266.53125 504.253906 268.195312 502.222656 268.195312 L 472.382812 268.195312 C 470.332031 268.195312 468.691406 266.53125 468.691406 264.480469 L 468.691406 245.042969 C 468.691406 242.988281 470.332031 241.347656 472.382812 241.347656 L 502.222656 241.347656 C 504.253906 241.347656 505.917969 242.988281 505.917969 245.042969 " fill-opacity="1" fill-rule="nonzero"/><path fill="#ffba23" d="M 572.722656 183.273438 L 572.722656 195.171875 C 572.722656 197.019531 571.171875 198.515625 569.308594 198.402344 C 565.335938 198.179688 561.585938 198.082031 558.042969 198.105469 C 524.585938 198.214844 510.335938 208.046875 504.589844 218.308594 C 498.289062 229.578125 502.222656 241.347656 502.222656 241.347656 L 474.4375 241.347656 C 475.683594 228.289062 465.96875 223.53125 459.066406 221.796875 C 454.613281 220.65625 451.476562 216.683594 451.328125 212.078125 C 449.855469 162.246094 551.964844 177.058594 570.015625 180.066406 C 571.582031 180.324219 572.722656 181.683594 572.722656 183.273438 " fill-opacity="1" fill-rule="nonzero"/><path fill="#f04b47" d="M 579.566406 186.949219 L 579.566406 192.339844 C 579.566406 193.515625 578.726562 194.503906 577.570312 194.691406 L 572.722656 195.472656 L 572.722656 183.832031 L 577.570312 184.59375 C 578.726562 184.785156 579.566406 185.773438 579.566406 186.949219 " fill-opacity="1" fill-rule="nonzero"/><path fill="#a6dbff" d="M 537.59375 571.316406 L 426.074219 571.316406 C 423.429688 571.316406 421.019531 570.703125 419.089844 569.535156 C 417.441406 568.511719 416.3125 567.269531 415.667969 565.71875 C 414.5 562.984375 414.925781 559.070312 415.554688 554.625 L 425.871094 479.902344 C 430.210938 448.390625 434.667969 416.089844 443.230469 385.117188 L 482.1875 385.117188 L 482.1875 553.339844 L 489.492188 553.339844 L 489.492188 385.117188 L 527.585938 385.117188 C 527.90625 385.496094 528.230469 385.890625 528.550781 386.269531 C 532.890625 391.429688 536.996094 396.296875 539.800781 401.722656 C 545.371094 412.535156 545.878906 426.191406 546.320312 438.230469 L 550.628906 552.242188 C 550.832031 557.738281 550.863281 562.5625 548.964844 565.792969 C 548.042969 567.371094 546.699219 568.628906 544.84375 569.621094 C 542.8125 570.734375 540.296875 571.316406 537.59375 571.316406 " fill-opacity="1" fill-rule="nonzero"/><path fill="#8fcaf2" d="M 482.1875 553.339844 L 489.492188 553.339844 L 489.492188 385.117188 L 482.1875 385.117188 Z M 482.1875 553.339844 " fill-opacity="1" fill-rule="nonzero"/><path fill="#ffffff" d="M 531.722656 438.773438 C 531.3125 427.753906 530.886719 416.335938 526.8125 408.429688 L 526.769531 408.34375 C 523.921875 402.90625 518.144531 399.628906 512.003906 399.628906 L 468.015625 399.628906 C 460.035156 399.628906 453.15625 405.226562 451.507812 413.042969 C 446.703125 435.761719 443.484375 459.035156 440.335938 481.894531 C 440.335938 481.894531 438.988281 491.648438 437.269531 504.113281 C 435.867188 514.246094 443.738281 523.289062 453.96875 523.289062 L 517.414062 523.289062 C 526.972656 523.289062 534.621094 515.34375 534.257812 505.785156 L 531.722656 438.773438 " fill-opacity="1" fill-rule="nonzero"/><path fill="#ffd270" d="M 466.457031 202.308594 C 464.066406 202.308594 462.410156 201.742188 461.882812 200.566406 C 460.511719 197.527344 467.1875 191.558594 476.789062 187.238281 C 482.667969 184.589844 488.285156 183.171875 492.070312 183.171875 C 494.460938 183.171875 496.117188 183.738281 496.648438 184.914062 C 498.015625 187.953125 491.339844 193.921875 481.738281 198.246094 C 475.859375 200.894531 470.242188 202.308594 466.457031 202.308594 " fill-opacity="1" fill-rule="nonzero"/><path fill="#a6dbff" d="M 452.058594 373.078125 C 451.886719 373.078125 451.726562 373.046875 451.570312 372.992188 C 448.539062 371.886719 450.058594 360.078125 454.964844 346.613281 C 459.625 333.835938 465.664062 324.160156 468.855469 324.160156 C 469.027344 324.160156 469.191406 324.1875 469.34375 324.246094 C 472.378906 325.351562 470.855469 337.160156 465.949219 350.621094 C 461.289062 363.398438 455.25 373.078125 452.058594 373.078125 " fill-opacity="1" fill-rule="nonzero"/><g fill="#351032" fill-opacity="1"><g transform="translate(271.855464, 443.072449)"><g><path d="M 4.9375 -68.265625 L 23.78125 -67.734375 C 28.65625 -67.597656 32.273438 -66.140625 34.640625 -63.359375 C 37.015625 -60.585938 38.15625 -56.550781 38.0625 -51.25 L 37.3125 -19.25 C 37.1875 -12.519531 35.878906 -7.488281 33.390625 -4.15625 C 30.910156 -0.832031 26.910156 0.75 21.390625 0.59375 L 3.03125 0.078125 Z M 19.53125 -11.5625 C 22.007812 -11.488281 23.28125 -12.675781 23.34375 -15.125 L 24.328125 -50.359375 C 24.367188 -51.898438 24.28125 -53.054688 24.0625 -53.828125 C 23.851562 -54.609375 23.429688 -55.140625 22.796875 -55.421875 C 22.171875 -55.710938 21.203125 -55.875 19.890625 -55.90625 L 18.375 -55.953125 L 17.140625 -11.625 Z M 19.53125 -11.5625 "/></g></g></g><g fill="#351032" fill-opacity="1"><g transform="translate(311.079869, 444.170226)"><g><path d="M 19.09375 1.171875 C 13.09375 1.003906 8.835938 -0.757812 6.328125 -4.125 C 3.828125 -7.488281 2.664062 -12.429688 2.84375 -18.953125 L 3.5 -42.34375 C 3.644531 -47.707031 5.296875 -51.75 8.453125 -54.46875 C 11.609375 -57.195312 15.9375 -58.488281 21.4375 -58.34375 C 32.632812 -58.019531 38.082031 -52.363281 37.78125 -41.375 L 37.65625 -37.15625 C 37.539062 -32.914062 37.394531 -29.472656 37.21875 -26.828125 L 17.015625 -27.390625 L 16.703125 -16.109375 C 16.640625 -14.085938 16.804688 -12.5 17.203125 -11.34375 C 17.597656 -10.195312 18.484375 -9.601562 19.859375 -9.5625 C 20.910156 -9.53125 21.671875 -9.828125 22.140625 -10.453125 C 22.617188 -11.078125 22.90625 -11.796875 23 -12.609375 C 23.101562 -13.429688 23.175781 -14.640625 23.21875 -16.234375 L 23.375 -21.875 L 37.21875 -21.484375 L 37.125 -18.15625 C 36.9375 -11.363281 35.484375 -6.398438 32.765625 -3.265625 C 30.054688 -0.128906 25.5 1.347656 19.09375 1.171875 Z M 23.71875 -34.125 L 23.9375 -41.609375 C 24.050781 -45.796875 23.078125 -47.921875 21.015625 -47.984375 C 18.679688 -48.046875 17.457031 -45.984375 17.34375 -41.796875 L 17.125 -34.3125 Z M 23.71875 -34.125 "/></g></g></g><g fill="#351032" fill-opacity="1"><g transform="translate(349.906462, 445.256869)"><g><path d="M 14.78125 1.046875 C 11.125 0.953125 8.625 0.113281 7.28125 -1.46875 C 5.945312 -3.050781 5.328125 -5.539062 5.421875 -8.9375 L 6.4375 -45.296875 L 2.546875 -45.40625 L 2.84375 -55.984375 L 6.734375 -55.875 L 7.078125 -68.203125 L 20.609375 -67.828125 L 20.265625 -55.5 L 24.234375 -55.375 L 23.9375 -44.796875 L 19.96875 -44.921875 L 19.0625 -12.21875 C 19.03125 -11.207031 19.085938 -10.460938 19.234375 -9.984375 C 19.390625 -9.503906 19.804688 -9.253906 20.484375 -9.234375 C 21.015625 -9.210938 21.519531 -9.222656 22 -9.265625 C 22.476562 -9.304688 22.796875 -9.320312 22.953125 -9.3125 L 22.6875 0.25 C 21.875 0.425781 20.710938 0.613281 19.203125 0.8125 C 17.691406 1.007812 16.21875 1.085938 14.78125 1.046875 Z M 14.78125 1.046875 "/></g></g></g><g fill="#351032" fill-opacity="1"><g transform="translate(374.173082, 445.93602)"><g><path d="M 19.09375 1.171875 C 13.09375 1.003906 8.835938 -0.757812 6.328125 -4.125 C 3.828125 -7.488281 2.664062 -12.429688 2.84375 -18.953125 L 3.5 -42.34375 C 3.644531 -47.707031 5.296875 -51.75 8.453125 -54.46875 C 11.609375 -57.195312 15.9375 -58.488281 21.4375 -58.34375 C 32.632812 -58.019531 38.082031 -52.363281 37.78125 -41.375 L 37.65625 -37.15625 C 37.539062 -32.914062 37.394531 -29.472656 37.21875 -26.828125 L 17.015625 -27.390625 L 16.703125 -16.109375 C 16.640625 -14.085938 16.804688 -12.5 17.203125 -11.34375 C 17.597656 -10.195312 18.484375 -9.601562 19.859375 -9.5625 C 20.910156 -9.53125 21.671875 -9.828125 22.140625 -10.453125 C 22.617188 -11.078125 22.90625 -11.796875 23 -12.609375 C 23.101562 -13.429688 23.175781 -14.640625 23.21875 -16.234375 L 23.375 -21.875 L 37.21875 -21.484375 L 37.125 -18.15625 C 36.9375 -11.363281 35.484375 -6.398438 32.765625 -3.265625 C 30.054688 -0.128906 25.5 1.347656 19.09375 1.171875 Z M 23.71875 -34.125 L 23.9375 -41.609375 C 24.050781 -45.796875 23.078125 -47.921875 21.015625 -47.984375 C 18.679688 -48.046875 17.457031 -45.984375 17.34375 -41.796875 L 17.125 -34.3125 Z M 23.71875 -34.125 "/></g></g></g><g fill="#351032" fill-opacity="1"><g transform="translate(412.999675, 447.022663)"><g><path d="M 4.40625 -58.171875 L 18.34375 -57.78125 L 18.171875 -51.328125 C 18.921875 -53.585938 20.171875 -55.316406 21.921875 -56.515625 C 23.679688 -57.722656 25.835938 -58.289062 28.390625 -58.21875 L 28.0625 -46.59375 C 26.09375 -46.644531 23.921875 -46.425781 21.546875 -45.9375 C 19.179688 -45.445312 17.988281 -44.832031 17.96875 -44.09375 L 16.71875 0.46875 L 2.78125 0.078125 Z M 4.40625 -58.171875 "/></g></g></g><g fill="#351032" fill-opacity="1"><g transform="translate(440.369233, 447.788657)"><g><path d="M 6.03125 -62 L 6.3125 -71.71875 L 20.25 -71.328125 L 19.96875 -61.609375 Z M 7.0625 7.046875 C 4.03125 6.960938 2.078125 6.5625 1.203125 5.84375 L 1.453125 -3.46875 C 1.710938 -3.351562 2.132812 -3.285156 2.71875 -3.265625 C 3.40625 -3.242188 3.859375 -3.457031 4.078125 -3.90625 C 4.304688 -4.351562 4.4375 -5.023438 4.46875 -5.921875 L 5.921875 -58.125 L 19.859375 -57.734375 L 18.421875 -5.9375 C 18.296875 -1.632812 17.320312 1.628906 15.5 3.859375 C 13.6875 6.085938 10.875 7.148438 7.0625 7.046875 Z M 7.0625 7.046875 "/></g></g></g><g fill="#351032" fill-opacity="1"><g transform="translate(461.294217, 448.374287)"><g><path d="M 13.359375 1.015625 C 8.847656 0.890625 5.796875 -0.691406 4.203125 -3.734375 C 2.617188 -6.785156 1.90625 -11.097656 2.0625 -16.671875 C 2.1875 -21.222656 2.878906 -24.703125 4.140625 -27.109375 C 5.398438 -29.515625 7.109375 -31.257812 9.265625 -32.34375 C 11.421875 -33.425781 14.691406 -34.597656 19.078125 -35.859375 L 22.921875 -37.015625 L 22.9375 -37.1875 L 23.09375 -43 C 23.132812 -44.53125 22.863281 -45.710938 22.28125 -46.546875 C 21.695312 -47.390625 20.984375 -47.820312 20.140625 -47.84375 C 19.398438 -47.863281 18.738281 -47.535156 18.15625 -46.859375 C 17.582031 -46.191406 17.28125 -45.273438 17.25 -44.109375 L 17.15625 -40.609375 L 3.625 -41 L 3.671875 -42.90625 C 3.828125 -48.632812 5.273438 -52.679688 8.015625 -55.046875 C 10.765625 -57.410156 15.164062 -58.507812 21.21875 -58.34375 C 26.039062 -58.207031 29.925781 -56.835938 32.875 -54.234375 C 35.832031 -51.628906 37.242188 -48.015625 37.109375 -43.390625 L 35.875 1 L 22.03125 0.609375 L 22.21875 -6.3125 C 21.46875 -3.9375 20.316406 -2.109375 18.765625 -0.828125 C 17.222656 0.453125 15.421875 1.066406 13.359375 1.015625 Z M 19.140625 -9.65625 C 20.191406 -9.625 20.957031 -10.039062 21.4375 -10.90625 C 21.914062 -11.769531 22.171875 -12.835938 22.203125 -14.109375 L 22.65625 -30.34375 C 20.570312 -29.601562 19.023438 -28.632812 18.015625 -27.4375 C 17.003906 -26.25 16.46875 -24.566406 16.40625 -22.390625 L 16.1875 -14.921875 C 16.09375 -11.472656 17.078125 -9.71875 19.140625 -9.65625 Z M 19.140625 -9.65625 "/></g></g></g><g fill="#351032" fill-opacity="1"><g transform="translate(499.722997, 449.449796)"><g><path d="M 4.40625 -58.171875 L 18.34375 -57.78125 L 18.140625 -50.375 C 18.785156 -52.75 19.84375 -54.660156 21.3125 -56.109375 C 22.78125 -57.554688 24.707031 -58.242188 27.09375 -58.171875 C 31.019531 -58.066406 33.890625 -56.78125 35.703125 -54.3125 C 37.523438 -51.84375 38.375 -48.378906 38.25 -43.921875 L 37 1.03125 L 23.3125 0.65625 L 24.53125 -42.859375 C 24.5625 -44.140625 24.335938 -45.238281 23.859375 -46.15625 C 23.378906 -47.070312 22.609375 -47.546875 21.546875 -47.578125 C 20.117188 -47.617188 19.160156 -46.992188 18.671875 -45.703125 C 18.191406 -44.410156 17.921875 -42.675781 17.859375 -40.5 L 16.71875 0.46875 L 2.78125 0.078125 Z M 4.40625 -58.171875 "/></g></g></g><g fill="#351032" fill-opacity="1"><g transform="translate(308.297128, 555.135804)"><g><path d="M 35.734375 -18.890625 C 35.554688 -12.640625 34.351562 -7.816406 32.125 -4.421875 C 29.90625 -1.035156 26.40625 0.828125 21.625 1.171875 C 23.894531 3.410156 25.640625 5.820312 26.859375 8.40625 C 28.085938 10.988281 28.671875 13.472656 28.609375 15.859375 C 28.535156 18.671875 27.503906 20.921875 25.515625 22.609375 C 23.523438 24.304688 20.601562 25.097656 16.75 24.984375 C 14.09375 24.910156 11.53125 24.332031 9.0625 23.25 L 9.296875 14.59375 C 10.929688 15.226562 12.46875 15.566406 13.90625 15.609375 C 16.925781 15.691406 18.476562 14.195312 18.5625 11.125 C 18.601562 9.738281 18.316406 8.144531 17.703125 6.34375 C 17.085938 4.550781 16.195312 2.707031 15.03125 0.8125 C 10.375 0.0390625 7.03125 -1.910156 5 -5.046875 C 2.96875 -8.179688 2.035156 -12.769531 2.203125 -18.8125 L 2.390625 -25.484375 L 15.84375 -25.109375 L 15.59375 -16.609375 C 15.5 -13.210938 16.539062 -11.484375 18.71875 -11.421875 C 19.925781 -11.390625 20.78125 -11.722656 21.28125 -12.421875 C 21.78125 -13.128906 22.054688 -14.332031 22.109375 -16.03125 C 22.171875 -18.25 21.957031 -20.09375 21.46875 -21.5625 C 20.976562 -23.039062 20.335938 -24.28125 19.546875 -25.28125 C 18.753906 -26.289062 17.320312 -27.859375 15.25 -29.984375 L 9.53125 -36.046875 C 5.09375 -40.628906 2.945312 -45.625 3.09375 -51.03125 C 3.257812 -56.863281 4.722656 -61.265625 7.484375 -64.234375 C 10.253906 -67.210938 14.21875 -68.628906 19.375 -68.484375 C 25.507812 -68.304688 29.882812 -66.550781 32.5 -63.21875 C 35.113281 -59.882812 36.320312 -54.75 36.125 -47.8125 L 22.203125 -48.203125 L 22.265625 -52.890625 C 22.285156 -53.796875 22.050781 -54.519531 21.5625 -55.0625 C 21.082031 -55.613281 20.390625 -55.898438 19.484375 -55.921875 C 18.421875 -55.953125 17.613281 -55.679688 17.0625 -55.109375 C 16.519531 -54.546875 16.234375 -53.757812 16.203125 -52.75 C 16.140625 -50.519531 17.351562 -48.175781 19.84375 -45.71875 L 27.5625 -37.859375 C 29.375 -35.992188 30.867188 -34.234375 32.046875 -32.578125 C 33.222656 -30.929688 34.148438 -28.992188 34.828125 -26.765625 C 35.515625 -24.546875 35.816406 -21.921875 35.734375 -18.890625 Z M 35.734375 -18.890625 "/></g></g></g><g fill="#351032" fill-opacity="1"><g transform="translate(344.975521, 556.162325)"><g><path d="M 2.390625 0.0625 L 4.015625 -58.1875 L 17.9375 -57.796875 L 16.3125 0.453125 Z M 4.203125 -61.75 L 4.53125 -73.375 L 18.46875 -72.984375 L 18.140625 -61.359375 Z M 4.203125 -61.75 "/></g></g></g><g fill="#351032" fill-opacity="1"><g transform="translate(363.672755, 556.685606)"><g><path d="M 36.734375 -15.21875 C 36.597656 -10.28125 35.210938 -6.414062 32.578125 -3.625 C 29.953125 -0.832031 26.328125 0.738281 21.703125 1.09375 C 23.972656 3.320312 25.71875 5.742188 26.9375 8.359375 C 28.164062 10.972656 28.75 13.472656 28.6875 15.859375 C 28.613281 18.671875 27.582031 20.921875 25.59375 22.609375 C 23.613281 24.304688 20.691406 25.097656 16.828125 24.984375 C 14.171875 24.910156 11.613281 24.335938 9.15625 23.265625 L 9.390625 14.609375 C 11.015625 15.234375 12.546875 15.566406 13.984375 15.609375 C 17.003906 15.691406 18.554688 14.195312 18.640625 11.125 C 18.722656 8.3125 17.546875 4.875 15.109375 0.8125 C 6.066406 -0.550781 1.691406 -6.429688 1.984375 -16.828125 L 2.1875 -21.421875 L 16.109375 -21.03125 L 16 -14.203125 C 15.96875 -12.828125 16.207031 -11.769531 16.71875 -11.03125 C 17.226562 -10.300781 18.09375 -9.921875 19.3125 -9.890625 C 21.164062 -9.835938 22.132812 -11.328125 22.21875 -14.359375 C 22.28125 -16.585938 21.894531 -18.347656 21.0625 -19.640625 C 20.226562 -20.929688 18.867188 -22.320312 16.984375 -23.8125 L 9.765625 -29.734375 C 7.265625 -31.773438 5.484375 -33.859375 4.421875 -35.984375 C 3.367188 -38.109375 2.894531 -41.082031 3 -44.90625 C 3.082031 -47.875 3.9375 -50.382812 5.5625 -52.4375 C 7.195312 -54.488281 9.328125 -56.007812 11.953125 -57 C 14.578125 -57.988281 17.476562 -58.441406 20.65625 -58.359375 C 31.945312 -58.046875 37.4375 -52.265625 37.125 -41.015625 L 37.09375 -39.890625 L 22.6875 -40.28125 L 22.75 -42.515625 C 22.789062 -43.890625 22.597656 -45.078125 22.171875 -46.078125 C 21.753906 -47.078125 21.019531 -47.59375 19.96875 -47.625 C 19.007812 -47.644531 18.269531 -47.382812 17.75 -46.84375 C 17.238281 -46.300781 16.972656 -45.550781 16.953125 -44.59375 C 16.890625 -42.46875 17.660156 -40.800781 19.265625 -39.59375 L 27.6875 -33.0625 C 30.6875 -30.695312 32.972656 -28.148438 34.546875 -25.421875 C 36.117188 -22.691406 36.847656 -19.289062 36.734375 -15.21875 Z M 36.734375 -15.21875 "/></g></g></g><g fill="#351032" fill-opacity="1"><g transform="translate(401.465024, 557.743302)"><g><path d="M 19.09375 1.171875 C 13.09375 1.003906 8.835938 -0.757812 6.328125 -4.125 C 3.828125 -7.488281 2.664062 -12.429688 2.84375 -18.953125 L 3.5 -42.34375 C 3.644531 -47.707031 5.296875 -51.75 8.453125 -54.46875 C 11.609375 -57.195312 15.9375 -58.488281 21.4375 -58.34375 C 32.632812 -58.019531 38.082031 -52.363281 37.78125 -41.375 L 37.65625 -37.15625 C 37.539062 -32.914062 37.394531 -29.472656 37.21875 -26.828125 L 17.015625 -27.390625 L 16.703125 -16.109375 C 16.640625 -14.085938 16.804688 -12.5 17.203125 -11.34375 C 17.597656 -10.195312 18.484375 -9.601562 19.859375 -9.5625 C 20.910156 -9.53125 21.671875 -9.828125 22.140625 -10.453125 C 22.617188 -11.078125 22.90625 -11.796875 23 -12.609375 C 23.101562 -13.429688 23.175781 -14.640625 23.21875 -16.234375 L 23.375 -21.875 L 37.21875 -21.484375 L 37.125 -18.15625 C 36.9375 -11.363281 35.484375 -6.398438 32.765625 -3.265625 C 30.054688 -0.128906 25.5 1.347656 19.09375 1.171875 Z M 23.71875 -34.125 L 23.9375 -41.609375 C 24.050781 -45.796875 23.078125 -47.921875 21.015625 -47.984375 C 18.679688 -48.046875 17.457031 -45.984375 17.34375 -41.796875 L 17.125 -34.3125 Z M 23.71875 -34.125 "/></g></g></g><g fill="#351032" fill-opacity="1"><g transform="translate(440.291617, 558.829945)"><g><path d="M 18.765625 1.171875 C 7.253906 0.847656 1.660156 -5.148438 1.984375 -16.828125 L 2.1875 -21.421875 L 16.109375 -21.03125 L 16 -14.203125 C 15.96875 -12.828125 16.207031 -11.769531 16.71875 -11.03125 C 17.226562 -10.300781 18.09375 -9.921875 19.3125 -9.890625 C 21.164062 -9.835938 22.132812 -11.328125 22.21875 -14.359375 C 22.28125 -16.585938 21.894531 -18.347656 21.0625 -19.640625 C 20.226562 -20.929688 18.867188 -22.320312 16.984375 -23.8125 L 9.765625 -29.734375 C 7.265625 -31.773438 5.484375 -33.859375 4.421875 -35.984375 C 3.367188 -38.109375 2.894531 -41.082031 3 -44.90625 C 3.082031 -47.875 3.9375 -50.382812 5.5625 -52.4375 C 7.195312 -54.488281 9.328125 -56.007812 11.953125 -57 C 14.578125 -57.988281 17.476562 -58.441406 20.65625 -58.359375 C 31.945312 -58.046875 37.4375 -52.265625 37.125 -41.015625 L 37.09375 -39.890625 L 22.6875 -40.28125 L 22.75 -42.515625 C 22.789062 -43.890625 22.597656 -45.078125 22.171875 -46.078125 C 21.753906 -47.078125 21.019531 -47.59375 19.96875 -47.625 C 19.007812 -47.644531 18.269531 -47.382812 17.75 -46.84375 C 17.238281 -46.300781 16.972656 -45.550781 16.953125 -44.59375 C 16.890625 -42.46875 17.660156 -40.800781 19.265625 -39.59375 L 27.6875 -33.0625 C 30.6875 -30.695312 32.972656 -28.148438 34.546875 -25.421875 C 36.117188 -22.691406 36.847656 -19.289062 36.734375 -15.21875 C 36.585938 -9.8125 34.929688 -5.691406 31.765625 -2.859375 C 28.609375 -0.0234375 24.273438 1.316406 18.765625 1.171875 Z M 18.765625 1.171875 "/></g></g></g><g fill="#351032" fill-opacity="1"><g transform="translate(478.083885, 559.88764)"><g><path d="M 2.390625 0.0625 L 4.015625 -58.1875 L 17.9375 -57.796875 L 16.3125 0.453125 Z M 4.203125 -61.75 L 4.53125 -73.375 L 18.46875 -72.984375 L 18.140625 -61.359375 Z M 4.203125 -61.75 "/></g></g></g></svg>