<svg xmlns="http://www.w3.org/2000/svg" xmlns:xlink="http://www.w3.org/1999/xlink" width="1080" zoomAndPan="magnify" viewBox="0 0 810 809.999993" height="1080" preserveAspectRatio="xMidYMid meet" version="1.0"><defs><g/></defs><rect x="-81" width="972" fill="#ffffff" y="-80.999999" height="971.999992" fill-opacity="1"/><rect x="-81" width="972" fill="#ffffff" y="-80.999999" height="971.999992" fill-opacity="1"/><path fill="#000000" d="M 615.53125 529.546875 L 615.441406 528.59375 C 611.839844 490.058594 608.125 450.207031 597.566406 411.308594 C 589.976562 383.429688 579.421875 358.925781 566.144531 338.046875 C 574.234375 331.679688 579.761719 321.320312 581.371094 309.144531 C 582.410156 301.097656 580.710938 293.097656 579.082031 285.34375 C 578.46875 282.398438 577.859375 279.496094 577.425781 276.6875 C 576.996094 273.785156 574.664062 271.515625 571.71875 271.175781 C 563.972656 270.316406 556.066406 271.222656 547.003906 274.035156 C 545.304688 274.554688 543.945312 275.734375 543.105469 277.273438 C 542.335938 278.839844 542.199219 280.652344 542.765625 282.308594 C 545.28125 289.808594 544.148438 298.378906 539.957031 305.089844 C 511.597656 276.640625 474.601562 259.707031 440.710938 259.707031 C 440.53125 259.707031 440.394531 259.707031 440.238281 259.707031 C 434.164062 259.753906 428.933594 261.566406 423.925781 263.335938 C 421.457031 264.195312 419.125 265.035156 416.722656 265.601562 L 317.929688 289.492188 C 297.882812 294.34375 278.988281 298.945312 259.597656 306.039062 C 238.460938 313.792969 217.621094 321.886719 197.433594 329.683594 L 148.660156 348.519531 C 146.894531 349.269531 145.039062 349.992188 143.203125 350.855469 C 140.960938 351.808594 138.832031 352.847656 136.769531 354.027344 C 133.394531 355.886719 130.539062 358.359375 128.113281 361.125 C 123.992188 365.316406 120.617188 370.824219 118.328125 377.921875 C 101.746094 366.585938 85.707031 354.457031 70.234375 341.5625 C 66.472656 338.386719 66.132812 336.734375 66.089844 336.734375 C 66.292969 336.394531 67.132812 335.78125 69.894531 334.625 C 114.660156 316.171875 152.265625 301.890625 188.214844 289.582031 C 208.875 282.554688 229.128906 276.210938 248.429688 270.609375 C 258.941406 267.617188 269.429688 264.761719 279.441406 262.179688 C 280.1875 261.996094 280.867188 261.859375 281.457031 261.703125 C 286.847656 260.476562 291.402344 258.710938 291.96875 249.574219 C 292.261719 244.816406 290.972656 238.128906 286.417969 233.683594 C 282.566406 229.855469 276.769531 228.085938 270.492188 228.855469 C 265.984375 229.421875 261.976562 231.125 258.417969 232.640625 L 257.898438 232.847656 C 250.195312 236.132812 242.289062 239.035156 234.269531 241.6875 L 234.089844 221.082031 C 235.652344 221.625 237.375 221.601562 238.980469 220.855469 C 253.886719 214.007812 266.640625 200.25 274.910156 182.09375 C 281.140625 168.402344 291.222656 141.609375 288.503906 115.878906 C 286.757812 99.515625 282.75 75.78125 267.683594 58.460938 C 245.6875 33.121094 210.257812 31.078125 191.070312 32.121094 C 171.609375 33.210938 143.65625 38.3125 121.09375 56.648438 C 105.867188 68.980469 94.042969 87 87.8125 107.3125 C 82.265625 125.445312 80.882812 146.1875 83.871094 167.199219 C 86.636719 186.898438 92.886719 203.195312 102.3125 215.527344 C 116.425781 234.023438 139.871094 244.632812 163.070312 244.632812 C 170.523438 244.632812 177.886719 243.453125 184.976562 241.210938 L 184.886719 256.058594 C 174.417969 258.914062 163.816406 261.90625 153.28125 265.285156 C 117.492188 276.730469 81.96875 290.242188 47.738281 305.519531 C 41.171875 308.464844 27.441406 314.5625 24.203125 327.4375 C 21.914062 336.621094 25.3125 346.320312 34.625 357.132812 C 53.539062 379.097656 78.164062 394.558594 99.933594 408.25 C 102.515625 409.882812 105.167969 411.492188 107.773438 413.144531 C 94.699219 469.726562 101.746094 532.355469 127.933594 589.953125 C 135.296875 606.183594 143.113281 619.535156 151.8125 630.621094 C 151.992188 631.390625 152.355469 632.183594 152.988281 632.730469 C 153.691406 633.386719 154.371094 634 155.117188 634.609375 C 159.738281 640.097656 164.632812 645.128906 169.867188 649.503906 C 192.90625 668.863281 224.710938 679.515625 259.550781 679.515625 C 259.550781 679.515625 259.550781 679.515625 259.597656 679.515625 C 285.082031 679.515625 311.835938 674.1875 343.121094 663.011719 C 341.332031 669.90625 339.40625 676.773438 337.230469 683.503906 C 335.28125 689.511719 333.152344 695.585938 330.910156 701.457031 C 330.75 701.933594 330.390625 702.976562 329.914062 704.359375 C 327.761719 711 326.199219 715.148438 325.335938 716.847656 C 323.683594 718.230469 322.824219 720.386719 323.117188 722.652344 C 323.570312 725.894531 326.378906 728.273438 329.527344 728.273438 C 329.824219 728.273438 330.140625 728.230469 330.433594 728.183594 C 330.433594 728.183594 330.433594 728.183594 330.480469 728.183594 C 422.070312 715.421875 519.480469 690.328125 628.375 651.542969 C 631.523438 650.410156 633.359375 647.03125 632.476562 643.746094 C 622.644531 606.660156 619.019531 567.445312 615.53125 529.546875 " fill-opacity="1" fill-rule="nonzero"/><path fill="#000000" d="M 147.710938 59.753906 C 150.882812 56.605469 154.324219 53.769531 158.019531 51.320312 C 148.140625 54.609375 138.195312 59.503906 129.269531 66.714844 C 116.039062 77.457031 105.734375 93.234375 100.226562 111.121094 C 95.222656 127.484375 94 146.230469 96.71875 165.363281 C 99.207031 182.839844 104.53125 197.078125 112.621094 207.640625 C 120.796875 218.339844 132.734375 225.839844 145.761719 229.378906 C 143.042969 227.882812 140.394531 226.136719 137.925781 224.1875 C 125.304688 214.101562 116.085938 198.027344 112.054688 178.988281 C 109.449219 166.816406 108.972656 153.417969 110.535156 138.09375 C 112.257812 120.957031 115.632812 106.746094 120.84375 94.574219 C 126.6875 81.015625 135.679688 71.925781 145.242188 62.269531 Z M 221.335938 245.789062 L 221.0625 215.824219 C 219.773438 215.914062 218.480469 215.957031 217.210938 215.957031 C 210.824219 215.957031 204.367188 215.1875 198.046875 213.757812 L 197.910156 251.820312 C 198.046875 252 198.183594 252.160156 198.296875 252.386719 C 205.976562 250.253906 213.632812 248.101562 221.335938 245.789062 Z M 222.671875 93.417969 C 222.714844 93.417969 222.714844 93.371094 222.761719 93.371094 C 217.257812 92.011719 211.253906 91.285156 204.796875 91.332031 C 195.667969 91.421875 188.351562 92.828125 182.507812 95.796875 C 173.511719 100.328125 165.925781 109.644531 161.167969 122.023438 C 157.453125 131.769531 155.730469 142.628906 156.226562 153.394531 C 156.679688 163.484375 158.402344 171.757812 161.394531 177.988281 C 163.070312 181.527344 167.238281 184.472656 171.269531 187.328125 L 173.039062 188.597656 C 175.03125 190.070312 177.136719 191.410156 179.3125 192.65625 C 178.609375 191.589844 177.929688 190.503906 177.320312 189.277344 C 172.742188 180.460938 172.652344 170.101562 173.195312 161.171875 C 173.898438 149.132812 175.980469 131.476562 185.632812 117.171875 C 193.96875 104.75 207.832031 95.839844 222.671875 93.417969 Z M 256.992188 175.90625 C 260.277344 167.539062 262.226562 159.492188 262.835938 151.832031 C 262.019531 143.511719 260.027344 134.671875 256.742188 125.195312 C 254.320312 118.054688 250.582031 109.261719 243.671875 104.839844 C 240.070312 102.597656 235.492188 101.417969 230.28125 101.417969 C 228.289062 101.417969 226.226562 101.597656 224.054688 101.9375 C 211.546875 104.023438 199.859375 111.503906 192.769531 122.023438 C 184.339844 134.582031 182.460938 150.699219 181.828125 161.691406 C 181.351562 169.851562 181.394531 178.328125 185.019531 185.3125 C 193.96875 202.585938 213.585938 201.316406 232.546875 200.070312 C 233.75 199.976562 234.925781 199.886719 236.082031 199.839844 C 238.824219 198.777344 241.316406 197.550781 243.445312 195.988281 C 248.859375 191.929688 253.1875 185.515625 256.992188 175.90625 Z M 265.167969 541.015625 C 268.886719 530.679688 268.886719 518.847656 268.386719 508.621094 C 267.59375 493.253906 265.441406 473.554688 255.316406 457.871094 C 254.660156 456.828125 253.957031 455.875 253.230469 454.921875 C 251.191406 457.054688 248.203125 458.914062 243.785156 460.113281 C 233.839844 462.945312 222.808594 466.050781 211.367188 466.050781 C 208.921875 466.050781 206.453125 465.917969 203.9375 465.578125 C 199.472656 465.011719 195.238281 463.855469 191.160156 462.378906 C 184.160156 489.21875 189.914062 519.546875 206.359375 541.832031 C 212.023438 549.539062 217.867188 554.957031 224.234375 558.378906 C 231.371094 562.230469 239.207031 563.320312 245.824219 561.417969 C 254.09375 559.035156 261.546875 551.191406 265.167969 541.015625 Z M 275.160156 135.851562 C 275.996094 129.207031 276.203125 122.90625 275.613281 117.21875 C 275 111.6875 274.140625 105.179688 272.578125 98.472656 C 272.148438 97.949219 271.828125 97.335938 271.671875 96.65625 C 267.34375 75.054688 248.382812 56.558594 224.484375 50.574219 C 196.144531 43.5 170.433594 49.101562 153.894531 65.851562 L 151.402344 68.367188 C 142.046875 77.820312 134.003906 85.957031 128.792969 97.996094 C 123.945312 109.351562 120.753906 122.726562 119.144531 138.957031 C 117.671875 153.394531 118.101562 165.90625 120.527344 177.195312 C 124.171875 194.3125 132.261719 208.546875 143.292969 217.386719 C 155.683594 227.269531 172.289062 229.988281 185.019531 224.457031 L 185.066406 209.769531 C 178.089844 207.050781 171.429688 203.535156 165.425781 199.117188 L 163.726562 197.9375 C 158.878906 194.492188 152.832031 190.164062 149.660156 183.566406 C 145.945312 175.769531 143.769531 165.816406 143.246094 153.9375 C 142.703125 141.425781 144.675781 128.777344 149.046875 117.398438 C 154.9375 101.984375 164.769531 90.152344 176.660156 84.191406 C 184.363281 80.335938 193.492188 78.433594 204.707031 78.320312 C 216.78125 78.296875 227.472656 80.292969 236.695312 84.304688 C 256.855469 93.144531 271.582031 113.25 275.160156 135.851562 Z M 278.988281 248.734375 C 279.148438 246.492188 278.421875 244.019531 277.335938 242.933594 C 276.519531 242.164062 275 241.6875 273.300781 241.6875 C 272.871094 241.6875 272.488281 241.730469 272.054688 241.777344 C 269.359375 242.070312 266.507812 243.296875 263.492188 244.589844 L 262.972656 244.816406 C 240.816406 254.199219 217.527344 260.570312 195.011719 266.710938 C 182.597656 270.132812 169.707031 273.648438 157.226562 277.636719 C 121.886719 288.925781 86.816406 302.324219 53.019531 317.375 C 45.496094 320.75 38.316406 324.652344 36.796875 330.589844 C 35.621094 335.351562 38.132812 341.289062 44.453125 348.65625 C 62.058594 369.125 85.867188 384.085938 106.820312 397.234375 C 128.410156 410.832031 150.089844 424.277344 171.769531 437.695312 C 181.984375 443.972656 193.539062 451.160156 205.613281 452.722656 C 217.054688 454.152344 228.855469 450.863281 240.273438 447.601562 C 241.203125 447.398438 241.925781 447.078125 242.492188 446.832031 C 235.492188 440.710938 226.046875 437.378906 216.734375 437.742188 C 211.367188 441.59375 202.464844 441.074219 198.296875 439.03125 C 149.453125 415.683594 103.558594 386.238281 61.964844 351.558594 C 52.339844 343.53125 52.292969 336.621094 53.925781 332.199219 C 56.121094 326.261719 61.898438 323.878906 64.957031 322.632812 C 109.96875 304.046875 147.800781 289.675781 184.023438 277.273438 C 204.886719 270.179688 225.320312 263.765625 244.871094 258.144531 C 255.472656 255.058594 266.074219 252.203125 276.246094 249.621094 C 277.128906 249.394531 277.855469 249.210938 278.558594 249.054688 C 278.714844 249.007812 278.851562 249.007812 278.988281 248.960938 C 278.988281 248.871094 278.988281 248.828125 278.988281 248.734375 Z M 350.957031 540.019531 C 351.59375 535.210938 352.25 530.703125 351.863281 526.328125 C 351.773438 525.125 351.59375 524.035156 351.433594 522.878906 C 348.582031 500.78125 343.824219 479.042969 337.050781 457.871094 L 335.191406 452.019531 C 329.054688 432.414062 321.441406 407.976562 305.152344 397.164062 C 298.675781 392.835938 292.648438 387.757812 286.847656 382.863281 C 284.652344 381.003906 282.453125 379.191406 280.234375 377.351562 C 274.230469 372.433594 265.394531 369.101562 256.902344 365.882812 C 254.613281 365.023438 252.324219 364.160156 250.195312 363.300781 C 227.429688 354.117188 200.265625 352.035156 169.34375 357.132812 C 160.960938 358.515625 154.324219 360.308594 148.707031 362.640625 C 144.132812 364.773438 140.527344 367.109375 137.675781 369.917969 C 134.164062 374.066406 131.695312 379.710938 129.632812 385.421875 C 153.417969 401.019531 178.226562 415.050781 203.890625 427.335938 C 204.640625 427.652344 206.269531 427.675781 207.605469 427.515625 C 208.511719 426 210.03125 424.820312 211.886719 424.433594 C 234.746094 419.921875 255.65625 434.429688 266.210938 450.820312 C 278.015625 469.136719 280.484375 490.964844 281.320312 507.964844 C 281.910156 519.503906 281.886719 532.921875 277.425781 545.433594 C 272.304688 559.648438 261.839844 570.300781 249.425781 573.929688 C 246.164062 574.878906 242.71875 575.3125 239.164062 575.3125 C 232.164062 575.3125 224.800781 573.453125 218.09375 569.824219 C 209.984375 565.496094 202.714844 558.855469 195.894531 549.539062 C 176.886719 523.789062 170.386719 488.585938 178.949219 457.644531 C 178.996094 457.4375 179.085938 457.257812 179.175781 457.054688 C 174.167969 454.402344 169.433594 451.5 164.925781 448.734375 C 149.792969 439.328125 134.640625 429.851562 119.460938 420.398438 C 108.359375 473.078125 115.429688 531.0625 139.757812 584.582031 C 151.085938 609.515625 163.296875 627.015625 178.226562 639.574219 C 180.398438 641.367188 182.6875 643.042969 184.976562 644.652344 C 203.550781 654.355469 224.800781 659.679688 246.480469 659.679688 C 247.25 659.679688 248 659.636719 248.769531 659.636719 C 264.738281 659.363281 278.898438 656.347656 290.882812 650.613281 C 293.167969 649.503906 295.546875 648.507812 297.925781 647.464844 C 306.148438 643.90625 313.941406 640.527344 319.222656 634.089844 C 331.136719 619.535156 338.429688 606.976562 342.304688 594.535156 L 342.804688 592.945312 C 346.675781 580.503906 350.640625 567.695312 349.917969 554.84375 C 349.621094 549.71875 350.300781 544.777344 350.957031 540.019531 Z M 354.335938 584.671875 C 353.292969 588.300781 352.203125 591.949219 351.09375 595.484375 L 350.550781 597.140625 C 346.40625 610.652344 338.566406 624.117188 325.949219 639.53125 C 319.3125 647.644531 310.183594 651.613281 301.347656 655.441406 C 299.105469 656.394531 296.816406 657.390625 294.597656 658.410156 C 287.210938 661.96875 279.054688 664.53125 270.289062 666.164062 C 293.261719 664.78125 317.792969 658.886719 346.632812 647.894531 C 346.789062 647.125 346.972656 646.285156 347.128906 645.515625 C 351.207031 625.589844 353.585938 605.164062 354.335938 584.671875 Z M 568.480469 307.46875 C 569.25 301.621094 567.777344 294.683594 566.394531 288.019531 C 566.078125 286.589844 565.785156 285.253906 565.535156 283.871094 C 562.679688 283.917969 559.78125 284.210938 556.652344 284.914062 C 558.125 295.339844 555.363281 306.378906 548.953125 314.835938 C 552.371094 318.824219 555.703125 322.929688 558.851562 327.257812 C 563.878906 322.929688 567.390625 315.878906 568.480469 307.46875 Z M 618.40625 641.273438 C 609.460938 604.9375 605.949219 567.265625 602.574219 530.746094 L 602.484375 529.75 C 598.949219 491.824219 595.300781 452.542969 585.015625 414.734375 C 573.710938 373.160156 555.746094 339.632812 531.597656 315.085938 C 505.503906 288.539062 471.566406 272.695312 440.710938 272.695312 C 440.578125 272.695312 440.441406 272.695312 440.328125 272.695312 C 436.429688 272.742188 432.445312 274.125 428.207031 275.597656 C 425.511719 276.550781 422.792969 277.5 419.804688 278.226562 L 320.964844 302.140625 C 301.300781 306.902344 282.75 311.367188 264.058594 318.257812 C 243.355469 325.828125 222.875 333.761719 203.074219 341.425781 C 222.035156 341.628906 239.433594 344.9375 255.042969 351.238281 C 257.128906 352.078125 259.28125 352.894531 261.546875 353.710938 C 270.539062 357.179688 280.753906 361.03125 288.457031 367.265625 C 290.699219 369.125 292.964844 371.050781 295.207031 372.957031 C 300.734375 377.625 306.511719 382.429688 312.335938 386.328125 C 332.472656 399.703125 340.878906 426.566406 347.605469 448.121094 L 349.394531 453.925781 C 361.175781 490.738281 367.269531 529.226562 367.5625 568.351562 C 367.789062 595.191406 365.183594 622.050781 359.863281 648.121094 C 357.144531 661.402344 353.722656 674.664062 349.621094 687.425781 C 347.582031 693.707031 345.363281 699.984375 343.03125 706.105469 C 342.894531 706.488281 342.644531 707.351562 342.261719 708.441406 C 341.648438 710.34375 341.082031 712.019531 340.515625 713.585938 C 426.214844 700.6875 517.328125 677 618.40625 641.273438 Z M 632.476562 643.746094 C 633.359375 647.03125 631.523438 650.410156 628.375 651.542969 C 519.480469 690.328125 422.070312 715.421875 330.480469 728.183594 C 330.433594 728.183594 330.433594 728.183594 330.433594 728.183594 C 330.140625 728.230469 329.824219 728.273438 329.527344 728.273438 C 326.378906 728.273438 323.546875 725.894531 323.117188 722.652344 C 322.824219 720.386719 323.683594 718.230469 325.335938 716.847656 C 326.199219 715.148438 327.761719 711 329.914062 704.359375 C 330.390625 702.976562 330.75 701.933594 330.910156 701.457031 C 333.152344 695.585938 335.28125 689.511719 337.230469 683.503906 C 339.40625 676.773438 341.332031 669.90625 343.121094 663.011719 C 311.835938 674.1875 285.082031 679.515625 259.597656 679.515625 C 259.550781 679.515625 259.550781 679.515625 259.550781 679.515625 C 224.710938 679.515625 192.90625 668.863281 169.867188 649.503906 C 164.632812 645.128906 159.738281 640.097656 155.117188 634.609375 C 154.371094 634 153.691406 633.386719 152.988281 632.730469 C 152.355469 632.183594 151.992188 631.390625 151.8125 630.621094 C 143.113281 619.535156 135.296875 606.183594 127.933594 589.953125 C 101.746094 532.355469 94.699219 469.726562 107.773438 413.144531 C 105.167969 411.492188 102.515625 409.882812 99.933594 408.25 C 78.164062 394.558594 53.539062 379.097656 34.625 357.132812 C 25.3125 346.320312 21.914062 336.621094 24.203125 327.4375 C 27.441406 314.5625 41.171875 308.464844 47.738281 305.519531 C 81.96875 290.242188 117.511719 276.730469 153.28125 265.285156 C 163.816406 261.90625 174.417969 258.914062 184.886719 256.058594 L 184.976562 241.210938 C 177.886719 243.453125 170.523438 244.632812 163.070312 244.632812 C 139.871094 244.632812 116.425781 234.023438 102.3125 215.527344 C 92.886719 203.195312 86.636719 186.898438 83.871094 167.199219 C 80.882812 146.1875 82.265625 125.445312 87.8125 107.3125 C 94.042969 87 105.867188 68.980469 121.09375 56.648438 C 143.65625 38.3125 171.609375 33.210938 191.070312 32.121094 C 210.257812 31.078125 245.6875 33.121094 267.683594 58.460938 C 282.75 75.78125 286.757812 99.515625 288.503906 115.878906 C 291.222656 141.609375 281.140625 168.402344 274.910156 182.09375 C 266.640625 200.25 253.886719 214.007812 238.980469 220.855469 C 237.375 221.601562 235.652344 221.625 234.089844 221.082031 L 234.269531 241.6875 C 242.289062 239.035156 250.195312 236.132812 257.898438 232.847656 L 258.417969 232.640625 C 261.976562 231.125 265.984375 229.421875 270.492188 228.855469 C 276.769531 228.085938 282.566406 229.855469 286.417969 233.683594 C 290.972656 238.128906 292.261719 244.816406 291.96875 249.574219 C 291.402344 258.710938 286.847656 260.476562 281.457031 261.703125 C 280.890625 261.859375 280.1875 261.996094 279.441406 262.179688 C 269.40625 264.761719 258.941406 267.617188 248.429688 270.609375 C 229.128906 276.210938 208.875 282.554688 188.214844 289.582031 C 152.265625 301.890625 114.660156 316.171875 69.894531 334.625 C 67.132812 335.78125 66.292969 336.394531 66.089844 336.734375 C 66.132812 336.734375 66.472656 338.386719 70.234375 341.5625 C 85.707031 354.457031 101.746094 366.585938 118.328125 377.921875 C 120.617188 370.824219 123.992188 365.316406 128.113281 361.125 C 130.539062 358.359375 133.394531 355.886719 136.769531 354.027344 C 138.832031 352.847656 140.960938 351.808594 143.203125 350.855469 C 145.039062 349.992188 146.894531 349.269531 148.660156 348.519531 L 197.433594 329.683594 C 217.621094 321.886719 238.460938 313.792969 259.597656 306.039062 C 278.988281 298.945312 297.882812 294.34375 317.929688 289.492188 L 416.722656 265.601562 C 419.125 265.035156 421.457031 264.195312 423.925781 263.335938 C 428.933594 261.566406 434.164062 259.753906 440.238281 259.707031 C 440.394531 259.707031 440.53125 259.707031 440.710938 259.707031 C 474.601562 259.707031 511.597656 276.640625 539.957031 305.089844 C 544.148438 298.378906 545.28125 289.808594 542.765625 282.308594 C 542.199219 280.652344 542.335938 278.839844 543.105469 277.273438 C 543.945312 275.734375 545.304688 274.554688 547.003906 274.035156 C 556.066406 271.222656 563.972656 270.316406 571.71875 271.175781 C 574.664062 271.515625 576.996094 273.785156 577.425781 276.6875 C 577.859375 279.496094 578.46875 282.398438 579.082031 285.34375 C 580.710938 293.097656 582.410156 301.097656 581.371094 309.144531 C 579.761719 321.320312 574.234375 331.679688 566.144531 338.046875 C 579.421875 358.925781 589.976562 383.429688 597.566406 411.308594 C 608.125 450.207031 611.839844 490.035156 615.441406 528.59375 L 615.507812 529.546875 C 619.019531 567.445312 622.644531 606.660156 632.476562 643.746094 " fill-opacity="1" fill-rule="nonzero"/><path fill="#f2f2f2" d="M 602.574219 530.746094 C 605.949219 567.265625 609.460938 604.9375 618.40625 641.273438 C 517.328125 677 426.214844 700.6875 340.515625 713.585938 C 341.082031 712.019531 341.648438 710.34375 342.261719 708.441406 C 342.644531 707.351562 342.894531 706.488281 343.03125 706.105469 C 345.363281 699.984375 347.582031 693.707031 349.621094 687.425781 C 353.722656 674.664062 357.144531 661.402344 359.863281 648.121094 C 365.183594 622.050781 367.789062 595.191406 367.5625 568.351562 C 367.269531 529.226562 361.175781 490.738281 349.394531 453.925781 L 347.605469 448.121094 C 340.878906 426.566406 332.472656 399.703125 312.335938 386.328125 C 306.511719 382.429688 300.734375 377.625 295.207031 372.957031 C 292.964844 371.050781 290.699219 369.125 288.457031 367.265625 C 280.753906 361.03125 270.539062 357.179688 261.546875 353.710938 C 259.28125 352.894531 257.128906 352.078125 255.042969 351.238281 C 239.433594 344.9375 222.035156 341.628906 203.074219 341.425781 C 222.875 333.761719 243.355469 325.828125 264.058594 318.257812 C 282.75 311.367188 301.300781 306.902344 320.964844 302.140625 L 419.804688 278.226562 C 422.792969 277.5 425.511719 276.550781 428.207031 275.597656 C 432.445312 274.125 436.429688 272.742188 440.328125 272.695312 C 440.441406 272.695312 440.578125 272.695312 440.710938 272.695312 C 471.566406 272.695312 505.503906 288.539062 531.597656 315.085938 C 555.746094 339.632812 573.710938 373.160156 585.015625 414.734375 C 595.300781 452.542969 598.949219 491.824219 602.484375 529.75 L 602.574219 530.746094 " fill-opacity="1" fill-rule="nonzero"/><path fill="#b3b3b3" d="M 566.394531 288.019531 C 567.777344 294.683594 569.25 301.621094 568.480469 307.46875 C 567.390625 315.878906 563.878906 322.929688 558.851562 327.257812 C 555.703125 322.929688 552.371094 318.824219 548.953125 314.835938 C 555.363281 306.378906 558.125 295.339844 556.652344 284.914062 C 559.78125 284.210938 562.679688 283.917969 565.535156 283.871094 C 565.785156 285.253906 566.078125 286.589844 566.394531 288.019531 " fill-opacity="1" fill-rule="nonzero"/><path fill="#cccccc" d="M 351.09375 595.484375 C 352.203125 591.949219 353.292969 588.300781 354.335938 584.671875 C 353.585938 605.164062 351.207031 625.589844 347.128906 645.515625 C 346.972656 646.285156 346.789062 647.125 346.632812 647.894531 C 317.792969 658.886719 293.261719 664.78125 270.289062 666.164062 C 279.054688 664.53125 287.210938 661.96875 294.597656 658.410156 C 296.816406 657.390625 299.105469 656.394531 301.347656 655.441406 C 310.183594 651.613281 319.3125 647.644531 325.949219 639.53125 C 338.566406 624.117188 346.40625 610.652344 350.550781 597.140625 L 351.09375 595.484375 " fill-opacity="1" fill-rule="nonzero"/><path fill="#f2f2f2" d="M 351.863281 526.328125 C 352.25 530.703125 351.59375 535.210938 350.957031 540.019531 C 350.300781 544.777344 349.621094 549.71875 349.917969 554.84375 C 350.640625 567.695312 346.675781 580.503906 342.804688 592.945312 L 342.304688 594.535156 C 338.429688 606.976562 331.136719 619.535156 319.222656 634.089844 C 313.941406 640.527344 306.148438 643.90625 297.925781 647.464844 C 295.546875 648.507812 293.167969 649.503906 290.882812 650.613281 C 278.898438 656.347656 264.738281 659.363281 248.769531 659.636719 C 248 659.636719 247.25 659.679688 246.480469 659.679688 C 224.800781 659.679688 203.550781 654.355469 184.976562 644.652344 C 182.6875 643.042969 180.398438 641.367188 178.226562 639.574219 C 163.296875 627.015625 151.085938 609.515625 139.757812 584.582031 C 115.429688 531.0625 108.359375 473.078125 119.460938 420.398438 C 134.640625 429.851562 149.792969 439.328125 164.925781 448.734375 C 169.433594 451.5 174.167969 454.402344 179.175781 457.054688 C 179.085938 457.257812 178.996094 457.4375 178.949219 457.644531 C 170.386719 488.585938 176.886719 523.789062 195.894531 549.539062 C 202.714844 558.855469 209.984375 565.496094 218.09375 569.824219 C 224.800781 573.453125 232.164062 575.3125 239.164062 575.3125 C 242.71875 575.3125 246.164062 574.878906 249.425781 573.929688 C 261.839844 570.300781 272.304688 559.648438 277.425781 545.433594 C 281.886719 532.921875 281.910156 519.503906 281.320312 507.964844 C 280.484375 490.964844 278.015625 469.136719 266.210938 450.820312 C 255.65625 434.429688 234.746094 419.921875 211.886719 424.433594 C 210.03125 424.820312 208.511719 426 207.605469 427.515625 C 206.269531 427.675781 204.640625 427.652344 203.890625 427.335938 C 178.226562 415.050781 153.417969 401.019531 129.632812 385.421875 C 131.695312 379.710938 134.164062 374.066406 137.675781 369.917969 C 140.527344 367.109375 144.132812 364.773438 148.707031 362.640625 C 154.324219 360.308594 160.960938 358.515625 169.34375 357.132812 C 200.265625 352.035156 227.429688 354.117188 250.195312 363.300781 C 252.324219 364.160156 254.613281 365.023438 256.902344 365.882812 C 265.394531 369.101562 274.230469 372.433594 280.234375 377.351562 C 282.453125 379.191406 284.652344 381.003906 286.847656 382.863281 C 292.648438 387.757812 298.675781 392.835938 305.152344 397.164062 C 321.441406 407.976562 329.054688 432.414062 335.191406 452.019531 L 337.050781 457.871094 C 343.824219 479.042969 348.582031 500.78125 351.433594 522.878906 C 351.59375 524.035156 351.773438 525.125 351.863281 526.328125 " fill-opacity="1" fill-rule="nonzero"/><path fill="#999999" d="M 277.335938 242.933594 C 278.421875 244.019531 279.148438 246.492188 278.988281 248.734375 C 278.988281 248.828125 278.988281 248.871094 278.988281 248.960938 C 278.851562 249.007812 278.714844 249.007812 278.558594 249.054688 C 277.855469 249.210938 277.128906 249.394531 276.246094 249.621094 C 266.074219 252.203125 255.472656 255.058594 244.871094 258.144531 C 225.320312 263.765625 204.886719 270.179688 184.023438 277.273438 C 147.800781 289.675781 109.96875 304.046875 64.957031 322.632812 C 61.898438 323.878906 56.121094 326.261719 53.925781 332.199219 C 52.292969 336.621094 52.339844 343.53125 61.964844 351.558594 C 103.558594 386.238281 149.453125 415.683594 198.296875 439.03125 C 202.464844 441.074219 211.367188 441.59375 216.734375 437.742188 C 226.046875 437.378906 235.492188 440.710938 242.492188 446.832031 C 241.925781 447.078125 241.203125 447.398438 240.273438 447.601562 C 228.855469 450.863281 217.054688 454.152344 205.613281 452.722656 C 193.539062 451.160156 181.984375 443.972656 171.769531 437.695312 C 150.089844 424.277344 128.410156 410.832031 106.820312 397.234375 C 85.867188 384.085938 62.058594 369.125 44.453125 348.65625 C 38.132812 341.289062 35.621094 335.351562 36.796875 330.589844 C 38.316406 324.652344 45.496094 320.75 53.019531 317.375 C 86.816406 302.324219 121.886719 288.925781 157.226562 277.636719 C 169.707031 273.648438 182.597656 270.132812 195.011719 266.710938 C 217.527344 260.570312 240.816406 254.199219 262.972656 244.816406 L 263.492188 244.589844 C 266.507812 243.296875 269.359375 242.070312 272.054688 241.777344 C 272.488281 241.730469 272.871094 241.6875 273.300781 241.6875 C 275 241.6875 276.519531 242.164062 277.335938 242.933594 " fill-opacity="1" fill-rule="nonzero"/><path fill="#999999" d="M 275.613281 117.21875 C 276.203125 122.90625 275.996094 129.207031 275.160156 135.851562 C 271.582031 113.25 256.855469 93.144531 236.695312 84.304688 C 227.472656 80.292969 216.78125 78.296875 204.707031 78.320312 C 193.492188 78.433594 184.363281 80.335938 176.660156 84.191406 C 164.769531 90.152344 154.9375 101.984375 149.046875 117.398438 C 144.675781 128.777344 142.703125 141.425781 143.246094 153.9375 C 143.769531 165.816406 145.945312 175.769531 149.660156 183.566406 C 152.832031 190.164062 158.878906 194.492188 163.726562 197.9375 L 165.425781 199.117188 C 171.429688 203.535156 178.089844 207.050781 185.066406 209.769531 L 185.019531 224.457031 C 172.289062 229.988281 155.683594 227.269531 143.292969 217.386719 C 132.261719 208.546875 124.171875 194.3125 120.527344 177.195312 C 118.101562 165.90625 117.671875 153.394531 119.144531 138.957031 C 120.753906 122.726562 123.945312 109.351562 128.792969 97.996094 C 134.003906 85.957031 142.046875 77.820312 151.402344 68.367188 L 153.894531 65.851562 C 170.433594 49.101562 196.144531 43.5 224.484375 50.574219 C 248.382812 56.558594 267.34375 75.054688 271.671875 96.65625 C 271.828125 97.335938 272.148438 97.949219 272.578125 98.472656 C 274.140625 105.179688 275 111.6875 275.613281 117.21875 " fill-opacity="1" fill-rule="nonzero"/><path fill="#8c6239" d="M 268.386719 508.621094 C 268.886719 518.847656 268.886719 530.679688 265.167969 541.015625 C 261.546875 551.191406 254.09375 559.035156 245.824219 561.417969 C 239.207031 563.320312 231.371094 562.230469 224.234375 558.378906 C 217.867188 554.957031 212.023438 549.539062 206.359375 541.832031 C 189.914062 519.546875 184.160156 489.21875 191.160156 462.378906 C 195.238281 463.855469 199.472656 465.011719 203.9375 465.578125 C 206.453125 465.917969 208.921875 466.050781 211.367188 466.050781 C 222.808594 466.050781 233.839844 462.945312 243.785156 460.113281 C 248.203125 458.914062 251.191406 457.054688 253.230469 454.921875 C 253.957031 455.875 254.660156 456.828125 255.316406 457.871094 C 265.441406 473.554688 267.59375 493.253906 268.386719 508.621094 " fill-opacity="1" fill-rule="nonzero"/><path fill="#b3b3b3" d="M 262.835938 151.832031 C 262.226562 159.492188 260.277344 167.539062 256.992188 175.90625 C 253.1875 185.515625 248.859375 191.929688 243.445312 195.988281 C 241.316406 197.550781 238.824219 198.777344 236.082031 199.839844 C 234.925781 199.886719 233.75 199.976562 232.546875 200.070312 C 213.585938 201.316406 193.96875 202.585938 185.019531 185.3125 C 181.394531 178.328125 181.351562 169.851562 181.828125 161.691406 C 182.460938 150.699219 184.339844 134.582031 192.769531 122.023438 C 199.859375 111.503906 211.546875 104.023438 224.054688 101.9375 C 226.226562 101.597656 228.289062 101.417969 230.28125 101.417969 C 235.492188 101.417969 240.070312 102.597656 243.671875 104.839844 C 250.582031 109.261719 254.320312 118.054688 256.742188 125.195312 C 260.027344 134.671875 262.019531 143.511719 262.835938 151.832031 " fill-opacity="1" fill-rule="nonzero"/><path fill="#666666" d="M 222.761719 93.371094 C 222.714844 93.371094 222.714844 93.417969 222.671875 93.417969 C 207.832031 95.839844 193.96875 104.75 185.632812 117.171875 C 175.980469 131.476562 173.898438 149.132812 173.195312 161.171875 C 172.652344 170.101562 172.742188 180.460938 177.320312 189.277344 C 177.929688 190.503906 178.609375 191.589844 179.3125 192.65625 C 177.136719 191.410156 175.03125 190.070312 173.039062 188.597656 L 171.269531 187.328125 C 167.238281 184.472656 163.070312 181.527344 161.394531 177.988281 C 158.402344 171.757812 156.679688 163.484375 156.226562 153.394531 C 155.730469 142.628906 157.453125 131.769531 161.167969 122.023438 C 165.925781 109.644531 173.511719 100.328125 182.507812 95.796875 C 188.351562 92.828125 195.667969 91.421875 204.796875 91.332031 C 211.253906 91.285156 217.257812 92.011719 222.761719 93.371094 " fill-opacity="1" fill-rule="nonzero"/><path fill="#b3b3b3" d="M 221.0625 215.824219 L 221.335938 245.789062 C 213.632812 248.101562 205.976562 250.253906 198.296875 252.386719 C 198.183594 252.160156 198.046875 252 197.910156 251.820312 L 198.046875 213.757812 C 204.367188 215.1875 210.824219 215.957031 217.210938 215.957031 C 218.480469 215.957031 219.773438 215.914062 221.0625 215.824219 " fill-opacity="1" fill-rule="nonzero"/><path fill="#666666" d="M 158.019531 51.320312 C 154.324219 53.769531 150.882812 56.605469 147.710938 59.753906 L 145.242188 62.269531 C 135.679688 71.925781 126.6875 81.015625 120.84375 94.574219 C 115.632812 106.746094 112.257812 120.957031 110.535156 138.09375 C 108.972656 153.417969 109.449219 166.816406 112.054688 178.988281 C 116.085938 198.027344 125.304688 214.101562 137.925781 224.1875 C 140.394531 226.136719 143.042969 227.882812 145.761719 229.378906 C 132.734375 225.839844 120.796875 218.339844 112.621094 207.640625 C 104.53125 197.078125 99.207031 182.839844 96.71875 165.363281 C 94 146.230469 95.222656 127.484375 100.226562 111.121094 C 105.734375 93.234375 116.039062 77.457031 129.269531 66.714844 C 138.195312 59.503906 148.140625 54.609375 158.019531 51.320312 " fill-opacity="1" fill-rule="nonzero"/><g fill="#351032" fill-opacity="1"><g transform="translate(361.248476, 525.187512)"><g><path d="M 9.21875 -1.953125 L -2.9375 -59.09375 L -11.328125 -57.3125 L -14.203125 -70.890625 L 16.75 -77.46875 L 19.625 -63.890625 L 11.234375 -62.109375 L 23.390625 -4.96875 Z M 9.21875 -1.953125 "/></g></g></g><g fill="#351032" fill-opacity="1"><g transform="translate(393.84828, 518.25595)"><g><path d="M 14.625 -2.421875 C 10.125 -1.460938 6.75 -2.148438 4.5 -4.484375 C 2.257812 -6.816406 0.578125 -10.644531 -0.546875 -15.96875 L -10.09375 -60.84375 L 4.390625 -63.921875 L 13.3125 -21.9375 C 13.394531 -21.550781 13.613281 -20.519531 13.96875 -18.84375 C 14.320312 -17.175781 14.832031 -16.050781 15.5 -15.46875 C 16.164062 -14.894531 17.050781 -14.726562 18.15625 -14.96875 C 19.632812 -15.28125 20.4375 -16.09375 20.5625 -17.40625 C 20.6875 -18.71875 20.503906 -20.535156 20.015625 -22.859375 L 19.90625 -23.34375 L 11.0625 -65.34375 L 25.390625 -68.390625 L 38.203125 -8.125 L 23.796875 -5.0625 L 22.4375 -11.484375 C 21.976562 -8.742188 21.207031 -6.6875 20.125 -5.3125 C 19.039062 -3.9375 17.207031 -2.972656 14.625 -2.421875 Z M 14.625 -2.421875 "/></g></g></g><g fill="#351032" fill-opacity="1"><g transform="translate(434.927331, 509.521481)"><g><path d="M 10.546875 -2.234375 L -11.90625 -60.453125 L 2.5 -63.515625 L 11.9375 -33.6875 L 14.515625 -23.984375 L 12.984375 -33.984375 L 9.828125 -65.078125 L 24.234375 -68.140625 L 27.25 -5.796875 Z M 10.546875 -2.234375 "/></g></g></g><g fill="#351032" fill-opacity="1"><g transform="translate(472.878113, 501.452162)"><g><path d="M 13.96875 -2.28125 C 9.300781 -1.289062 5.773438 -2.160156 3.390625 -4.890625 C 1.003906 -7.628906 -0.796875 -11.875 -2.015625 -17.625 C -3.023438 -22.351562 -3.179688 -26.109375 -2.484375 -28.890625 C -1.796875 -31.679688 -0.476562 -33.898438 1.46875 -35.546875 C 3.414062 -37.191406 6.488281 -39.207031 10.6875 -41.59375 L 14.359375 -43.75 L 14.328125 -43.921875 L 13.046875 -49.921875 C 12.710938 -51.515625 12.140625 -52.664062 11.328125 -53.375 C 10.515625 -54.09375 9.664062 -54.359375 8.78125 -54.171875 C 8.019531 -54.015625 7.425781 -53.515625 7 -52.671875 C 6.570312 -51.835938 6.488281 -50.820312 6.75 -49.625 L 7.515625 -46 L -6.484375 -43.03125 L -6.90625 -45 C -8.164062 -50.9375 -7.675781 -55.457031 -5.4375 -58.5625 C -3.207031 -61.675781 1.035156 -63.898438 7.296875 -65.234375 C 12.285156 -66.285156 16.625 -65.84375 20.3125 -63.90625 C 24 -61.96875 26.351562 -58.609375 27.375 -53.828125 L 37.140625 -7.890625 L 22.796875 -4.84375 L 21.265625 -12.015625 C 21.085938 -9.390625 20.363281 -7.222656 19.09375 -5.515625 C 17.820312 -3.816406 16.113281 -2.738281 13.96875 -2.28125 Z M 17.28125 -14.703125 C 18.375 -14.929688 19.054688 -15.546875 19.328125 -16.546875 C 19.609375 -17.546875 19.609375 -18.707031 19.328125 -20.03125 L 15.75 -36.828125 C 13.78125 -35.546875 12.425781 -34.164062 11.6875 -32.6875 C 10.945312 -31.207031 10.8125 -29.34375 11.28125 -27.09375 L 12.9375 -19.359375 C 13.695312 -15.796875 15.144531 -14.242188 17.28125 -14.703125 Z M 17.28125 -14.703125 "/></g></g></g><g fill="#351032" fill-opacity="1"><g transform="translate(512.640003, 492.997756)"><g><path d="M 2.890625 -0.609375 L -12.234375 -71.734375 L 2.40625 -74.859375 L 17.53125 -3.734375 Z M 2.890625 -0.609375 "/></g></g></g><g fill="#351032" fill-opacity="1"><g transform="translate(533.056045, 488.656777)"><g><path d="M 19.90625 -3.546875 C 13.695312 -2.222656 8.882812 -2.972656 5.46875 -5.796875 C 2.0625 -8.628906 -0.359375 -13.421875 -1.796875 -20.171875 L -6.9375 -44.375 C -8.113281 -49.914062 -7.421875 -54.476562 -4.859375 -58.0625 C -2.296875 -61.65625 1.835938 -64.0625 7.546875 -65.28125 C 19.128906 -67.738281 26.128906 -63.285156 28.546875 -51.921875 L 29.46875 -47.5625 C 30.40625 -43.175781 31.109375 -39.597656 31.578125 -36.828125 L 10.671875 -32.390625 L 13.15625 -20.6875 C 13.601562 -18.613281 14.171875 -17.03125 14.859375 -15.9375 C 15.546875 -14.84375 16.601562 -14.453125 18.03125 -14.765625 C 19.132812 -14.992188 19.847656 -15.484375 20.171875 -16.234375 C 20.503906 -16.992188 20.617188 -17.804688 20.515625 -18.671875 C 20.410156 -19.546875 20.1875 -20.804688 19.84375 -22.453125 L 18.59375 -28.3125 L 32.921875 -31.359375 L 33.65625 -27.890625 C 35.144531 -20.867188 34.882812 -15.40625 32.875 -11.5 C 30.863281 -7.601562 26.539062 -4.953125 19.90625 -3.546875 Z M 15.890625 -40.96875 L 14.25 -48.703125 C 13.332031 -53.046875 11.804688 -54.992188 9.671875 -54.546875 C 7.253906 -54.035156 6.503906 -51.609375 7.421875 -47.265625 L 9.0625 -39.53125 Z M 15.890625 -40.96875 "/></g></g></g><g fill="#351032" fill-opacity="1"><g transform="translate(573.229548, 480.114851)"><g><path d="M 15.453125 -2.59375 C 11.660156 -1.789062 8.878906 -2.03125 7.109375 -3.3125 C 5.347656 -4.601562 4.09375 -7.007812 3.34375 -10.53125 L -4.65625 -48.15625 L -8.6875 -47.296875 L -11.015625 -58.234375 L -6.984375 -59.09375 L -9.6875 -71.859375 L 4.3125 -74.828125 L 7.015625 -62.0625 L 11.125 -62.9375 L 13.453125 -52 L 9.34375 -51.125 L 16.546875 -17.28125 C 16.765625 -16.238281 17.007812 -15.488281 17.28125 -15.03125 C 17.550781 -14.570312 18.039062 -14.414062 18.75 -14.5625 C 19.300781 -14.6875 19.816406 -14.828125 20.296875 -14.984375 C 20.785156 -15.140625 21.109375 -15.234375 21.265625 -15.265625 L 23.359375 -5.390625 C 22.585938 -4.992188 21.445312 -4.507812 19.9375 -3.9375 C 18.425781 -3.363281 16.929688 -2.914062 15.453125 -2.59375 Z M 15.453125 -2.59375 "/></g></g></g><g fill="#351032" fill-opacity="1"><g transform="translate(404.300512, 636.02955)"><g><path d="M 3.140625 -0.671875 L -11.890625 -71.390625 L 2.078125 -74.359375 L 8.09375 -46.03125 L 8.671875 -75.765625 L 22.921875 -78.78125 L 21.890625 -44.75 L 39.59375 -8.421875 L 24.9375 -5.296875 L 9.921875 -37.90625 L 17.203125 -3.65625 Z M 3.140625 -0.671875 "/></g></g></g><g fill="#351032" fill-opacity="1"><g transform="translate(443.156842, 627.767689)"><g><path d="M 13.96875 -2.28125 C 9.300781 -1.289062 5.773438 -2.160156 3.390625 -4.890625 C 1.003906 -7.628906 -0.796875 -11.875 -2.015625 -17.625 C -3.023438 -22.351562 -3.179688 -26.109375 -2.484375 -28.890625 C -1.796875 -31.679688 -0.476562 -33.898438 1.46875 -35.546875 C 3.414062 -37.191406 6.488281 -39.207031 10.6875 -41.59375 L 14.359375 -43.75 L 14.328125 -43.921875 L 13.046875 -49.921875 C 12.710938 -51.515625 12.140625 -52.664062 11.328125 -53.375 C 10.515625 -54.09375 9.664062 -54.359375 8.78125 -54.171875 C 8.019531 -54.015625 7.425781 -53.515625 7 -52.671875 C 6.570312 -51.835938 6.488281 -50.820312 6.75 -49.625 L 7.515625 -46 L -6.484375 -43.03125 L -6.90625 -45 C -8.164062 -50.9375 -7.675781 -55.457031 -5.4375 -58.5625 C -3.207031 -61.675781 1.035156 -63.898438 7.296875 -65.234375 C 12.285156 -66.285156 16.625 -65.84375 20.3125 -63.90625 C 24 -61.96875 26.351562 -58.609375 27.375 -53.828125 L 37.140625 -7.890625 L 22.796875 -4.84375 L 21.265625 -12.015625 C 21.085938 -9.390625 20.363281 -7.222656 19.09375 -5.515625 C 17.820312 -3.816406 16.113281 -2.738281 13.96875 -2.28125 Z M 17.28125 -14.703125 C 18.375 -14.929688 19.054688 -15.546875 19.328125 -16.546875 C 19.609375 -17.546875 19.609375 -18.707031 19.328125 -20.03125 L 15.75 -36.828125 C 13.78125 -35.546875 12.425781 -34.164062 11.6875 -32.6875 C 10.945312 -31.207031 10.8125 -29.34375 11.28125 -27.09375 L 12.9375 -19.359375 C 13.695312 -15.796875 15.144531 -14.242188 17.28125 -14.703125 Z M 17.28125 -14.703125 "/></g></g></g><g fill="#351032" fill-opacity="1"><g transform="translate(482.918732, 619.313282)"><g><path d="M 20.984375 4.734375 C 16.703125 5.640625 13.265625 6.007812 10.671875 5.84375 C 8.078125 5.6875 5.398438 4.894531 2.640625 3.46875 L 5.796875 -5.890625 C 9.765625 -4.546875 13.472656 -4.238281 16.921875 -4.96875 C 19.179688 -5.445312 20.734375 -6.519531 21.578125 -8.1875 C 22.429688 -9.863281 22.59375 -11.941406 22.0625 -14.421875 L 21.375 -17.703125 C 21.09375 -13.347656 18.484375 -10.644531 13.546875 -9.59375 C 9.429688 -8.71875 6.097656 -9.472656 3.546875 -11.859375 C 1.003906 -14.242188 -0.757812 -17.769531 -1.75 -22.4375 L -6.5625 -45.0625 C -7.695312 -50.394531 -7.671875 -54.660156 -6.484375 -57.859375 C -5.304688 -61.066406 -2.492188 -63.144531 1.953125 -64.09375 C 4.523438 -64.632812 6.707031 -64.421875 8.5 -63.453125 C 10.289062 -62.484375 11.679688 -60.875 12.671875 -58.625 L 11.234375 -65.375 L 25.953125 -68.515625 L 36.59375 -18.453125 C 38.03125 -11.703125 37.5 -6.515625 35 -2.890625 C 32.507812 0.734375 27.835938 3.273438 20.984375 4.734375 Z M 16.984375 -21.671875 C 19.242188 -22.148438 19.941406 -24.425781 19.078125 -28.5 L 14.5 -49.984375 C 14.25 -51.179688 13.675781 -52.257812 12.78125 -53.21875 C 11.882812 -54.175781 10.945312 -54.550781 9.96875 -54.34375 C 8.695312 -54.070312 7.9375 -53.4375 7.6875 -52.4375 C 7.445312 -51.4375 7.492188 -50.144531 7.828125 -48.5625 L 12.40625 -27.078125 C 12.789062 -25.253906 13.320312 -23.828125 14 -22.796875 C 14.675781 -21.765625 15.671875 -21.390625 16.984375 -21.671875 Z M 7.046875 -68.359375 C 2.109375 -67.304688 -1.972656 -67.515625 -5.203125 -68.984375 C -8.441406 -70.453125 -10.507812 -73.296875 -11.40625 -77.515625 C -11.488281 -77.898438 -11.554688 -78.488281 -11.609375 -79.28125 L -1.296875 -81.375 C -0.972656 -79.832031 -0.332031 -78.765625 0.625 -78.171875 C 1.582031 -77.585938 3.070312 -77.507812 5.09375 -77.9375 C 7.070312 -78.363281 8.394531 -79.039062 9.0625 -79.96875 C 9.726562 -80.90625 9.898438 -82.144531 9.578125 -83.6875 L 19.84375 -85.96875 L 20.234375 -84.578125 C 21.148438 -80.234375 20.429688 -76.707031 18.078125 -74 C 15.722656 -71.300781 12.046875 -69.421875 7.046875 -68.359375 Z M 7.046875 -68.359375 "/></g></g></g><g fill="#351032" fill-opacity="1"><g transform="translate(524.409396, 610.491294)"><g><path d="M 2.46875 -0.53125 L -10.34375 -60.796875 L 4.0625 -63.859375 L 16.875 -3.59375 Z M 2.46875 -0.53125 "/></g></g></g><g fill="#351032" fill-opacity="1"><g transform="translate(543.755244, 606.377866)"><g><path d="M 14.875 -2.46875 C 11.363281 -1.726562 8.535156 -2.003906 6.390625 -3.296875 C 4.253906 -4.597656 2.601562 -6.570312 1.4375 -9.21875 C 0.269531 -11.863281 -0.769531 -15.351562 -1.6875 -19.6875 L -7.3125 -46.90625 C -8.21875 -51.175781 -7.875 -54.898438 -6.28125 -58.078125 C -4.6875 -61.253906 -1.914062 -63.265625 2.03125 -64.109375 C 5.925781 -64.929688 9.109375 -64.257812 11.578125 -62.09375 L 8.578125 -76.171875 L 22.984375 -79.234375 L 38.109375 -8.109375 L 23.703125 -5.046875 L 22.34375 -11.46875 C 22.03125 -8.9375 21.296875 -6.929688 20.140625 -5.453125 C 18.992188 -3.972656 17.238281 -2.976562 14.875 -2.46875 Z M 17.984375 -14.9375 C 19.410156 -15.238281 20.191406 -16.132812 20.328125 -17.625 C 20.472656 -19.125 20.296875 -21.050781 19.796875 -23.40625 L 19.265625 -25.953125 L 14.4375 -48.609375 C 14.070312 -50.359375 13.507812 -51.78125 12.75 -52.875 C 12 -53.976562 11 -54.398438 9.75 -54.140625 C 8.320312 -53.835938 7.492188 -53.070312 7.265625 -51.84375 C 7.035156 -50.625 7.125 -49.054688 7.53125 -47.140625 L 12.921875 -21.78125 C 13.992188 -16.726562 15.679688 -14.445312 17.984375 -14.9375 Z M 17.984375 -14.9375 "/></g></g></g><g fill="#351032" fill-opacity="1"><g transform="translate(584.751973, 597.660901)"><g><path d="M 2.46875 -0.53125 L -10.34375 -60.796875 L 4.0625 -63.859375 L 16.875 -3.59375 Z M 2.46875 -0.53125 "/></g></g></g></svg>