<svg xmlns="http://www.w3.org/2000/svg" xmlns:xlink="http://www.w3.org/1999/xlink" width="1080" zoomAndPan="magnify" viewBox="0 0 810 809.999993" height="1080" preserveAspectRatio="xMidYMid meet" version="1.0"><defs><g/><clipPath id="5bad6a44a0"><path d="M 175 122 L 708 122 L 708 688.5 L 175 688.5 Z M 175 122 " clip-rule="nonzero"/></clipPath></defs><rect x="-81" width="972" fill="#ffffff" y="-80.999999" height="971.999992" fill-opacity="1"/><rect x="-81" width="972" fill="#ffffff" y="-80.999999" height="971.999992" fill-opacity="1"/><path fill="#fbc926" d="M 703.578125 477.496094 C 698.273438 462.863281 691.820312 448.761719 684.214844 435.179688 C 681.542969 430.898438 679.390625 426.367188 677.757812 421.589844 C 676.121094 416.8125 675.046875 411.914062 674.53125 406.894531 C 674.089844 401.417969 672.609375 394.644531 665.148438 391.152344 C 658.601562 388.191406 655.019531 382.273438 653.894531 373.015625 C 651.320312 351.621094 642.050781 333.214844 632.132812 313.835938 C 629.40625 308.417969 626.566406 302.855469 623.871094 297.175781 L 622.65625 294.601562 L 621.234375 297.085938 C 620.167969 298.980469 619.164062 300.726562 618.273438 302.382812 C 616.378906 305.757812 614.75 308.65625 613.035156 311.527344 C 611.789062 313.570312 610.605469 315.667969 609.421875 317.800781 C 608.238281 319.929688 607.082031 321.941406 605.867188 323.984375 C 604.164062 326.9375 602.191406 329.699219 599.945312 332.269531 C 586.769531 346.5 572.765625 360.023438 559.589844 372.539062 C 539.453125 391.65625 515.175781 409.558594 483.226562 428.761719 C 458.796875 443.554688 431.824219 453.851562 405.738281 463.824219 C 392.441406 468.914062 378.734375 474.152344 365.4375 479.949219 L 363.335938 480.898438 C 361.210938 481.71875 359.023438 482.269531 356.761719 482.554688 C 355.546875 482.789062 354.335938 482.996094 353.148438 483.265625 L 328.335938 489.183594 L 311.429688 493.175781 L 307.90625 494.035156 C 304.90625 494.871094 301.867188 495.511719 298.785156 495.957031 L 296.714844 496.222656 C 277.496094 498.589844 257.660156 501.019531 238.324219 498.503906 C 231.789062 497.683594 225.394531 496.253906 219.136719 494.210938 C 218.433594 494.039062 217.78125 494.15625 217.183594 494.566406 L 215.730469 495.246094 L 214.28125 495.871094 L 224.320312 515.015625 L 244.007812 552.59375 L 245.902344 556.203125 C 253.039062 569.933594 260.441406 584.105469 267.546875 598.128906 C 277.675781 618.164062 285.3125 633.636719 292.421875 648.433594 C 294.511719 652.664062 297.148438 656.519531 300.328125 660.007812 C 303.507812 663.492188 307.109375 666.46875 311.132812 668.9375 C 313 670.121094 315.011719 671.277344 317.234375 672.488281 L 317.617188 672.695312 L 322.179688 675.121094 L 322.179688 674.886719 C 328.355469 677.777344 334.757812 680.019531 341.386719 681.613281 C 348.019531 683.210938 354.742188 684.121094 361.558594 684.355469 L 363.601562 684.355469 C 370.8125 684.109375 377.9375 683.203125 384.980469 681.632812 C 387.4375 681.128906 389.925781 680.65625 392.414062 680.242188 L 396.527344 679.5625 L 398.097656 679.324219 L 399.164062 679.148438 L 416.101562 676.453125 C 430.402344 674.234375 445.175781 671.925781 459.625 669.085938 L 460.308594 669.085938 L 463.269531 668.464844 C 468.777344 667.339844 473.542969 666.304688 478.074219 665.238281 C 511.53125 657.28125 545.109375 641.566406 580.789062 617.214844 C 585.496094 613.992188 590.234375 610.855469 594.972656 607.6875 C 614.070312 594.933594 633.820312 581.769531 650.84375 565.34375 C 664.644531 551.984375 676.695312 537.199219 687 520.992188 L 688.332031 518.832031 L 688.804688 518.089844 C 693.539062 510.507812 697.84375 502.6875 701.714844 494.625 C 703.054688 491.980469 703.886719 489.179688 704.207031 486.230469 C 704.527344 483.28125 704.320312 480.367188 703.578125 477.496094 Z M 703.578125 477.496094 " fill-opacity="1" fill-rule="nonzero"/><path fill="#e0b116" d="M 702.1875 478.027344 C 696.972656 463.410156 690.589844 449.328125 683.03125 435.773438 C 680.316406 431.390625 678.128906 426.757812 676.464844 421.875 C 674.796875 416.996094 673.703125 411.992188 673.171875 406.863281 C 672.667969 400.503906 670.863281 395.265625 664.644531 392.367188 C 656.472656 388.546875 653.539062 381.179688 652.53125 373.042969 C 649.277344 345.9375 634.765625 323.390625 622.65625 297.558594 C 619.339844 303.476562 616.972656 307.796875 614.394531 312.058594 C 611.820312 316.320312 609.6875 320.433594 607.230469 324.515625 C 618.777344 338.1875 630.296875 352.953125 632.664062 370.617188 C 634.765625 386.242188 629.347656 401.773438 624.019531 416.628906 C 616.941406 436.304688 609.746094 456.191406 598.230469 473.675781 C 589.347656 487.230469 577.710938 499.480469 572.527344 514.894531 C 601.160156 504.65625 619.398438 477.078125 643.976562 459.238281 C 644.90625 458.386719 646.003906 457.910156 647.261719 457.816406 C 649.007812 457.816406 650.222656 459.414062 651.320312 460.777344 C 664.503906 479.089844 676.457031 498.175781 687.175781 518.03125 C 692.035156 510.253906 696.457031 502.234375 700.441406 493.976562 C 701.691406 491.511719 702.464844 488.90625 702.765625 486.160156 C 703.066406 483.414062 702.875 480.703125 702.1875 478.027344 Z M 642.761719 361.207031 C 642.167969 368.820312 641.117188 376.371094 639.609375 383.859375 C 638.101562 391.34375 636.144531 398.714844 633.742188 405.964844 C 631.339844 413.214844 628.507812 420.292969 625.246094 427.199219 C 621.984375 434.105469 618.320312 440.789062 614.246094 447.253906 C 624.671875 418.90625 638.144531 391.449219 642.761719 361.207031 Z M 662.15625 401.714844 C 648.476562 422.191406 634.621094 442.550781 621.117188 463.144531 C 612.234375 476.8125 603.527344 490.632812 590.5 500.929688 C 587.539062 503.265625 584.371094 505.21875 579.722656 508.445312 C 580.90625 505.484375 580.996094 504.6875 581.527344 504.273438 C 599.945312 489.625 612.203125 470.15625 624.375 450.480469 C 633.789062 435.300781 644.035156 420.625 654.132812 405.859375 C 656.9375 402.1875 659.957031 398.707031 663.191406 395.414062 L 665.085938 396.804688 C 664.167969 398.550781 663.28125 400.265625 662.214844 401.832031 Z M 662.15625 401.714844 " fill-opacity="1" fill-rule="nonzero"/><path fill="#e0b116" d="M 448.847656 656.894531 C 437.300781 644.882812 425.664062 632.722656 417.253906 618.429688 C 408.847656 604.136719 403.78125 587.09375 406.625 570.671875 C 398.128906 567.710938 393.359375 558.835938 389.628906 550.582031 C 379.492188 528.316406 371.089844 505.414062 364.429688 481.875 L 363.898438 482.109375 C 360.496094 483.234375 357.023438 484.054688 353.476562 484.566406 L 327.359375 490.722656 L 311.726562 494.359375 C 307.527344 495.578125 303.273438 496.566406 298.964844 497.320312 C 278.652344 499.804688 258.308594 502.496094 238.085938 499.863281 C 243.398438 515.546875 248.6875 531.21875 253.957031 546.882812 C 255.820312 552.796875 258.097656 558.546875 260.796875 564.132812 C 266.511719 575.4375 275.394531 584.84375 282.5625 595.289062 C 292.273438 609.523438 298.757812 625.648438 305.035156 641.6875 C 308.046875 649.902344 311.492188 657.929688 315.367188 665.773438 C 316.316406 667.636719 317.324219 669.441406 318.328125 671.246094 C 324.992188 674.769531 331.964844 677.5 339.246094 679.4375 C 346.53125 681.378906 353.9375 682.472656 361.46875 682.726562 C 371.597656 683.113281 381.871094 680.359375 391.996094 678.671875 L 398.777344 677.578125 C 419.148438 674.265625 439.640625 671.363281 459.863281 667.398438 C 455.96875 664.132812 452.296875 660.632812 448.847656 656.894531 Z M 265.535156 541.050781 L 334.230469 552.59375 C 322.5 553.144531 310.84375 552.445312 299.261719 550.5 C 287.683594 548.554688 276.441406 545.40625 265.535156 541.050781 Z M 265.535156 541.050781 " fill-opacity="1" fill-rule="nonzero"/><path fill="#cbced0" d="M 628.933594 286.226562 L 628.3125 285.960938 C 627.71875 284.332031 627.097656 282.707031 626.476562 281.078125 L 626.476562 280.695312 C 624.984375 277.011719 623.679688 273.265625 622.566406 269.449219 C 617.269531 250.246094 603.46875 239.121094 583.78125 238.175781 C 580.167969 237.96875 576.554688 238.175781 573.03125 238.175781 C 568.714844 238.398438 564.402344 238.335938 560.089844 237.996094 C 527.789062 234.683594 494.417969 239.625 458.085938 253.117188 C 456.074219 253.796875 454.167969 254.703125 452.371094 255.839844 C 454.011719 251.921875 455.089844 247.851562 455.605469 243.636719 C 456.125 239.421875 456.0625 235.210938 455.421875 231.011719 C 454.710938 225.835938 454.03125 220.628906 453.378906 215.421875 C 451.660156 201.925781 449.882812 187.992188 447.160156 174.351562 C 443.667969 157.039062 433.984375 143.429688 420.691406 137.332031 C 398.511719 127.449219 378.792969 123.398438 360.257812 125.378906 C 350.367188 126.445312 349.152344 128.898438 345.984375 138.132812 C 343.835938 145.417969 340.601562 152.183594 336.273438 158.429688 L 335.414062 159.523438 C 330.734375 164.867188 327.132812 170.851562 324.605469 177.484375 C 324.785156 175.03125 324.785156 172.574219 324.605469 170.117188 C 324.164062 163.636719 322.769531 159.96875 319.929688 157.867188 C 317.085938 155.765625 313.382812 155.589844 307.609375 156.949219 C 303.730469 157.898438 299.824219 158.726562 295.765625 159.613281 C 289.84375 160.917969 283.507812 162.246094 277.410156 163.90625 C 270.160156 165.582031 263.25 168.167969 256.683594 171.65625 C 234.296875 184.585938 212.414062 197.992188 191.273438 210.980469 C 181.324219 217.078125 177.03125 224.355469 177.890625 233.972656 L 177.890625 235.125 L 178.71875 235.925781 C 185.382812 242.199219 193.199219 243.203125 202.023438 238.882812 L 204.777344 237.554688 C 208.179688 235.894531 211.585938 234.210938 214.902344 232.433594 L 216.441406 231.636719 C 237.167969 220.628906 258.636719 209.265625 281.878906 203.378906 C 284.65625 202.570312 287.324219 201.484375 289.875 200.121094 C 291.324219 199.410156 292.835938 198.671875 294.257812 198.082031 L 295.46875 197.695312 C 289.546875 207.726562 280.101562 214.5625 270.835938 221.191406 L 269.800781 221.929688 C 251.707031 234.59375 241.996094 253.648438 240.839844 278.355469 C 240.632812 282.972656 240.335938 287.617188 240.042969 292.234375 L 240.042969 292.589844 C 238.53125 316.644531 237.082031 341.53125 244.957031 365.617188 L 244.957031 366.238281 C 244.957031 367.304688 245.164062 368.339844 245.253906 369.375 C 245.015625 368.632812 244.75 367.894531 244.421875 367.125 L 243.03125 363.339844 L 239.894531 365.941406 C 215.140625 386.65625 199.417969 409.734375 191.808594 436.570312 C 188.402344 448.40625 191.332031 463.675781 199.417969 476.042969 C 201.144531 478.859375 203.152344 481.460938 205.4375 483.847656 C 207.726562 486.234375 210.238281 488.347656 212.980469 490.195312 C 215.71875 492.042969 218.625 493.582031 221.695312 494.808594 C 224.761719 496.03125 227.929688 496.917969 231.1875 497.46875 C 239.527344 498.609375 247.90625 499.167969 256.328125 499.152344 C 274.875 498.871094 293.226562 496.800781 311.371094 492.941406 C 323.539062 490.542969 335.679688 487.257812 347.40625 484.0625 L 349.714844 483.414062 C 359.574219 480.75 368.132812 478.027344 375.949219 475.128906 C 379 473.925781 381.960938 472.535156 384.832031 470.953125 C 388.625 468.648438 392.683594 466.984375 397 465.953125 C 409.378906 464.03125 420.335938 459.03125 430.964844 454.117188 L 434.605469 452.433594 C 473.632812 434.679688 504.246094 417.074219 531.042969 396.65625 C 557.28125 376.824219 581.296875 354.589844 603.085938 329.960938 C 605.539062 326.921875 607.679688 323.675781 609.511719 320.226562 L 611.019531 317.535156 C 615.105469 310.578125 619.132812 303.597656 623.160156 296.613281 L 627.570312 288.949219 C 627.945312 288.503906 628.210938 288 628.371094 287.441406 L 628.726562 287.441406 L 628.578125 287.027344 Z M 628.933594 286.226562 " fill-opacity="1" fill-rule="nonzero"/><path fill="#7d8589" d="M 594.527344 282.589844 C 593.863281 282.101562 593.164062 281.679688 592.425781 281.316406 L 601.011719 278.355469 L 595.089844 275.191406 C 593.371094 274.273438 591.863281 273.414062 590.472656 272.617188 C 588.046875 271.175781 585.539062 269.894531 582.949219 268.769531 C 565.570312 261.640625 547.09375 262.46875 531.132812 263.796875 C 523.761719 264.421875 516.328125 265.398438 509.132812 266.375 C 500.871094 267.496094 492.316406 268.652344 483.9375 269.332031 C 450.832031 271.253906 428.773438 284.273438 414.53125 309.929688 L 410.621094 317.03125 C 405.710938 320.117188 401.269531 323.773438 397.296875 328 C 393.324219 332.226562 389.949219 336.882812 387.171875 341.972656 C 381.902344 351.414062 375.773438 360.617188 369.851562 369.550781 L 363.601562 378.960938 C 361.675781 381.921875 359.546875 384.878906 357.089844 388.3125 L 352.824219 394.230469 L 344.296875 406.273438 L 344.890625 405.917969 C 322.652344 424.292969 301.097656 444.382812 285.996094 471.722656 L 283.359375 476.605469 L 288.808594 476.25 C 291.296875 476.074219 293.664062 475.957031 295.972656 475.835938 C 300.859375 475.570312 305.507812 475.335938 310.097656 474.683594 L 310.867188 474.683594 C 318.0625 473.648438 325.910156 472.523438 332.273438 467.878906 L 336.125 467.464844 C 351.5 465.875 366.464844 462.472656 381.011719 457.253906 C 411.035156 446.691406 438.25 431.71875 469.839844 412.515625 C 474.84375 409.558594 480.234375 406.597656 485.417969 403.992188 C 496.636719 398.074219 508.246094 392.15625 517.988281 382.71875 C 523.136719 377.988281 528.683594 373.773438 534.628906 370.085938 L 540.550781 366.148438 C 555.859375 355.644531 567.847656 342.476562 581.085938 325.757812 L 582.949219 323.421875 L 583.277344 323.421875 L 584.402344 322.03125 C 585.824219 320.253906 587.363281 318.511719 588.695312 316.792969 C 591.980469 312.800781 595.089844 309.042969 598.050781 304.957031 C 604.269531 296.4375 603.203125 289.097656 594.527344 282.589844 Z M 594.527344 282.589844 " fill-opacity="1" fill-rule="nonzero"/><g clip-path="url(#5bad6a44a0)"><path fill="#36332c" d="M 705.683594 474.742188 C 700.273438 461.128906 694.152344 447.84375 687.324219 434.886719 C 684.609375 430.257812 682.425781 425.390625 680.777344 420.285156 C 679.128906 415.179688 678.054688 409.957031 677.554688 404.617188 C 677.546875 403.769531 677.484375 402.929688 677.359375 402.09375 C 677.234375 401.257812 677.050781 400.433594 676.8125 399.625 C 676.570312 398.816406 676.277344 398.027344 675.925781 397.257812 C 675.570312 396.488281 675.167969 395.75 674.710938 395.039062 C 674.253906 394.328125 673.75 393.652344 673.199219 393.011719 C 672.648438 392.371094 672.054688 391.773438 671.417969 391.214844 C 670.78125 390.660156 670.109375 390.148438 669.402344 389.6875 C 668.691406 389.226562 667.957031 388.816406 667.191406 388.460938 C 660.320312 385.175781 657.773438 379.582031 656.707031 372.304688 C 655.21875 363.078125 652.929688 354.054688 649.847656 345.234375 C 646.761719 336.414062 642.929688 327.929688 638.351562 319.78125 C 632.605469 309.25 627.335938 298.65625 625.707031 286.640625 L 625.527344 286.9375 C 624.9375 282.382812 624.464844 277.792969 623.691406 273.265625 C 619.695312 249.863281 606.3125 238.203125 582.238281 237.050781 C 571.164062 236.515625 560.03125 235.601562 548.929688 235.867188 C 527.136719 236.429688 505.226562 235.867188 484.203125 243.679688 C 475.496094 246.933594 466.289062 248.828125 458.5 251.015625 C 455.539062 226.488281 453.347656 202.816406 450.03125 179.320312 C 447.070312 159.289062 436.914062 142.421875 418.972656 133.8125 C 414.605469 131.636719 410.105469 129.777344 405.476562 128.234375 C 400.84375 126.695312 396.128906 125.488281 391.328125 124.613281 C 386.523438 123.742188 381.683594 123.210938 376.808594 123.019531 C 371.929688 122.832031 367.066406 122.984375 362.210938 123.484375 C 349.269531 124.964844 347.40625 126.445312 344.238281 139.820312 C 343.742188 142.289062 343 144.679688 342.015625 146.996094 C 341.027344 149.3125 339.816406 151.507812 338.382812 153.574219 C 336.945312 155.644531 335.3125 157.546875 333.488281 159.28125 C 331.660156 161.015625 329.679688 162.546875 327.539062 163.875 C 322.621094 155.945312 316.433594 152.453125 307.253906 155 C 296.980469 157.957031 286.292969 159.4375 276.078125 162.484375 C 268.035156 164.710938 260.355469 167.828125 253.039062 171.835938 C 232.667969 183.671875 212.800781 196.007812 192.695312 207.84375 C 190.933594 208.78125 189.261719 209.859375 187.683594 211.078125 C 186.105469 212.296875 184.640625 213.640625 183.292969 215.109375 C 181.945312 216.582031 180.730469 218.152344 179.648438 219.828125 C 178.566406 221.503906 177.636719 223.261719 176.855469 225.097656 C 173.480469 233.46875 175.996094 239.890625 184.613281 241.726562 C 187.472656 242.296875 190.363281 242.5 193.277344 242.332031 C 196.191406 242.167969 199.035156 241.640625 201.816406 240.75 C 208.535156 238.589844 214.605469 234.386719 220.972656 231.132812 C 242.351562 220.214844 263.402344 208.585938 287.773438 204.5 C 282.648438 210.359375 276.886719 215.5 270.480469 219.917969 C 248.628906 233.617188 240.871094 255.1875 239.480469 278.710938 C 237.671875 306.289062 233.261719 334.164062 241.730469 361.5625 C 239.210938 363.8125 237.226562 365.765625 235.097656 367.480469 C 230.128906 371.46875 225.464844 375.78125 221.097656 380.414062 C 216.730469 385.050781 212.703125 389.964844 209.019531 395.15625 C 205.332031 400.351562 202.023438 405.773438 199.09375 411.425781 C 196.160156 417.078125 193.632812 422.90625 191.511719 428.910156 C 185.589844 445.417969 185.914062 461.78125 197.667969 476.25 C 207.707031 489.089844 216.15625 502.898438 223.015625 517.675781 C 227.488281 526.96875 231.898438 536.230469 236.664062 545.371094 C 246.109375 563.746094 255.824219 581.945312 265.179688 600.351562 C 273.796875 617.394531 282.117188 634.585938 290.527344 651.71875 C 291.5625 653.984375 292.796875 656.140625 294.222656 658.183594 C 295.648438 660.226562 297.246094 662.128906 299.015625 663.882812 C 300.785156 665.640625 302.699219 667.222656 304.753906 668.636719 C 306.8125 670.046875 308.976562 671.261719 311.253906 672.28125 C 324.726562 678.199219 338.699219 682.726562 352.707031 687.253906 C 356.980469 688.398438 361.292969 688.566406 365.644531 687.757812 C 391.167969 683.882812 416.605469 679.414062 442.15625 675.597656 C 452.488281 674.078125 462.722656 672.050781 472.851562 669.507812 C 482.980469 666.96875 492.960938 663.925781 502.785156 660.386719 C 512.609375 656.847656 522.234375 652.824219 531.65625 648.320312 C 541.078125 643.816406 550.25 638.851562 559.175781 633.429688 C 581.589844 619.847656 603.589844 605.617188 624.996094 590.347656 C 633.535156 584.324219 641.644531 577.769531 649.332031 570.691406 C 657.015625 563.613281 664.210938 556.066406 670.917969 548.050781 C 677.621094 540.039062 683.777344 531.625 689.390625 522.8125 C 695 514 700.015625 504.859375 704.4375 495.394531 C 705.28125 493.820312 705.945312 492.175781 706.433594 490.457031 C 706.917969 488.738281 707.214844 486.988281 707.324219 485.207031 C 707.429688 483.421875 707.34375 481.648438 707.070312 479.886719 C 706.792969 478.121094 706.328125 476.40625 705.683594 474.742188 Z M 243.800781 278.355469 C 244.808594 256.933594 252.417969 237.640625 271.425781 224.03125 C 281.554688 216.8125 292.152344 209.234375 298.550781 197.8125 C 299.113281 196.777344 299.792969 195.832031 301.511719 193.019531 C 298.625 193.511719 295.78125 194.191406 292.984375 195.0625 C 289.136719 197.015625 285.191406 198.730469 281.140625 200.210938 C 256.976562 206.335938 235.273438 217.964844 213.511719 229.535156 C 209.277344 231.78125 204.984375 233.824219 200.691406 235.953125 C 193.613281 239.417969 186.949219 239.386719 180.734375 233.5 C 180.023438 223.941406 185.53125 217.90625 192.902344 213.378906 C 214.578125 200.09375 236.25 186.746094 258.25 174.082031 C 264.570312 170.765625 271.199219 168.289062 278.148438 166.65625 C 288.039062 164.050781 298.222656 162.246094 308.171875 160 C 318.121094 157.75 320.847656 160.292969 321.527344 170.472656 C 322.058594 178.109375 321.378906 185.269531 316.40625 191.71875 C 324.164062 191.097656 325.554688 185.03125 326.828125 180.296875 C 328.988281 172.367188 333.695312 166.65625 338.671875 160.382812 C 343.210938 153.882812 346.605469 146.828125 348.855469 139.226562 C 351.816406 130.707031 352.230469 129.375 360.699219 128.484375 C 381.425781 126.238281 401.265625 131.890625 419.476562 140.320312 C 432.917969 146.210938 441.417969 160 444.378906 174.792969 C 448.109375 193.433594 450.003906 212.429688 452.609375 231.28125 C 454.621094 246.074219 449.972656 258.414062 439.964844 269.449219 C 434.992188 274.925781 431.644531 281.878906 427.441406 288.0625 C 424.878906 292.53125 421.859375 296.664062 418.378906 300.460938 C 402.804688 315.019531 391.496094 332.683594 380.152344 350.496094 C 370.390625 366.003906 359.847656 380.96875 348.53125 395.382812 C 339.914062 406.183594 329.019531 415.148438 319.78125 425.503906 C 310.542969 435.863281 302.25 447.015625 293.367188 457.667969 L 279.925781 474.121094 C 278.800781 468.203125 278.328125 464.5625 277.289062 460.925781 C 274.714844 451.839844 272.996094 442.253906 268.941406 433.851562 C 258.546875 412.191406 249.722656 390.234375 247.945312 366 C 247.996094 365.605469 247.996094 365.210938 247.945312 364.816406 C 238.414062 336.410156 242.441406 307.234375 243.800781 278.355469 Z M 587.570312 281.9375 C 589.226562 283.003906 591.183594 283.652344 592.722656 284.894531 C 600.035156 290.371094 601.042969 295.933594 595.683594 303.210938 C 591.476562 309.128906 586.800781 314.367188 582.121094 320.136719 C 572.941406 318.363281 564.355469 313.09375 552.273438 316.734375 L 578.921875 323.804688 C 566.308594 339.667969 554.257812 353.1875 539.007812 363.605469 C 531.164062 368.988281 522.664062 373.8125 515.945312 380.410156 C 502.203125 393.816406 484.292969 400.117188 468.570312 409.792969 C 440.351562 426.925781 411.597656 443.230469 380.242188 454.179688 C 365.921875 459.308594 351.195312 462.664062 336.066406 464.238281 C 343.253906 457.269531 350.964844 450.9375 359.203125 445.25 C 367.441406 439.558594 376.09375 434.585938 385.15625 430.328125 C 402.242188 421.925781 419.386719 413.640625 436.085938 403.964844 C 434.703125 403.964844 433.34375 404.132812 432 404.46875 C 401.769531 415.917969 372.78125 429.707031 346.726562 449.207031 C 343.230469 451.839844 338.996094 454.296875 336.984375 457.875 C 330.824219 468.914062 320.164062 470.1875 309.59375 471.722656 C 303.050781 472.671875 296.386719 472.730469 288.542969 473.261719 C 311.578125 431.601562 349.507812 407.191406 383.292969 378.371094 L 355.132812 396.125 C 359.695312 389.703125 363.011719 385.324219 365.972656 380.765625 C 373.996094 368.425781 382.464844 356.355469 389.660156 343.542969 C 391.230469 340.675781 393.007812 337.945312 394.984375 335.34375 C 396.964844 332.742188 399.125 330.300781 401.46875 328.023438 C 403.8125 325.746094 406.3125 323.652344 408.96875 321.746094 C 411.625 319.835938 414.40625 318.136719 417.3125 316.644531 C 429.15625 310.433594 441.652344 304.808594 453.851562 299.097656 C 456.8125 297.648438 459.953125 296.140625 462.972656 294.660156 C 446.597656 296.109375 432.535156 303.832031 417.136719 311.378906 C 432.238281 284.066406 455.628906 273.917969 484.144531 272.082031 C 499.953125 271.046875 515.617188 268 531.519531 266.699219 C 548.542969 265.277344 565.660156 264.773438 581.855469 271.433594 C 585.378906 272.882812 588.636719 275.011719 593.699219 277.734375 L 586.949219 280.101562 C 587.15625 280.78125 587.125 281.757812 587.570312 282.054688 Z M 194.5625 437.371094 C 202.464844 409.46875 218.988281 387.214844 241.730469 368.21875 C 246.320312 379.582031 244.304688 387.363281 235.808594 395.265625 C 221.59375 408.375 212.742188 425.503906 205.457031 443.257812 C 204.664062 444.855469 204.035156 446.507812 203.5625 448.226562 C 203.09375 449.945312 202.792969 451.691406 202.660156 453.464844 C 202.527344 455.242188 202.566406 457.011719 202.777344 458.78125 C 202.992188 460.546875 203.371094 462.277344 203.917969 463.972656 C 208.476562 434.945312 224.644531 412.898438 245.074219 391.597656 C 246.503906 393.664062 247.796875 395.816406 248.953125 398.046875 C 254.609375 411.597656 259.671875 425.445312 265.949219 438.671875 C 271.398438 450.152344 272.523438 462.046875 273.441406 475.246094 C 254.609375 477.140625 236.578125 477.433594 217.746094 472.789062 C 218.167969 473.808594 218.738281 474.734375 219.457031 475.574219 C 220.171875 476.410156 221.003906 477.117188 221.945312 477.691406 C 222.886719 478.265625 223.894531 478.679688 224.96875 478.933594 C 226.039062 479.1875 227.128906 479.269531 228.226562 479.179688 C 242.882812 479.714844 257.601562 480.628906 272.226562 479.890625 C 304.558594 478.128906 336.140625 472.308594 366.976562 462.433594 C 389.605469 454.847656 411.527344 445.585938 432.742188 434.648438 C 455.378906 423.859375 477.242188 411.675781 498.324219 398.105469 C 520.292969 383.765625 541.019531 367.816406 560.507812 350.257812 C 576.230469 335.9375 588.871094 318.214844 602.847656 301.941406 C 604.472656 299.921875 605.917969 297.785156 607.1875 295.523438 C 608.453125 293.265625 609.527344 290.917969 610.402344 288.480469 C 611.28125 286.042969 611.949219 283.550781 612.410156 281.003906 C 612.871094 278.457031 613.117188 275.886719 613.152344 273.296875 C 613.832031 262.941406 605.039062 258 600.777344 250.453125 L 597.816406 252.199219 L 607.554688 266.34375 C 588.101562 256.875 588.101562 256.875 579.425781 257.464844 C 586.367188 260.386719 593.070312 263.78125 599.53125 267.644531 C 608.414062 273.5625 608.949219 277.234375 605.070312 290.015625 C 599.414062 271.253906 584.875 265.78125 569.683594 263.207031 C 557.867188 261.632812 546.023438 261.414062 534.152344 262.554688 C 518.34375 263.589844 502.648438 266.667969 486.777344 267.496094 C 479.613281 267.753906 472.554688 268.753906 465.597656 270.492188 C 458.640625 272.234375 451.945312 274.675781 445.503906 277.824219 C 443.546875 278.769531 441.386719 279.273438 437.332031 280.78125 C 443.253906 272.558594 447.484375 265.988281 452.34375 259.894531 C 454.28125 257.964844 456.558594 256.613281 459.183594 255.839844 C 491.605469 243.796875 524.855469 237.40625 559.648438 241.042969 C 567.496094 241.84375 575.546875 240.777344 583.484375 241.042969 C 602.167969 241.992188 614.632812 252.378906 619.578125 270.191406 C 621.117188 275.839844 623.484375 281.285156 625.5 286.820312 C 619.875 296.585938 614.277344 306.347656 608.59375 316.054688 C 606.410156 320.234375 603.863281 324.179688 600.953125 327.890625 C 579.316406 352.449219 555.453125 374.613281 529.355469 394.378906 C 499.515625 416.492188 467.566406 434.964844 433.511719 449.796875 C 421.667969 455.183594 410 460.953125 396.675781 463.023438 C 389.097656 464.207031 382.257812 469.5625 374.824219 472.347656 C 366.328125 475.511719 357.621094 478.261719 348.855469 480.570312 C 336.214844 484.003906 323.539062 487.496094 310.71875 490.039062 C 284.574219 495.1875 258.488281 498.265625 231.515625 494.539062 C 205.074219 490.929688 188.34375 459.238281 194.5625 437.371094 Z M 700.382812 493.917969 C 694.128906 507.03125 686.75 519.480469 678.246094 531.261719 C 669.746094 543.046875 660.253906 553.972656 649.78125 564.042969 C 628.699219 584.402344 603.796875 599.550781 579.929688 615.765625 C 548.601562 637.128906 514.789062 654.707031 477.71875 663.582031 C 449.558594 670.269531 420.628906 673.851562 392.027344 678.671875 C 381.902344 680.359375 371.625 683.113281 361.5 682.726562 C 357.125 682.585938 352.777344 682.15625 348.460938 681.441406 C 344.140625 680.722656 339.890625 679.722656 335.703125 678.441406 C 331.519531 677.160156 327.433594 675.605469 323.457031 673.785156 C 319.476562 671.960938 315.636719 669.882812 311.933594 667.546875 C 308.007812 665.144531 304.5 662.238281 301.40625 658.832031 C 298.316406 655.425781 295.765625 651.652344 293.753906 647.515625 C 285.621094 630.6875 277.308594 613.921875 268.820312 597.214844 C 261.125 581.945312 253.1875 566.796875 245.3125 551.644531 C 235.777344 533.390625 226.15625 515.132812 216.292969 496.34375 C 217.980469 495.601562 218.398438 495.277344 218.664062 495.367188 C 245.3125 504.09375 272.109375 500.457031 298.964844 497.171875 C 303.273438 496.417969 307.527344 495.429688 311.726562 494.210938 L 353.476562 484.359375 C 357.023438 483.847656 360.496094 483.027344 363.898438 481.902344 C 403.8125 464.148438 446.273438 452.3125 483.964844 429.707031 C 511.234375 413.226562 537.261719 395.175781 560.566406 373.160156 C 574.394531 360.054688 588.074219 346.769531 601.011719 332.832031 C 606.550781 326.914062 610.074219 318.953125 614.394531 311.851562 C 616.972656 307.589844 619.339844 303.210938 622.65625 297.351562 C 634.886719 323.183594 649.304688 345.730469 652.53125 372.835938 C 653.511719 380.972656 656.472656 388.339844 664.644531 392.15625 C 670.863281 395.117188 672.667969 400.296875 673.171875 406.65625 C 673.703125 411.785156 674.796875 416.789062 676.464844 421.667969 C 678.128906 426.550781 680.316406 431.179688 683.03125 435.566406 C 690.589844 449.121094 696.972656 463.203125 702.1875 477.820312 C 702.882812 480.523438 703.078125 483.261719 702.765625 486.035156 C 702.453125 488.808594 701.660156 491.433594 700.382812 493.917969 Z M 700.382812 493.917969 " fill-opacity="1" fill-rule="nonzero"/></g><path fill="#36332c" d="M 654.191406 405.976562 C 644.09375 420.769531 633.847656 435.566406 624.433594 450.597656 C 612.265625 470.273438 600.003906 489.746094 581.589844 504.390625 C 581.054688 504.804688 580.964844 505.753906 579.78125 508.5625 C 584.429688 505.339844 587.628906 503.386719 590.558594 501.046875 C 603.589844 490.75 612.234375 476.933594 621.175781 463.261719 C 634.679688 442.550781 648.535156 422.308594 662.214844 401.832031 C 663.28125 400.265625 664.167969 398.550781 665.175781 396.921875 L 663.28125 395.53125 C 660.035156 398.824219 657.003906 402.308594 654.191406 405.976562 Z M 654.191406 405.976562 " fill-opacity="1" fill-rule="nonzero"/><path fill="#36332c" d="M 614.308594 447.371094 C 618.378906 440.898438 622.042969 434.203125 625.300781 427.285156 C 628.558594 420.371094 631.386719 413.28125 633.785156 406.019531 C 636.183594 398.761719 638.132812 391.382812 639.632812 383.886719 C 641.136719 376.390625 642.179688 368.832031 642.761719 361.207031 C 638.144531 391.449219 624.671875 418.90625 614.308594 447.371094 Z M 614.308594 447.371094 " fill-opacity="1" fill-rule="nonzero"/><path fill="#36332c" d="M 334.230469 552.59375 L 265.535156 541.050781 C 276.441406 545.40625 287.683594 548.554688 299.261719 550.5 C 310.84375 552.445312 322.5 553.144531 334.230469 552.59375 Z M 334.230469 552.59375 " fill-opacity="1" fill-rule="nonzero"/><path fill="#36332c" d="M 417.019531 573.070312 L 445 573.835938 C 445 572.949219 445 572.0625 445 571.144531 C 435.496094 570.285156 426.050781 566.855469 417.019531 573.070312 Z M 417.019531 573.070312 " fill-opacity="1" fill-rule="nonzero"/><path fill="#36332c" d="M 285.582031 334.726562 C 285.9375 340.257812 286.085938 345.820312 286.675781 351.355469 C 287.832031 362.332031 292.804688 378.84375 297.808594 386.507812 C 296.359375 378.933594 295.144531 373.664062 294.34375 368.367188 C 292.835938 358.21875 291.382812 348.011719 290.171875 337.800781 C 288.808594 326.792969 292.984375 317.976562 300.03125 309.542969 C 312.734375 294.304688 324.339844 278.148438 336.925781 262.824219 C 347.996094 249.328125 359.160156 235.867188 371.390625 223.46875 C 380.273438 214.589844 390.25 206.277344 404.492188 205.714844 C 395.609375 201.394531 388 204.828125 380.804688 209.917969 C 366.566406 220.328125 354.128906 232.566406 343.496094 246.636719 C 327.09375 267.585938 310.777344 288.625 294.226562 309.457031 C 292.730469 311.1875 291.410156 313.042969 290.269531 315.027344 C 289.128906 317.011719 288.191406 319.085938 287.449219 321.25 C 286.707031 323.417969 286.179688 325.632812 285.867188 327.898438 C 285.550781 330.164062 285.457031 332.441406 285.582031 334.726562 Z M 285.582031 334.726562 " fill-opacity="1" fill-rule="nonzero"/><path fill="#36332c" d="M 381.277344 248.382812 C 363.128906 266.136719 345.390625 284.304688 328.722656 303.417969 C 318.804688 314.8125 319.839844 330.050781 320.492188 344.3125 C 320.492188 344.753906 321.644531 345.140625 323.453125 346.265625 C 323.339844 344.292969 323.339844 342.320312 323.453125 340.347656 C 324.8125 325.789062 324.726562 310.757812 336.390625 299.425781 C 351.699219 284.066406 366.976562 268.472656 382.195312 252.878906 C 387.140625 247.820312 392.621094 247.730469 398.601562 250.128906 C 402.421875 251.636719 406.179688 253.292969 411.421875 255.542969 C 402.746094 243.441406 389.71875 240.097656 381.277344 248.382812 Z M 381.277344 248.382812 " fill-opacity="1" fill-rule="nonzero"/><path fill="#36332c" d="M 334.082031 203.082031 C 318.121094 222.667969 296.328125 236.488281 281.96875 257.644531 C 299.289062 239.535156 320.015625 224.355469 334.082031 203.082031 Z M 334.082031 203.082031 " fill-opacity="1" fill-rule="nonzero"/><path fill="#36332c" d="M 310.660156 173.375 C 311.296875 171.59375 311.585938 169.757812 311.519531 167.871094 C 310.652344 169.464844 309.675781 170.992188 308.589844 172.445312 C 307.503906 173.898438 306.316406 175.269531 305.03125 176.550781 C 303.746094 177.835938 302.375 179.019531 300.921875 180.105469 C 299.464844 181.1875 297.9375 182.164062 296.339844 183.027344 C 294.742188 183.890625 293.089844 184.632812 291.382812 185.257812 C 289.675781 185.882812 287.9375 186.382812 286.15625 186.753906 C 284.378906 187.128906 282.585938 187.371094 280.769531 187.484375 C 278.957031 187.597656 277.144531 187.578125 275.335938 187.429688 C 270.75 187.777344 266.269531 188.65625 261.894531 190.0625 C 261.894531 190.773438 262.101562 191.511719 262.1875 192.222656 C 269.058594 191.71875 275.898438 191.007812 282.914062 190.710938 C 295.410156 190.210938 304.292969 183.671875 310.660156 173.375 Z M 310.660156 173.375 " fill-opacity="1" fill-rule="nonzero"/><path fill="#36332c" d="M 266.71875 323.984375 C 265.980469 315.875 265.625 307.710938 265.121094 299.574219 C 260.414062 322.742188 262.871094 342.773438 269.679688 348.867188 C 268.671875 340.496094 267.519531 332.210938 266.71875 323.984375 Z M 266.71875 323.984375 " fill-opacity="1" fill-rule="nonzero"/><path fill="#36332c" d="M 445.828125 219.179688 C 441.238281 206.128906 436.085938 194.46875 426.195312 185.386719 C 431.554688 201.21875 440.585938 216.394531 445.828125 219.179688 Z M 445.828125 219.179688 " fill-opacity="1" fill-rule="nonzero"/><path fill="#36332c" d="M 426.757812 242.375 L 428.949219 241.25 C 428.71875 238.703125 428.207031 236.207031 427.417969 233.773438 C 426.628906 231.335938 425.578125 229.015625 424.269531 226.816406 C 422.960938 224.613281 421.421875 222.585938 419.660156 220.726562 C 417.898438 218.867188 415.949219 217.226562 413.820312 215.804688 C 418.105469 224.660156 422.417969 233.519531 426.757812 242.375 Z M 426.757812 242.375 " fill-opacity="1" fill-rule="nonzero"/><path fill="#36332c" d="M 408.609375 169.230469 C 411.570312 171.007812 412.960938 175.148438 418.292969 175.148438 C 407.453125 162.574219 399.3125 157.394531 388.148438 157.394531 C 391.703125 159.109375 395.375 160.589844 398.777344 162.574219 C 402.183594 164.554688 405.261719 167.101562 408.609375 169.230469 Z M 408.609375 169.230469 " fill-opacity="1" fill-rule="nonzero"/><path fill="#36332c" d="M 381.695312 154.613281 C 368.074219 151.863281 365.054688 153.785156 362.625 167.308594 C 365.054688 157.039062 373.3125 155.828125 381.695312 154.613281 Z M 381.695312 154.613281 " fill-opacity="1" fill-rule="nonzero"/><path fill="#36332c" d="M 306.8125 427.398438 C 311.875 421.039062 311.460938 414.617188 307.402344 408.105469 C 307.195312 414.46875 307.019531 420.976562 306.8125 427.398438 Z M 306.8125 427.398438 " fill-opacity="1" fill-rule="nonzero"/><path fill="#36332c" d="M 327.035156 401.152344 C 325.347656 395.648438 323.746094 390.5 322.179688 385.351562 C 319.78125 395.976562 320.285156 397.367188 327.035156 401.152344 Z M 327.035156 401.152344 " fill-opacity="1" fill-rule="nonzero"/><path fill="#36332c" d="M 405.886719 357.332031 C 428.65625 349.460938 449.738281 341.234375 471.382812 334.992188 C 493.027344 328.746094 514.730469 324.636719 536.523438 319.574219 C 508.15625 318.777344 429.574219 340.789062 405.886719 357.332031 Z M 405.886719 357.332031 " fill-opacity="1" fill-rule="nonzero"/><path fill="#36332c" d="M 520 293.625 L 565.035156 293.625 C 549.90625 288.09375 532.023438 288.507812 520 293.625 Z M 520 293.625 " fill-opacity="1" fill-rule="nonzero"/><path fill="#36332c" d="M 491.753906 380.648438 C 478.753906 381.59375 477.539062 382.007812 471.027344 387.71875 C 482.871094 386.242188 485.59375 385.292969 491.753906 380.648438 Z M 491.753906 380.648438 " fill-opacity="1" fill-rule="nonzero"/><path fill="#36332c" d="M 235.984375 441.839844 L 236.191406 442.253906 C 236.191406 442.253906 236.191406 442.046875 236.191406 441.925781 Z M 235.984375 441.839844 " fill-opacity="1" fill-rule="nonzero"/><path fill="#36332c" d="M 246.613281 463.144531 L 246.199219 462.847656 L 246.496094 463.4375 Z M 246.613281 463.144531 " fill-opacity="1" fill-rule="nonzero"/><path fill="#36332c" d="M 246.199219 462.847656 L 236.191406 442.136719 C 232.222656 452.667969 239.09375 457.816406 246.199219 462.847656 Z M 246.199219 462.847656 " fill-opacity="1" fill-rule="nonzero"/><path fill="#36332c" d="M 235.984375 441.839844 L 236.308594 441.839844 L 236.308594 441.21875 Z M 235.984375 441.839844 " fill-opacity="1" fill-rule="nonzero"/><path fill="#36332c" d="M 236.28125 441.304688 C 238.707031 436.484375 241.195312 431.601562 244.777344 424.46875 C 236.074219 432.519531 235.867188 432.726562 236.28125 441.304688 Z M 236.28125 441.304688 " fill-opacity="1" fill-rule="nonzero"/><path fill="#36332c" d="M 262.160156 467.730469 L 247.355469 463.734375 C 253.808594 468.707031 254.078125 468.675781 262.160156 467.730469 Z M 262.160156 467.730469 " fill-opacity="1" fill-rule="nonzero"/><path fill="#36332c" d="M 246.613281 463.144531 L 246.613281 463.4375 L 247.382812 463.644531 Z M 246.613281 463.144531 " fill-opacity="1" fill-rule="nonzero"/><g fill="#545454" fill-opacity="1"><g transform="translate(135.838765, 606.640069)"><g><path d="M 3.453125 0 L 3.453125 -78.078125 L 18.90625 -78.078125 L 18.90625 -46.8125 L 26.171875 -78.078125 L 41.90625 -78.078125 L 33.171875 -42.359375 L 43.71875 0 L 27.546875 0 L 19 -37.8125 L 19 0 Z M 3.453125 0 "/></g></g></g><g fill="#545454" fill-opacity="1"><g transform="translate(178.739115, 606.640069)"><g><path d="M 22.546875 0.734375 C 9.273438 0.734375 2.640625 -6.144531 2.640625 -19.90625 L 2.640625 -46.625 C 2.640625 -52.925781 4.410156 -57.941406 7.953125 -61.671875 C 11.492188 -65.398438 16.359375 -67.265625 22.546875 -67.265625 C 28.722656 -67.265625 33.582031 -65.398438 37.125 -61.671875 C 40.675781 -57.941406 42.453125 -52.925781 42.453125 -46.625 L 42.453125 -19.90625 C 42.453125 -6.144531 35.816406 0.734375 22.546875 0.734375 Z M 22.546875 -11.546875 C 23.816406 -11.546875 24.753906 -12 25.359375 -12.90625 C 25.960938 -13.8125 26.265625 -15.054688 26.265625 -16.640625 L 26.265625 -49.171875 C 26.265625 -53.046875 25.023438 -54.984375 22.546875 -54.984375 C 20.054688 -54.984375 18.8125 -53.046875 18.8125 -49.171875 L 18.8125 -16.640625 C 18.8125 -15.054688 19.113281 -13.8125 19.71875 -12.90625 C 20.320312 -12 21.265625 -11.546875 22.546875 -11.546875 Z M 22.546875 -11.546875 "/></g></g></g><g fill="#545454" fill-opacity="1"><g transform="translate(223.911736, 606.640069)"><g><path d="M 3.1875 -66.53125 L 19.09375 -66.53125 L 19.09375 -58.078125 C 19.757812 -60.804688 20.910156 -63.019531 22.546875 -64.71875 C 24.179688 -66.414062 26.359375 -67.265625 29.078125 -67.265625 C 33.566406 -67.265625 36.882812 -65.882812 39.03125 -63.125 C 41.1875 -60.363281 42.265625 -56.441406 42.265625 -51.359375 L 42.265625 0 L 26.625 0 L 26.625 -49.71875 C 26.625 -51.175781 26.335938 -52.414062 25.765625 -53.4375 C 25.191406 -54.46875 24.300781 -54.984375 23.09375 -54.984375 C 21.445312 -54.984375 20.367188 -54.238281 19.859375 -52.75 C 19.347656 -51.269531 19.09375 -49.289062 19.09375 -46.8125 L 19.09375 0 L 3.1875 0 Z M 3.1875 -66.53125 "/></g></g></g><g fill="#545454" fill-opacity="1"><g transform="translate(269.266134, 606.640069)"><g><path d="M 21.453125 0.734375 C 8.304688 0.734375 1.734375 -5.929688 1.734375 -19.265625 L 1.8125 -24.546875 L 17.71875 -24.546875 L 17.8125 -16.71875 C 17.8125 -15.144531 18.113281 -13.945312 18.71875 -13.125 C 19.320312 -12.3125 20.320312 -11.90625 21.71875 -11.90625 C 23.84375 -11.90625 24.90625 -13.632812 24.90625 -17.09375 C 24.90625 -19.632812 24.40625 -21.628906 23.40625 -23.078125 C 22.40625 -24.535156 20.8125 -26.082031 18.625 -27.71875 L 10.1875 -34.265625 C 7.269531 -36.503906 5.175781 -38.820312 3.90625 -41.21875 C 2.632812 -43.613281 2 -46.992188 2 -51.359375 C 2 -54.742188 2.890625 -57.632812 4.671875 -60.03125 C 6.460938 -62.425781 8.84375 -64.226562 11.8125 -65.4375 C 14.78125 -66.65625 18.082031 -67.265625 21.71875 -67.265625 C 34.625 -67.265625 41.078125 -60.835938 41.078125 -47.984375 L 41.078125 -46.71875 L 24.625 -46.71875 L 24.625 -49.265625 C 24.625 -50.835938 24.367188 -52.179688 23.859375 -53.296875 C 23.347656 -54.421875 22.484375 -54.984375 21.265625 -54.984375 C 20.171875 -54.984375 19.335938 -54.664062 18.765625 -54.03125 C 18.191406 -53.394531 17.90625 -52.53125 17.90625 -51.4375 C 17.90625 -49.019531 18.84375 -47.144531 20.71875 -45.8125 L 30.546875 -38.625 C 34.054688 -36.019531 36.75 -33.1875 38.625 -30.125 C 40.507812 -27.070312 41.453125 -23.210938 41.453125 -18.546875 C 41.453125 -12.359375 39.691406 -7.597656 36.171875 -4.265625 C 32.660156 -0.929688 27.753906 0.734375 21.453125 0.734375 Z M 21.453125 0.734375 "/></g></g></g><g fill="#545454" fill-opacity="1"><g transform="translate(312.439163, 606.640069)"><g><path d="M 21.8125 0.734375 C 14.96875 0.734375 10.0625 -1.144531 7.09375 -4.90625 C 4.125 -8.664062 2.640625 -14.269531 2.640625 -21.71875 L 2.640625 -48.4375 C 2.640625 -54.5625 4.394531 -59.226562 7.90625 -62.4375 C 11.414062 -65.65625 16.320312 -67.265625 22.625 -67.265625 C 35.414062 -67.265625 41.8125 -60.988281 41.8125 -48.4375 L 41.8125 -43.625 C 41.8125 -38.78125 41.75 -34.84375 41.625 -31.8125 L 18.546875 -31.8125 L 18.546875 -18.90625 C 18.546875 -16.601562 18.785156 -14.800781 19.265625 -13.5 C 19.753906 -12.195312 20.785156 -11.546875 22.359375 -11.546875 C 23.566406 -11.546875 24.425781 -11.90625 24.9375 -12.625 C 25.457031 -13.351562 25.765625 -14.1875 25.859375 -15.125 C 25.953125 -16.070312 26 -17.453125 26 -19.265625 L 26 -25.71875 L 41.8125 -25.71875 L 41.8125 -21.90625 C 41.8125 -14.144531 40.3125 -8.429688 37.3125 -4.765625 C 34.3125 -1.097656 29.144531 0.734375 21.8125 0.734375 Z M 26 -39.71875 L 26 -48.265625 C 26 -53.046875 24.816406 -55.4375 22.453125 -55.4375 C 19.785156 -55.4375 18.453125 -53.046875 18.453125 -48.265625 L 18.453125 -39.71875 Z M 26 -39.71875 "/></g></g></g><g fill="#545454" fill-opacity="1"><g transform="translate(356.793771, 606.640069)"><g><path d="M 3.1875 -66.53125 L 19.09375 -66.53125 L 19.09375 -59.171875 C 19.875 -61.773438 21.25 -63.785156 23.21875 -65.203125 C 25.1875 -66.628906 27.628906 -67.34375 30.546875 -67.34375 L 30.546875 -54.078125 C 28.296875 -54.078125 25.820312 -53.757812 23.125 -53.125 C 20.4375 -52.488281 19.09375 -51.75 19.09375 -50.90625 L 19.09375 0 L 3.1875 0 Z M 3.1875 -66.53125 "/></g></g></g><g fill="#545454" fill-opacity="1"><g transform="translate(388.060128, 606.640069)"><g><path d="M 11.640625 0 L 1 -66.53125 L 16.90625 -66.53125 L 20.171875 -32.90625 L 20.71875 -22.09375 L 21.359375 -33 L 25 -66.53125 L 40.90625 -66.53125 L 30.078125 0 Z M 11.640625 0 "/></g></g></g><g fill="#545454" fill-opacity="1"><g transform="translate(429.960699, 606.640069)"><g><path d="M 21.8125 0.734375 C 14.96875 0.734375 10.0625 -1.144531 7.09375 -4.90625 C 4.125 -8.664062 2.640625 -14.269531 2.640625 -21.71875 L 2.640625 -48.4375 C 2.640625 -54.5625 4.394531 -59.226562 7.90625 -62.4375 C 11.414062 -65.65625 16.320312 -67.265625 22.625 -67.265625 C 35.414062 -67.265625 41.8125 -60.988281 41.8125 -48.4375 L 41.8125 -43.625 C 41.8125 -38.78125 41.75 -34.84375 41.625 -31.8125 L 18.546875 -31.8125 L 18.546875 -18.90625 C 18.546875 -16.601562 18.785156 -14.800781 19.265625 -13.5 C 19.753906 -12.195312 20.785156 -11.546875 22.359375 -11.546875 C 23.566406 -11.546875 24.425781 -11.90625 24.9375 -12.625 C 25.457031 -13.351562 25.765625 -14.1875 25.859375 -15.125 C 25.953125 -16.070312 26 -17.453125 26 -19.265625 L 26 -25.71875 L 41.8125 -25.71875 L 41.8125 -21.90625 C 41.8125 -14.144531 40.3125 -8.429688 37.3125 -4.765625 C 34.3125 -1.097656 29.144531 0.734375 21.8125 0.734375 Z M 26 -39.71875 L 26 -48.265625 C 26 -53.046875 24.816406 -55.4375 22.453125 -55.4375 C 19.785156 -55.4375 18.453125 -53.046875 18.453125 -48.265625 L 18.453125 -39.71875 Z M 26 -39.71875 "/></g></g></g><g fill="#545454" fill-opacity="1"><g transform="translate(474.315296, 606.640069)"><g/></g></g><g fill="#545454" fill-opacity="1"><g transform="translate(495.583682, 606.640069)"><g><path d="M 3.453125 0 L 3.453125 -78.078125 L 18.90625 -78.078125 L 18.90625 -46.8125 L 26.171875 -78.078125 L 41.90625 -78.078125 L 33.171875 -42.359375 L 43.71875 0 L 27.546875 0 L 19 -37.8125 L 19 0 Z M 3.453125 0 "/></g></g></g><g fill="#545454" fill-opacity="1"><g transform="translate(538.484009, 606.640069)"><g><path d="M 16 0.734375 C 11.03125 0.734375 7.617188 -0.75 5.765625 -3.71875 C 3.921875 -6.695312 3 -11.125 3 -17 L 3 -66.53125 L 19 -66.53125 L 19 -20.171875 C 19 -19.753906 19 -18.617188 19 -16.765625 C 19 -14.921875 19.285156 -13.617188 19.859375 -12.859375 C 20.429688 -12.097656 21.328125 -11.71875 22.546875 -11.71875 C 24.179688 -11.71875 25.207031 -12.398438 25.625 -13.765625 C 26.050781 -15.128906 26.265625 -17.082031 26.265625 -19.625 L 26.265625 -20.171875 L 26.359375 -66.53125 L 42.171875 -66.53125 L 42.171875 0 L 26.265625 0 L 26.265625 -7.09375 C 25.171875 -4.300781 23.894531 -2.296875 22.4375 -1.078125 C 20.988281 0.128906 18.84375 0.734375 16 0.734375 Z M 16 0.734375 "/></g></g></g><g fill="#545454" fill-opacity="1"><g transform="translate(583.838407, 606.640069)"><g><path d="M 16.90625 0.734375 C 12.726562 0.734375 9.847656 -0.144531 8.265625 -1.90625 C 6.691406 -3.664062 5.90625 -6.484375 5.90625 -10.359375 L 5.90625 -51.90625 L 1.453125 -51.90625 L 1.453125 -63.984375 L 5.90625 -63.984375 L 5.90625 -78.078125 L 21.359375 -78.078125 L 21.359375 -63.984375 L 25.90625 -63.984375 L 25.90625 -51.90625 L 21.359375 -51.90625 L 21.359375 -14.546875 C 21.359375 -13.390625 21.445312 -12.535156 21.625 -11.984375 C 21.8125 -11.441406 22.300781 -11.171875 23.09375 -11.171875 C 23.695312 -11.171875 24.269531 -11.203125 24.8125 -11.265625 C 25.351562 -11.328125 25.71875 -11.359375 25.90625 -11.359375 L 25.90625 -0.453125 C 25 -0.210938 23.679688 0.0390625 21.953125 0.3125 C 20.222656 0.59375 18.539062 0.734375 16.90625 0.734375 Z M 16.90625 0.734375 "/></g></g></g><g fill="#545454" fill-opacity="1"><g transform="translate(611.560024, 606.640069)"><g><path d="M 16 0.734375 C 11.03125 0.734375 7.617188 -0.75 5.765625 -3.71875 C 3.921875 -6.695312 3 -11.125 3 -17 L 3 -66.53125 L 19 -66.53125 L 19 -20.171875 C 19 -19.753906 19 -18.617188 19 -16.765625 C 19 -14.921875 19.285156 -13.617188 19.859375 -12.859375 C 20.429688 -12.097656 21.328125 -11.71875 22.546875 -11.71875 C 24.179688 -11.71875 25.207031 -12.398438 25.625 -13.765625 C 26.050781 -15.128906 26.265625 -17.082031 26.265625 -19.625 L 26.265625 -20.171875 L 26.359375 -66.53125 L 42.171875 -66.53125 L 42.171875 0 L 26.265625 0 L 26.265625 -7.09375 C 25.171875 -4.300781 23.894531 -2.296875 22.4375 -1.078125 C 20.988281 0.128906 18.84375 0.734375 16 0.734375 Z M 16 0.734375 "/></g></g></g><g fill="#545454" fill-opacity="1"><g transform="translate(656.914422, 606.640069)"><g><path d="M 21.453125 0.734375 C 8.304688 0.734375 1.734375 -5.929688 1.734375 -19.265625 L 1.8125 -24.546875 L 17.71875 -24.546875 L 17.8125 -16.71875 C 17.8125 -15.144531 18.113281 -13.945312 18.71875 -13.125 C 19.320312 -12.3125 20.320312 -11.90625 21.71875 -11.90625 C 23.84375 -11.90625 24.90625 -13.632812 24.90625 -17.09375 C 24.90625 -19.632812 24.40625 -21.628906 23.40625 -23.078125 C 22.40625 -24.535156 20.8125 -26.082031 18.625 -27.71875 L 10.1875 -34.265625 C 7.269531 -36.503906 5.175781 -38.820312 3.90625 -41.21875 C 2.632812 -43.613281 2 -46.992188 2 -51.359375 C 2 -54.742188 2.890625 -57.632812 4.671875 -60.03125 C 6.460938 -62.425781 8.84375 -64.226562 11.8125 -65.4375 C 14.78125 -66.65625 18.082031 -67.265625 21.71875 -67.265625 C 34.625 -67.265625 41.078125 -60.835938 41.078125 -47.984375 L 41.078125 -46.71875 L 24.625 -46.71875 L 24.625 -49.265625 C 24.625 -50.835938 24.367188 -52.179688 23.859375 -53.296875 C 23.347656 -54.421875 22.484375 -54.984375 21.265625 -54.984375 C 20.171875 -54.984375 19.335938 -54.664062 18.765625 -54.03125 C 18.191406 -53.394531 17.90625 -52.53125 17.90625 -51.4375 C 17.90625 -49.019531 18.84375 -47.144531 20.71875 -45.8125 L 30.546875 -38.625 C 34.054688 -36.019531 36.75 -33.1875 38.625 -30.125 C 40.507812 -27.070312 41.453125 -23.210938 41.453125 -18.546875 C 41.453125 -12.359375 39.691406 -7.597656 36.171875 -4.265625 C 32.660156 -0.929688 27.753906 0.734375 21.453125 0.734375 Z M 21.453125 0.734375 "/></g></g></g><g fill="#545454" fill-opacity="1"><g transform="translate(700.08744, 606.640069)"><g><path d="M 16 0.734375 C 11.03125 0.734375 7.617188 -0.75 5.765625 -3.71875 C 3.921875 -6.695312 3 -11.125 3 -17 L 3 -66.53125 L 19 -66.53125 L 19 -20.171875 C 19 -19.753906 19 -18.617188 19 -16.765625 C 19 -14.921875 19.285156 -13.617188 19.859375 -12.859375 C 20.429688 -12.097656 21.328125 -11.71875 22.546875 -11.71875 C 24.179688 -11.71875 25.207031 -12.398438 25.625 -13.765625 C 26.050781 -15.128906 26.265625 -17.082031 26.265625 -19.625 L 26.265625 -20.171875 L 26.359375 -66.53125 L 42.171875 -66.53125 L 42.171875 0 L 26.265625 0 L 26.265625 -7.09375 C 25.171875 -4.300781 23.894531 -2.296875 22.4375 -1.078125 C 20.988281 0.128906 18.84375 0.734375 16 0.734375 Z M 16 0.734375 "/></g></g></g></svg>