<svg xmlns="http://www.w3.org/2000/svg" xmlns:xlink="http://www.w3.org/1999/xlink" width="1080" zoomAndPan="magnify" viewBox="0 0 810 809.999993" height="1080" preserveAspectRatio="xMidYMid meet" version="1.0"><defs><g/><clipPath id="5557b93466"><path d="M 92 302.578125 L 447 302.578125 L 447 693.601562 L 92 693.601562 Z M 92 302.578125 " clip-rule="nonzero"/></clipPath><clipPath id="ba556d19a1"><path d="M 443 280 L 607 280 L 607 693.601562 L 443 693.601562 Z M 443 280 " clip-rule="nonzero"/></clipPath><clipPath id="89be4c9fa2"><path d="M 282 116.101562 L 664 116.101562 L 664 281 L 282 281 Z M 282 116.101562 " clip-rule="nonzero"/></clipPath><clipPath id="36f0db09e7"><path d="M 446.386719 280 L 709.179688 280 L 709.179688 382 L 446.386719 382 Z M 446.386719 280 " clip-rule="nonzero"/></clipPath></defs><rect x="-81" width="972" fill="#ffffff" y="-80.999999" height="971.999992" fill-opacity="1"/><rect x="-81" width="972" fill="#ffffff" y="-80.999999" height="971.999992" fill-opacity="1"/><path fill="#be935f" d="M 282.023438 224.621094 L 92.011719 302.785156 L 95.457031 374.808594 L 284.019531 424.78125 L 282.023438 224.621094 " fill-opacity="1" fill-rule="nonzero"/><path fill="#9e6f3f" d="M 602.265625 416.714844 L 284.675781 425.089844 L 282.023438 224.621094 L 606.34375 280.960938 L 602.265625 416.714844 " fill-opacity="1" fill-rule="nonzero"/><g clip-path="url(#5557b93466)"><path fill="#be935f" d="M 105.640625 587.804688 L 443.839844 693.617188 L 446.941406 381.894531 L 92.011719 302.785156 L 105.640625 587.804688 " fill-opacity="1" fill-rule="nonzero"/></g><g clip-path="url(#ba556d19a1)"><path fill="#dfb77f" d="M 598.101562 555.078125 L 443.839844 693.617188 L 446.941406 381.894531 L 606.34375 280.960938 L 598.101562 555.078125 " fill-opacity="1" fill-rule="nonzero"/></g><path fill="#e5bb87" d="M 331.632812 412.828125 L -22.125 327.535156 L 92.011719 302.785156 L 446.941406 381.894531 L 331.632812 412.828125 " fill-opacity="1" fill-rule="nonzero"/><path fill="#dfb77f" d="M 180.078125 165.953125 L -14.8125 237.808594 L 92.011719 302.785156 L 282.023438 224.621094 L 180.078125 165.953125 " fill-opacity="1" fill-rule="nonzero"/><g clip-path="url(#89be4c9fa2)"><path fill="#d4ac7b" d="M 606.34375 280.960938 L 282.023438 224.621094 L 348.265625 116.109375 L 663.53125 158.070312 L 606.34375 280.960938 " fill-opacity="1" fill-rule="nonzero"/></g><g clip-path="url(#36f0db09e7)"><path fill="#be935f" d="M 709.179688 280.960938 L 606.34375 280.960938 L 446.941406 381.894531 L 570.410156 380.476562 L 709.179688 280.960938 " fill-opacity="1" fill-rule="nonzero"/></g><g fill="#ffffff" fill-opacity="1"><g transform="translate(134.175202, 539.373977)"><g><path d="M 3.03125 0 L 3.03125 -68.5 L 16.59375 -68.5 L 16.59375 -41.078125 L 22.96875 -68.5 L 36.765625 -68.5 L 29.109375 -37.15625 L 38.359375 0 L 24.171875 0 L 16.671875 -33.171875 L 16.671875 0 Z M 3.03125 0 "/></g></g></g><g fill="#ffffff" fill-opacity="1"><g transform="translate(171.815322, 539.373977)"><g><path d="M 13.390625 0.640625 C 8.878906 0.640625 5.785156 -0.859375 4.109375 -3.859375 C 2.429688 -6.867188 1.59375 -11.164062 1.59375 -16.75 C 1.59375 -21.320312 2.191406 -24.828125 3.390625 -27.265625 C 4.585938 -29.710938 6.25 -31.507812 8.375 -32.65625 C 10.5 -33.800781 13.742188 -35.066406 18.109375 -36.453125 L 21.9375 -37.71875 L 21.9375 -43.703125 C 21.9375 -45.242188 21.628906 -46.425781 21.015625 -47.25 C 20.398438 -48.070312 19.671875 -48.484375 18.828125 -48.484375 C 18.078125 -48.484375 17.421875 -48.140625 16.859375 -47.453125 C 16.304688 -46.765625 16.03125 -45.832031 16.03125 -44.65625 L 16.03125 -41.15625 L 2.46875 -41.15625 L 2.46875 -43.0625 C 2.46875 -48.800781 3.8125 -52.894531 6.5 -55.34375 C 9.1875 -57.789062 13.5625 -59.015625 19.625 -59.015625 C 24.457031 -59.015625 28.390625 -57.75 31.421875 -55.21875 C 34.453125 -52.695312 35.96875 -49.125 35.96875 -44.5 L 35.96875 0 L 22.09375 0 L 22.09375 -6.9375 C 21.394531 -4.539062 20.289062 -2.675781 18.78125 -1.34375 C 17.269531 -0.0195312 15.472656 0.640625 13.390625 0.640625 Z M 18.90625 -10.203125 C 19.96875 -10.203125 20.722656 -10.640625 21.171875 -11.515625 C 21.617188 -12.398438 21.84375 -13.476562 21.84375 -14.75 L 21.84375 -31.015625 C 19.769531 -30.222656 18.242188 -29.210938 17.265625 -27.984375 C 16.285156 -26.765625 15.796875 -25.066406 15.796875 -22.890625 L 15.796875 -15.390625 C 15.796875 -11.929688 16.832031 -10.203125 18.90625 -10.203125 Z M 18.90625 -10.203125 "/></g></g></g><g fill="#ffffff" fill-opacity="1"><g transform="translate(210.332642, 539.373977)"><g><path d="M 2.796875 -58.375 L 16.75 -58.375 L 16.75 -51.921875 C 17.4375 -54.203125 18.644531 -55.96875 20.375 -57.21875 C 22.101562 -58.46875 24.242188 -59.09375 26.796875 -59.09375 L 26.796875 -47.453125 C 24.828125 -47.453125 22.660156 -47.171875 20.296875 -46.609375 C 17.929688 -46.054688 16.75 -45.40625 16.75 -44.65625 L 16.75 0 L 2.796875 0 Z M 2.796875 -58.375 "/></g></g></g><g fill="#ffffff" fill-opacity="1"><g transform="translate(237.765273, 539.373977)"><g><path d="M 14.828125 0.640625 C 11.160156 0.640625 8.632812 -0.128906 7.25 -1.671875 C 5.875 -3.210938 5.1875 -5.6875 5.1875 -9.09375 L 5.1875 -45.53125 L 1.28125 -45.53125 L 1.28125 -56.140625 L 5.1875 -56.140625 L 5.1875 -68.5 L 18.734375 -68.5 L 18.734375 -56.140625 L 22.734375 -56.140625 L 22.734375 -45.53125 L 18.734375 -45.53125 L 18.734375 -12.765625 C 18.734375 -11.753906 18.8125 -11.007812 18.96875 -10.53125 C 19.132812 -10.050781 19.5625 -9.8125 20.25 -9.8125 C 20.78125 -9.8125 21.285156 -9.835938 21.765625 -9.890625 C 22.242188 -9.941406 22.566406 -9.96875 22.734375 -9.96875 L 22.734375 -0.40625 C 21.929688 -0.1875 20.769531 0.0390625 19.25 0.28125 C 17.738281 0.519531 16.265625 0.640625 14.828125 0.640625 Z M 14.828125 0.640625 "/></g></g></g><g fill="#ffffff" fill-opacity="1"><g transform="translate(262.0878, 539.373977)"><g><path d="M 19.78125 0.640625 C 8.132812 0.640625 2.3125 -5.394531 2.3125 -17.46875 L 2.3125 -40.90625 C 2.3125 -46.4375 3.863281 -50.835938 6.96875 -54.109375 C 10.082031 -57.378906 14.351562 -59.015625 19.78125 -59.015625 C 25.195312 -59.015625 29.460938 -57.378906 32.578125 -54.109375 C 35.691406 -50.835938 37.25 -46.4375 37.25 -40.90625 L 37.25 -17.46875 C 37.25 -5.394531 31.425781 0.640625 19.78125 0.640625 Z M 19.78125 -10.125 C 20.894531 -10.125 21.71875 -10.519531 22.25 -11.3125 C 22.78125 -12.113281 23.046875 -13.207031 23.046875 -14.59375 L 23.046875 -43.140625 C 23.046875 -46.546875 21.957031 -48.25 19.78125 -48.25 C 17.601562 -48.25 16.515625 -46.546875 16.515625 -43.140625 L 16.515625 -14.59375 C 16.515625 -13.207031 16.78125 -12.113281 17.3125 -11.3125 C 17.84375 -10.519531 18.664062 -10.125 19.78125 -10.125 Z M 19.78125 -10.125 "/></g></g></g><g fill="#ffffff" fill-opacity="1"><g transform="translate(301.72156, 539.373977)"><g><path d="M 2.796875 -58.375 L 16.75 -58.375 L 16.75 -50.953125 C 17.332031 -53.347656 18.34375 -55.289062 19.78125 -56.78125 C 21.21875 -58.269531 23.128906 -59.015625 25.515625 -59.015625 C 29.453125 -59.015625 32.363281 -57.800781 34.25 -55.375 C 36.132812 -52.957031 37.078125 -49.519531 37.078125 -45.0625 L 37.078125 0 L 23.359375 0 L 23.359375 -43.625 C 23.359375 -44.894531 23.101562 -45.984375 22.59375 -46.890625 C 22.09375 -47.796875 21.3125 -48.25 20.25 -48.25 C 18.820312 -48.25 17.878906 -47.597656 17.421875 -46.296875 C 16.972656 -44.992188 16.75 -43.253906 16.75 -41.078125 L 16.75 0 L 2.796875 0 Z M 2.796875 -58.375 "/></g></g></g><g fill="#ffffff" fill-opacity="1"><g transform="translate(341.514805, 539.373977)"><g/></g></g><g fill="#ffffff" fill-opacity="1"><g transform="translate(360.175357, 539.373977)"><g><path d="M 3.03125 0 L 3.03125 -68.5 L 16.59375 -68.5 L 16.59375 -41.078125 L 22.96875 -68.5 L 36.765625 -68.5 L 29.109375 -37.15625 L 38.359375 0 L 24.171875 0 L 16.671875 -33.171875 L 16.671875 0 Z M 3.03125 0 "/></g></g></g><g fill="#ffffff" fill-opacity="1"><g transform="translate(397.815477, 539.373977)"><g><path d="M 14.03125 0.640625 C 9.675781 0.640625 6.6875 -0.660156 5.0625 -3.265625 C 3.4375 -5.867188 2.625 -9.75 2.625 -14.90625 L 2.625 -58.375 L 16.671875 -58.375 L 16.671875 -17.703125 C 16.671875 -17.328125 16.671875 -16.328125 16.671875 -14.703125 C 16.671875 -13.085938 16.921875 -11.945312 17.421875 -11.28125 C 17.929688 -10.613281 18.71875 -10.28125 19.78125 -10.28125 C 21.21875 -10.28125 22.117188 -10.878906 22.484375 -12.078125 C 22.859375 -13.273438 23.046875 -14.988281 23.046875 -17.21875 L 23.046875 -17.703125 L 23.125 -58.375 L 37 -58.375 L 37 0 L 23.046875 0 L 23.046875 -6.21875 C 22.085938 -3.769531 20.96875 -2.015625 19.6875 -0.953125 C 18.414062 0.109375 16.53125 0.640625 14.03125 0.640625 Z M 14.03125 0.640625 "/></g></g></g><g fill="#ffffff" fill-opacity="1"><g transform="translate(437.608734, 539.373977)"><g><path d="M 14.828125 0.640625 C 11.160156 0.640625 8.632812 -0.128906 7.25 -1.671875 C 5.875 -3.210938 5.1875 -5.6875 5.1875 -9.09375 L 5.1875 -45.53125 L 1.28125 -45.53125 L 1.28125 -56.140625 L 5.1875 -56.140625 L 5.1875 -68.5 L 18.734375 -68.5 L 18.734375 -56.140625 L 22.734375 -56.140625 L 22.734375 -45.53125 L 18.734375 -45.53125 L 18.734375 -12.765625 C 18.734375 -11.753906 18.8125 -11.007812 18.96875 -10.53125 C 19.132812 -10.050781 19.5625 -9.8125 20.25 -9.8125 C 20.78125 -9.8125 21.285156 -9.835938 21.765625 -9.890625 C 22.242188 -9.941406 22.566406 -9.96875 22.734375 -9.96875 L 22.734375 -0.40625 C 21.929688 -0.1875 20.769531 0.0390625 19.25 0.28125 C 17.738281 0.519531 16.265625 0.640625 14.828125 0.640625 Z M 14.828125 0.640625 "/></g></g></g><g fill="#ffffff" fill-opacity="1"><g transform="translate(461.931273, 539.373977)"><g><path d="M 14.03125 0.640625 C 9.675781 0.640625 6.6875 -0.660156 5.0625 -3.265625 C 3.4375 -5.867188 2.625 -9.75 2.625 -14.90625 L 2.625 -58.375 L 16.671875 -58.375 L 16.671875 -17.703125 C 16.671875 -17.328125 16.671875 -16.328125 16.671875 -14.703125 C 16.671875 -13.085938 16.921875 -11.945312 17.421875 -11.28125 C 17.929688 -10.613281 18.71875 -10.28125 19.78125 -10.28125 C 21.21875 -10.28125 22.117188 -10.878906 22.484375 -12.078125 C 22.859375 -13.273438 23.046875 -14.988281 23.046875 -17.21875 L 23.046875 -17.703125 L 23.125 -58.375 L 37 -58.375 L 37 0 L 23.046875 0 L 23.046875 -6.21875 C 22.085938 -3.769531 20.96875 -2.015625 19.6875 -0.953125 C 18.414062 0.109375 16.53125 0.640625 14.03125 0.640625 Z M 14.03125 0.640625 "/></g></g></g></svg>