<svg viewBox="0 0 720 720" xmlns="http://www.w3.org/2000/svg"><path d="m-1.08-1.08h722.16v722.16h-722.16z" fill="#fd9d24"/><g fill="#fff"><path d="m50.12 88.93c-4.12 2.21-15.81 5.44-19.89 7.48v-19.55c5.44-2.21 20.57-9.52 25.67-15.13h20.57v137.7h-26.35z"/><path d="m86.5 88.93c-4.08 2.21-15.81 5.44-19.89 7.48v-19.55c5.44-2.21 20.57-9.52 25.67-15.13h20.57v137.7h-26.35z"/><path d="m192.4 98.94 8.26-1.63c.26 6.24 1.75 10.27 6 10.27 3.06 0 4.36-2.08 4.36-4.94 0-4.55-2.34-7.08-5.78-10.07l-6.63-5.79c-3.78-3.25-6.12-6.89-6.12-12.74 0-8.32 5.21-13 13.59-13 9.88 0 12.68 6.63 13.2 14.3l-8.28 1.43c-.19-4.94-.91-8.64-5.13-8.64-2.86 0-4.43 2.14-4.43 4.94 0 3.57 1.5 5.52 4.3 7.93l6.56 5.78c4.29 3.71 7.87 8.32 7.87 15.28 0 7.6-5.33 12.93-13.2 12.93-9.63.01-14.18-5.59-14.57-16.05z"/><path d="m221.78 97.25v-35.62h9.36v36.72c0 5 .58 9.49 5.46 9.49s5.53-4.48 5.53-9.49v-36.72h9.29v35.62c0 11-3 17.74-14.82 17.74s-14.82-6.69-14.82-17.74zm4.61-50.7h7.8v8.45h-7.8zm12.74 0h7.8v8.45h-7.8z"/><path d="m255.32 61.63h12.68c10.53 0 16.52 3.38 16.52 14 0 6.31-1.57 10.73-6.51 12.74l7.35 25.94h-9.62l-6.31-24.12h-4.55v24.12h-9.55zm12.61 22.55c5.52 0 7.54-2.4 7.54-8.06 0-5.33-1.5-7.93-7-7.93h-3.58v16z"/><path d="m288.14 61.63h12.42c12.8 0 16.7 5.13 16.7 16.38v19.17c0 11.57-4 17.1-16.31 17.1h-12.81zm12.55 45.95c6.56 0 6.82-3.51 6.82-10.07v-20.15c0-6.31-.65-8.91-6.95-8.91h-2.86v39.13z"/><path d="m320.32 97.25v-35.62h9.36v36.72c0 5 .58 9.49 5.46 9.49s5.52-4.48 5.52-9.49v-36.72h9.34v35.62c0 11-3.06 17.74-14.82 17.74s-14.86-6.69-14.86-17.74zm4.61-50.7h7.8v8.45h-7.8zm12.74 0h7.8v8.45h-7.8z"/><path d="m353.86 61.63h12.67c10.53 0 16.51 3.38 16.51 14 0 6.31-1.56 10.73-6.5 12.74l7.35 25.94h-9.62l-6.27-24.15h-4.55v24.12h-9.55zm12.61 22.55c5.52 0 7.54-2.4 7.54-8.06 0-5.33-1.5-7.93-7-7.93h-3.58v16z"/><path d="m386.1 97.25v-35.62h9.36v36.72c0 5 .58 9.49 5.46 9.49s5.52-4.48 5.52-9.49v-36.72h9.3v35.62c0 11-3.06 17.74-14.82 17.74s-14.82-6.69-14.82-17.74zm4.61-50.7h7.8v8.45h-7.8zm12.74 0h7.8v8.45h-7.8z"/><path d="m419.64 61.63h9.55v46.08h12.81v6.57h-22.36z"/><path d="m443.36 61.63h22.1v6.76h-12.54v15.14h9.88v6.7h-9.88v17.48h12.67v6.57h-22.23z"/><path d="m467.54 61.63h13c9.23 0 15.41 3.12 15.41 13.52 0 6.43-2.67 10-7.61 10.79 6.18 1.17 9.1 5.59 9.1 13 0 10.07-4.94 15.34-14.69 15.34h-15.21zm12.87 21.51c5.72 0 7.22-2.53 7.22-7.86 0-5.59-2.73-7-8.58-7h-1.95v14.86zm.39 24.38c5.85 0 7.48-2.73 7.48-8.65 0-6.24-2.08-9.1-7.8-9.1h-3.38v17.75z"/><path d="m500.37 61.63h9.49v52.65h-9.49zm.45-14.3h8.58v8.9h-8.58z"/><path d="m514.34 61.63h9.55v46.08h12.81v6.57h-22.36z"/><path d="m538.32 61.63h9.49v52.65h-9.49zm.46-14.3h8.58v8.9h-8.58z"/><path d="m552.3 61.63h12.7c10.53 0 16.51 3.38 16.51 14 0 6.31-1.56 10.73-6.5 12.74l7.35 25.94h-9.62l-6.34-24.15h-4.55v24.12h-9.55zm12.61 22.55c5.52 0 7.54-2.4 7.54-8.06 0-5.33-1.5-7.93-7-7.93h-3.58v16z"/><path d="m207.67 201v3.25c4.82 0 8.07 2.15 8.07 6.18 0 4.61-4.1 6.56-8.84 6.56a17 17 0 0 1 -4.69-.71v-4.1a11.63 11.63 0 0 0 3.52.52c2.27 0 4-.65 4-2.4 0-2.34-2.66-3.19-5.72-3.51v-6c-7.6-1.11-11.25-6.57-11.57-15.86l8.26-1.63c.26 6.24 1.75 10.27 6 10.27 3.06 0 4.36-2.08 4.36-4.94 0-4.55-2.34-7.08-5.78-10.07l-6.63-5.79c-3.78-3.25-6.12-6.89-6.12-12.74 0-8.32 5.21-13 13.59-13 9.88 0 12.68 6.63 13.2 14.3l-8.32 1.44c-.19-4.94-.91-8.64-5.13-8.64-2.86 0-4.43 2.14-4.43 4.94 0 3.57 1.5 5.52 4.3 7.93l6.56 5.78c4.29 3.71 7.87 8.32 7.87 15.28-.01 7.34-5.02 12.61-12.5 12.94z"/><path d="m222.17 147.63h22.1v6.76h-12.55v15.14h9.88v6.7h-9.88v17.48h12.68v6.57h-22.23z"/><path d="m246.48 147.63h9.52v22h10.73v-22h9.62v52.65h-9.62v-23.79h-10.73v23.79h-9.55z"/><path d="m281.06 147.63h9.49v52.65h-9.49zm.45-14.3h8.58v8.9h-8.58z"/><path d="m295 147.63h12.68c10.53 0 16.51 3.38 16.51 14 0 6.31-1.56 10.73-6.5 12.74l7.34 25.94h-9.62l-6.3-24.12h-4.55v24.12h-9.56zm12.61 22.55c5.53 0 7.54-2.4 7.54-8.06 0-5.33-1.49-7.93-7-7.93h-3.57v16z"/><path d="m327.86 147.63h9.55v46.08h12.81v6.57h-22.36z"/><path d="m351.58 147.63h22.1v6.76h-12.54v15.14h9.86v6.7h-9.88v17.48h12.67v6.57h-22.21z"/><path d="m375.76 147.63h12.68c10.53 0 16.51 3.38 16.51 14 0 6.31-1.56 10.73-6.5 12.74l7.34 25.94h-9.62l-6.3-24.12h-4.55v24.12h-9.56zm12.61 22.55c5.53 0 7.54-2.4 7.54-8.06 0-5.33-1.49-7.93-7-7.93h-3.57v16z"/><path d="m418.27 147.63h8.45l7 37.24 6.56-37.24h8.65l-10.6 52.65h-9.42z"/><path d="m450.64 147.63h22.1v6.76h-12.54v15.14h9.88v6.7h-9.88v17.48h12.67v6.57h-22.23z"/><path d="m199 240.71h-8.38v-7.08h26.2v7.08h-8.19v45.57h-9.63z"/><path d="m216.84 269.77v-19.77c0-10.66 3.9-17 15.21-17s15.15 6.31 15.15 17v19.76c0 10.59-3.9 17.22-15.15 17.22s-15.21-6.55-15.21-17.21zm20.61 2.23v-24.2c0-4.42-.72-7.74-5.4-7.74s-5.46 3.32-5.46 7.74v24.2c0 4.36.71 7.87 5.46 7.87s5.4-3.47 5.4-7.87z"/><path d="m250.64 233.63h15.47c9.42 0 13.45 5.46 13.45 15 0 10.33-5.59 14.3-14.1 14.3h-5.27v23.4h-9.55zm13.26 22.49c5.26 0 6.63-2 6.63-7.61s-.72-8.12-6.63-8.12h-3.71v15.73z"/><path d="m281.25 233.63h9.56v46.08h12.8v6.57h-22.36z"/><path d="m304.07 269.25v-35.62h9.36v36.72c0 5 .58 9.49 5.46 9.49s5.52-4.48 5.52-9.49v-36.72h9.3v35.62c0 11.05-3.06 17.74-14.82 17.74s-14.82-6.69-14.82-17.74z"/><path d="m337.61 233.63h9.55v46.08h12.84v6.57h-22.39z"/><path d="m360.42 269.25v-35.62h9.36v36.72c0 5 .59 9.49 5.46 9.49s5.53-4.48 5.53-9.49v-36.72h9.29v35.62c0 11.05-3.05 17.74-14.82 17.74s-14.82-6.69-14.82-17.74z"/><path d="m394 233.63h9.56v23.14l10.44-23.14h9.17l-10.08 23.46 11.12 29.19h-9.56l-8.77-23.92-2.34 4v20h-9.54z"/><path d="m424.9 233.63h9.56v46.08h12.8v6.57h-22.36z"/><path d="m456.49 233.63h10.27l10.53 52.65h-8.9l-2.08-12.16h-9.17l-2.14 12.16h-9zm8.78 34.37-3.58-22.1-3.57 22.1z"/><path d="m478.92 233.63h12.67c10.53 0 16.51 3.38 16.51 14 0 6.31-1.56 10.73-6.5 12.74l7.4 25.91h-9.62l-6.38-24.12h-4.55v24.12h-9.55zm12.61 22.55c5.52 0 7.54-2.4 7.54-8.06 0-5.33-1.5-7.93-7-7.93h-3.58v16z"/><path d="m166.8 566h94.74a2.31 2.31 0 0 0 1.71-3.87l-.13-.14-47.12-60.99-.46-.5a2.32 2.32 0 0 0 -1.72-.76 2.37 2.37 0 0 0 -1.52.6l-.29.33-.44.49-46 60.35-.71.86a2.33 2.33 0 0 0 1.94 3.63z"/><path d="m261.25 574.61h-94.92a2.33 2.33 0 0 0 -2.33 2.33v74.28a2.33 2.33 0 0 0 2.33 2.34h30.55v-46.74a2.32 2.32 0 0 1 2.32-2.33h28.36a2.33 2.33 0 0 1 2.33 2.33v46.74h31.36a2.34 2.34 0 0 0 2.33-2.34v-74.28a2.33 2.33 0 0 0 -2.33-2.33z"/><path d="m589.33 555.17h-94a2.25 2.25 0 0 0 -2.3 2.23v94.87a2.27 2.27 0 0 0 2.3 2.23h94a2.26 2.26 0 0 0 2.3-2.23v-94.87a2.25 2.25 0 0 0 -2.3-2.23m-51.41 61.93a2.26 2.26 0 0 1 -2.29 2.25h-28.07a2.28 2.28 0 0 1 -2.31-2.25v-17.05a2.27 2.27 0 0 1 2.31-2.24h28.07a2.25 2.25 0 0 1 2.29 2.24zm0-31.52a2.27 2.27 0 0 1 -2.29 2.24h-28.07a2.28 2.28 0 0 1 -2.31-2.24v-17.07a2.28 2.28 0 0 1 2.31-2.24h28.07a2.26 2.26 0 0 1 2.29 2.24zm42.9 31.52a2.26 2.26 0 0 1 -2.3 2.25h-28.06a2.26 2.26 0 0 1 -2.3-2.25v-17.05a2.26 2.26 0 0 1 2.3-2.24h28.06a2.26 2.26 0 0 1 2.3 2.24zm0-31.52a2.27 2.27 0 0 1 -2.3 2.24h-28.06a2.27 2.27 0 0 1 -2.3-2.24v-17.07a2.26 2.26 0 0 1 2.3-2.24h28.06a2.26 2.26 0 0 1 2.3 2.24z"/><path d="m370.93 335h-91.93a2.24 2.24 0 0 0 -2.24 2.25v314.18a2.25 2.25 0 0 0 2.24 2.25h91.95a2.27 2.27 0 0 0 2.26-2.25v-314.23a2.26 2.26 0 0 0 -2.26-2.25m-54.7 282.93a1.21 1.21 0 0 1 -1.2 1.21h-21.05a1.21 1.21 0 0 1 -1.2-1.21v-23.46a1.2 1.2 0 0 1 1.2-1.2h21a1.2 1.2 0 0 1 1.2 1.2zm0-53.88a1.19 1.19 0 0 1 -1.2 1.2h-21.05a1.19 1.19 0 0 1 -1.2-1.2v-23.46a1.19 1.19 0 0 1 1.2-1.2h21a1.19 1.19 0 0 1 1.2 1.2zm0-53.87a1.2 1.2 0 0 1 -1.2 1.2h-21.05a1.2 1.2 0 0 1 -1.2-1.2v-23.47a1.21 1.21 0 0 1 1.2-1.21h21a1.21 1.21 0 0 1 1.2 1.21zm0-53.89a1.21 1.21 0 0 1 -1.2 1.21h-21.05a1.21 1.21 0 0 1 -1.2-1.21v-23.47a1.19 1.19 0 0 1 1.2-1.19h21a1.19 1.19 0 0 1 1.2 1.19zm0-53.87a1.2 1.2 0 0 1 -1.2 1.2h-21.05a1.2 1.2 0 0 1 -1.2-1.2v-23.47a1.2 1.2 0 0 1 1.2-1.2h21a1.2 1.2 0 0 1 1.2 1.2zm41.29 215.51a1.21 1.21 0 0 1 -1.22 1.21h-21a1.21 1.21 0 0 1 -1.21-1.21v-23.46a1.2 1.2 0 0 1 1.21-1.2h21a1.2 1.2 0 0 1 1.22 1.2zm0-53.88a1.2 1.2 0 0 1 -1.22 1.2h-21a1.19 1.19 0 0 1 -1.21-1.2v-23.46a1.19 1.19 0 0 1 1.21-1.2h21a1.2 1.2 0 0 1 1.22 1.2zm0-53.87a1.21 1.21 0 0 1 -1.22 1.2h-21a1.21 1.21 0 0 1 -1.21-1.2v-23.47a1.21 1.21 0 0 1 1.21-1.21h21a1.21 1.21 0 0 1 1.22 1.21zm0-53.89a1.21 1.21 0 0 1 -1.22 1.21h-21a1.21 1.21 0 0 1 -1.21-1.21v-23.47a1.2 1.2 0 0 1 1.21-1.19h21a1.2 1.2 0 0 1 1.22 1.19zm0-53.87a1.21 1.21 0 0 1 -1.22 1.2h-21a1.21 1.21 0 0 1 -1.21-1.2v-23.47a1.2 1.2 0 0 1 1.21-1.2h21a1.2 1.2 0 0 1 1.22 1.2z"/><path d="m591.53 545.62a1.88 1.88 0 0 1 -1.89 1.89h-94.57a1.89 1.89 0 0 1 -1.89-1.89v-18.91a1.89 1.89 0 0 1 1.89-1.89h94.57a1.89 1.89 0 0 1 1.89 1.89z"/><path d="m482 394.29a2.35 2.35 0 0 0 -3.63-1.33l-.17.12-.77 1-90.38 114.61-.42.56a2.62 2.62 0 0 0 -.78 1.79v140.86a2.24 2.24 0 0 0 2.25 2.24h91.9a2.24 2.24 0 0 0 2.25-2.24v-256.67a2.24 2.24 0 0 0 -.25-.94zm-38.05 62.25.65-.81c6.18-7.94 16.6-20.76 21.68-27l.67-.8a2.58 2.58 0 0 1 4.53 1.15v29a2.61 2.61 0 0 1 -2.5 2.59h-.11-.12-22.59-.12-.11a2.6 2.6 0 0 1 -2-4.14zm-14.3 160.54a2.24 2.24 0 0 1 -2.24 2.25h-27.41a2.25 2.25 0 0 1 -2.25-2.25v-17.15a2.24 2.24 0 0 1 2.25-2.24h27.4a2.24 2.24 0 0 1 2.24 2.24zm0-31.69a2.24 2.24 0 0 1 -2.24 2.25h-27.41a2.25 2.25 0 0 1 -2.25-2.25v-17.15a2.24 2.24 0 0 1 2.25-2.24h27.4a2.23 2.23 0 0 1 2.24 2.25zm0-31.69a2.24 2.24 0 0 1 -2.24 2.24h-27.41a2.25 2.25 0 0 1 -2.25-2.24v-17.16a2.25 2.25 0 0 1 2.25-2.25h27.4a2.24 2.24 0 0 1 2.24 2.25zm.08-69.46v37.76a2.26 2.26 0 0 1 -2.25 2.25h-27.4a2.26 2.26 0 0 1 -2.27-2.25v-4.76a2.38 2.38 0 0 1 .18-.84 1.55 1.55 0 0 1 .13-.26 3 3 0 0 1 .2-.29c.07-.11.17-.25.26-.37 3.5-5 19.31-24.49 25.95-32.63l.66-.8a2.63 2.63 0 0 1 2-1 2.58 2.58 0 0 1 2.51 2.11zm41.81 132.84a2.24 2.24 0 0 1 -2.24 2.25h-27.4a2.25 2.25 0 0 1 -2.26-2.25v-17.15a2.25 2.25 0 0 1 2.26-2.24h27.4a2.24 2.24 0 0 1 2.24 2.24zm0-31.69a2.24 2.24 0 0 1 -2.24 2.25h-27.4a2.25 2.25 0 0 1 -2.26-2.25v-17.15a2.24 2.24 0 0 1 2.26-2.25h27.4a2.24 2.24 0 0 1 2.24 2.25zm0-31.69a2.25 2.25 0 0 1 -2.24 2.24h-27.4a2.25 2.25 0 0 1 -2.26-2.24v-17.16a2.25 2.25 0 0 1 2.26-2.25h27.4a2.24 2.24 0 0 1 2.24 2.25zm0-31.7a2.24 2.24 0 0 1 -2.24 2.24h-27.4a2.25 2.25 0 0 1 -2.26-2.24v-17.16a2.25 2.25 0 0 1 2.26-2.24h27.4a2.24 2.24 0 0 1 2.24 2.24zm0-31.7a2.24 2.24 0 0 1 -2.24 2.24h-27.4a2.25 2.25 0 0 1 -2.26-2.24v-17.16a2.25 2.25 0 0 1 2.26-2.25h27.4a2.24 2.24 0 0 1 2.24 2.25z"/></g></svg>