<svg viewBox="0 0 720 720" xmlns="http://www.w3.org/2000/svg"><path d="m-1.08-1.08h722.16v722.16h-722.16z" fill="#dd1367"/><g fill="#fff"><path d="m50.12 88.93c-4.12 2.21-15.81 5.44-19.89 7.48v-19.55c5.44-2.21 20.57-9.52 25.67-15.13h20.57v137.7h-26.35z"/><path d="m81.91 162v-61.68c0-24.14 11.39-40.46 36.89-40.46 25.16 0 36.72 16.32 36.72 40.46v61.68c0 23.29-12.58 39.78-36.72 39.78-24.65.03-36.89-16.29-36.89-39.78zm46.92-.51v-60.66c0-7.31-.68-17.85-10-17.85-9.69 0-10.2 10.54-10.2 17.85v60.69c0 6.8 1.19 17.17 10.2 17.17 8.81 0 10-10.37 10-17.17z"/><path d="m229.73 61.63h22.1v6.76h-12.54v15.14h9.88v6.7h-9.88v17.48h12.71v6.57h-22.27z"/><path d="m271.53 115v3.25c4.81 0 8.06 2.15 8.06 6.18 0 4.61-4.1 6.56-8.84 6.56a16.87 16.87 0 0 1 -4.68-.71v-4.1a11.51 11.51 0 0 0 3.51.52c2.27 0 4-.65 4-2.4 0-2.34-2.66-3.19-5.72-3.51v-6c-7.6-1.11-11.24-6.57-11.57-15.86l8.26-1.63c.26 6.24 1.75 10.27 6 10.27 3.05 0 4.35-2.08 4.35-4.94 0-4.55-2.34-7.08-5.78-10.07l-6.63-5.79c-3.77-3.25-6.11-6.89-6.11-12.74 0-8.32 5.2-13 13.58-13 9.88 0 12.68 6.63 13.2 14.3l-8.26 1.43c-.19-4.94-.91-8.64-5.13-8.64-2.86 0-4.42 2.14-4.42 4.94 0 3.57 1.49 5.52 4.29 7.93l6.56 5.78c4.29 3.71 7.87 8.32 7.87 15.28-.07 7.35-5.07 12.62-12.54 12.95z"/><path d="m289.92 61.63h9.49v52.65h-9.49zm.45-14.3h8.63v8.9h-8.58z"/><path d="m312.8 68.71h-8.39v-7.08h26.2v7.08h-8.19v45.57h-9.62z"/><path d="m334.12 98.94 8.25-1.63c.26 6.24 1.76 10.27 6 10.27 3.06 0 4.36-2.08 4.36-4.94 0-4.55-2.34-7.08-5.79-10.07l-6.63-5.79c-3.77-3.25-6.11-6.89-6.11-12.74 0-8.32 5.2-13 13.59-13 9.88 0 12.67 6.63 13.19 14.3l-8.25 1.43c-.2-4.94-.91-8.64-5.14-8.64-2.86 0-4.42 2.14-4.42 4.94 0 3.57 1.5 5.52 4.29 7.93l6.54 5.78c4.29 3.71 7.86 8.32 7.86 15.28 0 7.6-5.33 12.93-13.19 12.93-9.61.01-14.16-5.59-14.55-16.05z"/><path d="m367.79 61.63h9.49v52.65h-9.49zm.45-14.3h8.58v8.9h-8.58z"/><path d="m383.65 108.1 14.1-39.84h-13.39v-6.63h23.08v4.94l-14.69 41.14h14.75v6.57h-23.85z"/><path d="m413 61.63h9.55v46.08h12.81v6.57h-22.36z"/><path d="m440.65 61.63h9.49v52.65h-9.49zm.46-14.3h8.58v8.9h-8.58z"/><path d="m458.27 61.63h9.55v23.14l10.47-23.14h9.16l-10.07 23.46 11.11 29.19h-9.55l-8.78-23.92-2.34 4v20h-9.55z"/><path d="m492.85 61.63h9.55v46.08h12.81v6.57h-22.36z"/><path d="m520.21 61.63h22.1v6.76h-12.55v15.14h9.89v6.7h-9.89v17.48h12.68v6.57h-22.23z"/><path d="m548 61.63h12.7c10.54 0 16.52 3.38 16.52 14 0 6.31-1.56 10.73-6.51 12.74l7.35 25.94h-9.62l-6.31-24.12h-4.55v24.12h-9.58zm12.61 22.55c5.52 0 7.54-2.4 7.54-8.06 0-5.33-1.5-7.93-7-7.93h-3.58v16z"/><path d="m584.75 61.63h9.49v52.65h-9.49zm.46-14.3h8.58v8.9h-8.58z"/><path d="m602.37 61.63h6.69l12.81 30v-30h7.93v52.65h-6.37l-12.87-31.46v31.46h-8.19z"/><path d="m237.6 139.63h10.27l10.53 52.65h-8.91l-2.08-12.16h-9.16l-2.15 12.16h-9zm8.77 34.37-3.57-22.1-3.58 22.1z"/><path d="m261.91 186.1 14.09-39.84h-13.38v-6.63h23.08v4.94l-14.7 41.14h14.75v6.57h-23.84z"/><path d="m299.15 139.63h10.27l10.58 52.65h-9l-2-12.16h-9.2l-2.15 12.16h-9zm8.77 34.37-3.57-22.1-3.58 22.1z"/><path d="m325.21 139.63h9.56v46.08h12.8v6.57h-22.36z"/><path d="m355.24 146.71h-8.38v-7.08h26.19v7.08h-8.19v45.57h-9.62z"/><path d="m378.12 139.63h9.49v52.65h-9.49z"/><path d="m395.74 139.63h9.55v46.08h12.81v6.57h-22.36z"/><path d="m423.88 139.63h9.95l7.47 36.46 7.7-36.46h9.68l1 52.65h-7.15l-.78-36.6-7.48 36.6h-5.78l-7.61-36.73-.71 36.73h-7.17z"/><path d="m475.36 139.63h10.27l10.53 52.65h-8.9l-2.08-12.16h-9.18l-2.14 12.16h-9zm8.78 34.37-3.58-22.1-3.56 22.1z"/><path d="m499.87 176.94 8.25-1.63c.26 6.24 1.76 10.27 6 10.27 3.06 0 4.36-2.08 4.36-4.94 0-4.55-2.34-7.08-5.79-10.07l-6.69-5.79c-3.77-3.25-6.11-6.89-6.11-12.74 0-8.32 5.2-13 13.59-13 9.88 0 12.67 6.63 13.19 14.3l-8.25 1.43c-.2-4.94-.91-8.64-5.14-8.64-2.86 0-4.42 2.14-4.42 4.94 0 3.57 1.5 5.52 4.29 7.93l6.57 5.78c4.29 3.71 7.86 8.32 7.86 15.28 0 7.6-5.33 12.93-13.19 12.93-9.58.01-14.13-5.59-14.52-16.05z"/><path d="m533.53 139.63h9.47v52.65h-9.5z"/><path d="m427 472.8h-133a1.53 1.53 0 0 0 -1.44 1.61v40a1.53 1.53 0 0 0 1.44 1.59h133a1.54 1.54 0 0 0 1.46-1.63v-40a1.54 1.54 0 0 0 -1.46-1.57"/><path d="m427 387.75h-133a1.53 1.53 0 0 0 -1.44 1.61v40a1.53 1.53 0 0 0 1.44 1.64h133a1.54 1.54 0 0 0 1.46-1.63v-40a1.54 1.54 0 0 0 -1.46-1.61"/><path d="m425.14 327.33-63.84-63.84a1.1 1.1 0 0 0 -1.56 0l-63.84 63.84a1.1 1.1 0 0 0 .78 1.88h127.68a1.1 1.1 0 0 0 .78-1.88z"/><path d="m485.07 516.5 63.84-63.84a1.1 1.1 0 0 0 0-1.56l-63.84-63.84a1.11 1.11 0 0 0 -1.89.78v127.68a1.11 1.11 0 0 0 1.89.78z"/><path d="m295.9 576.43 63.84 63.83a1.09 1.09 0 0 0 1.56 0l63.84-63.83a1.11 1.11 0 0 0 -.78-1.89h-127.68a1.11 1.11 0 0 0 -.78 1.89z"/><path d="m236 387.26-63.87 63.84a1.1 1.1 0 0 0 0 1.56l63.87 63.84a1.1 1.1 0 0 0 1.88-.78v-127.72a1.1 1.1 0 0 0 -1.88-.74z"/></g></svg>