<svg viewBox="0 0 720 720" xmlns="http://www.w3.org/2000/svg"><path d="m-1.08-1.08h722.16v722.16h-722.16z" fill="#0a97d9"/><g fill="#fff"><path d="m49.12 88.93c-4.12 2.21-15.81 5.44-19.89 7.48v-19.55c5.44-2.21 20.57-9.52 25.67-15.13h20.57v137.7h-26.35z"/><path d="m118.14 167.13h-41.82v-20.4l35.87-85h30.43v85.51h13.43v19.89h-13.43v32.3h-24.48zm0-19.89v-58.48l-21.08 58.48z"/><path d="m228.43 98.94 8.26-1.63c.26 6.24 1.75 10.27 6 10.27 3.05 0 4.35-2.08 4.35-4.94 0-4.55-2.34-7.08-5.78-10.07l-6.63-5.79c-3.77-3.25-6.11-6.89-6.11-12.74 0-8.32 5.2-13 13.58-13 9.88 0 12.68 6.63 13.2 14.3l-8.3 1.43c-.19-4.94-.91-8.64-5.13-8.64-2.86 0-4.42 2.14-4.42 4.94 0 3.57 1.49 5.52 4.29 7.93l6.56 5.78c4.29 3.71 7.87 8.32 7.87 15.28 0 7.6-5.33 12.93-13.2 12.93-9.6.01-14.15-5.59-14.54-16.05z"/><path d="m259.5 97.25v-35.62h9.36v36.72c0 5 .59 9.49 5.46 9.49s5.53-4.48 5.53-9.49v-36.72h9.29v35.62c0 11-3.05 17.74-14.82 17.74s-14.82-6.69-14.82-17.74z"/><path d="m294.73 61.63h12.42c12.8 0 16.7 5.13 16.7 16.38v19.17c0 11.57-4 17.1-16.31 17.1h-12.81zm12.55 45.95c6.56 0 6.82-3.51 6.82-10.07v-20.15c0-6.31-.65-8.91-7-8.91h-2.86v39.13z"/><path d="m336.46 61.63h10.27l10.53 52.65h-8.9l-2.08-12.16h-9.17l-2.11 12.16h-9zm8.78 34.37-3.58-22.1-3.57 22.1z"/><path d="m360.57 61.63h9.56v23.14l10.47-23.14h9.16l-10.08 23.46 11.12 29.19h-9.56l-8.77-23.92-2.34 4v20h-9.56z"/><path d="m393.46 61.63h9.54v52.65h-9.49zm.46-14.3h8.58v8.9h-8.58z"/><path d="m237.08 180.19-10.66-32.56h9l6.5 20.86 6.08-20.86h8.77l-10.53 32.56v20.09h-9.16z"/><path d="m265.29 147.63h10.27l10.53 52.65h-8.91l-2.08-12.16h-9.16l-2.15 12.16h-9zm8.77 34.37-3.57-22.1-3.58 22.1z"/><path d="m303.12 201v3.25c4.81 0 8.06 2.15 8.06 6.18 0 4.61-4.1 6.56-8.84 6.56a16.87 16.87 0 0 1 -4.68-.71v-4.1a11.51 11.51 0 0 0 3.51.52c2.27 0 4-.65 4-2.4 0-2.34-2.66-3.19-5.72-3.51v-6c-7.6-1.11-11.24-6.57-11.57-15.86l8.26-1.63c.26 6.24 1.75 10.27 6 10.27 3.05 0 4.35-2.08 4.35-4.94 0-4.55-2.34-7.08-5.78-10.07l-6.71-5.78c-3.77-3.25-6.11-6.89-6.11-12.74 0-8.32 5.2-13 13.58-13 9.88 0 12.68 6.63 13.2 14.3l-8.26 1.43c-.19-4.94-.91-8.64-5.13-8.64-2.86 0-4.42 2.14-4.42 4.94 0 3.57 1.49 5.52 4.29 7.93l6.56 5.78c4.29 3.71 7.87 8.32 7.87 15.28.02 7.34-4.99 12.61-12.46 12.94z"/><path d="m326.91 147.63h10.27l10.53 52.65h-8.91l-2.08-12.16h-9.16l-2.15 12.16h-9zm8.77 34.37-3.57-22.1-3.58 22.1z"/><path d="m351.8 147.63h9.95l7.47 36.46 7.78-36.46h9.68l1 52.65h-7.15l-.78-36.6-7.48 36.6h-5.78l-7.61-36.73-.71 36.73h-7.22z"/><path d="m554.28 526.59c-9.13-12.33-68.11-87.53-150.8-87.53-71.8 0-148.61 65.13-148.61 65.13s-28.87-59.06-87.87-64.73c-.34 0-.71-.08-1.1-.08h-.37a2.4 2.4 0 0 0 -2.25 2.34 6.48 6.48 0 0 0 .92 2.16c7.61 12.63 27 48.56 27 84.46s-19.53 72-27.06 84.62l-.51.8a2.32 2.32 0 0 0 -.37 1.24 2.35 2.35 0 0 0 2.18 2.33l.63-.06a2.64 2.64 0 0 0 .62 0c59.21-5.52 88.17-64.76 88.17-64.76s76.81 65.13 148.61 65.13c82.69 0 141.67-75.19 150.8-87.5.25-.33.45-.63.63-.85a2.23 2.23 0 0 0 0-1.8c-.18-.25-.38-.54-.63-.85m-104.81 11.2a24.13 24.13 0 1 1 24.16-24.14 24.14 24.14 0 0 1 -24.16 24.14"/><path d="m249.45 371.66a2.78 2.78 0 0 1 .63-.65 2.5 2.5 0 0 1 1.3-.44 2.31 2.31 0 0 1 1.62.66.36.36 0 0 0 .11.1c45.07 43 92.36 8.14 102.2 0l1-.92a2.41 2.41 0 0 1 .89-.15 2.69 2.69 0 0 1 1 .15l1 .92c9.83 8.14 57.1 43 102.19 0 0 0 .05-.06.09-.1a2.25 2.25 0 0 1 1.59-.66 2.39 2.39 0 0 1 1.31.44 2.76 2.76 0 0 1 .67.65c8.74 8.6 46.49 41.11 86.44 6.39a2.31 2.31 0 0 0 .7-1.66v-16.5a2.35 2.35 0 0 0 -2.35-2.37 3.06 3.06 0 0 0 -.51.1l-1.2.6c-12.27 6.16-50.36 20.75-84.91-11.91-.32-.31-.66-.61-1-.95a1.91 1.91 0 0 0 -1-.23 1.43 1.43 0 0 0 -.72.18 2 2 0 0 0 -1.2.88c-10.29 7.84-57.57 39.86-99.68.58l-.62-.62a2.43 2.43 0 0 0 -1.71-.66 2.33 2.33 0 0 0 -1.64.66l-.65.62c-42.08 39.28-89.41 7.26-99.7-.58a1.91 1.91 0 0 0 -1.16-.88 1.58 1.58 0 0 0 -.76-.18 1.91 1.91 0 0 0 -1 .23c-.33.34-.67.64-1 .95-34.55 32.66-72.61 18.07-84.89 11.91l-1.21-.6a3.53 3.53 0 0 0 -.46-.1 2.36 2.36 0 0 0 -2.37 2.37v16.5a2.29 2.29 0 0 0 .68 1.66c39.92 34.72 77.72 2.21 86.46-6.39"/><path d="m165.13 297.73a2.17 2.17 0 0 0 -.45-.1 2.38 2.38 0 0 0 -2.37 2.4v16.45a2.34 2.34 0 0 0 .69 1.71c39.91 34.68 77.7 2.18 86.45-6.4a2 2 0 0 1 .63-.67 2.4 2.4 0 0 1 1.3-.43 2.3 2.3 0 0 1 1.61.63.28.28 0 0 0 .12.1c45.08 43 92.36 8.18 102.19 0l1-.88a2.1 2.1 0 0 1 .9-.18 2.22 2.22 0 0 1 .94.18l1 .88c9.83 8.18 57.11 43 102.19 0 0 0 .06-.05.09-.1a2.28 2.28 0 0 1 1.6-.63 2.36 2.36 0 0 1 1.31.43 2.22 2.22 0 0 1 .66.67c8.74 8.58 46.49 41.08 86.44 6.4a2.38 2.38 0 0 0 .69-1.71v-16.48a2.36 2.36 0 0 0 -2.34-2.4 2.3 2.3 0 0 0 -.51.1c-.37.21-.76.41-1.2.62-12.28 6.15-50.35 20.78-84.91-11.92-.33-.31-.67-.61-1-1a2.53 2.53 0 0 0 -1-.22 4.16 4.16 0 0 0 -.72.11 2.71 2.71 0 0 0 -1.2.94c-10.3 7.85-57.57 39.85-99.68.58l-.61-.6a2.63 2.63 0 0 0 -1.71-.71 2.52 2.52 0 0 0 -1.65.71l-.65.6c-42.08 39.27-89.41 7.27-99.7-.58a2.52 2.52 0 0 0 -1.17-.94 4.37 4.37 0 0 0 -.75-.11 2.68 2.68 0 0 0 -1 .22 13 13 0 0 1 -1 1c-34.56 32.7-72.62 18.07-84.9 11.92-.43-.21-.84-.41-1.22-.62"/></g></svg>