<svg viewBox="0 0 720 720" xmlns="http://www.w3.org/2000/svg"><path d="m-1.08-1.08h722.16v722.16h-722.16z" fill="#fcc30b"/><g fill="#fff"><path d="m89.12 81.79h-37.4v-20.06h63.07v17.17l-29.07 120.53h-25.5z"/><path d="m180 61.63h22.1v6.76h-12.59v15.14h9.88v6.7h-9.88v17.48h12.68v6.57h-22.19z"/><path d="m206.48 61.63h12.67c10.53 0 16.51 3.38 16.51 14 0 6.31-1.56 10.73-6.5 12.74l7.35 25.94h-9.62l-6.31-24.12h-4.58v24.12h-9.55zm12.61 22.55c5.52 0 7.54-2.4 7.54-8.06 0-5.33-1.5-7.93-7-7.93h-3.63v16z"/><path d="m241.9 61.63h9.49v52.65h-9.49zm.46-14.3h8.58v8.9h-8.58z"/><path d="m272.19 115v3.25c4.81 0 8.06 2.15 8.06 6.18 0 4.61-4.09 6.56-8.84 6.56a16.87 16.87 0 0 1 -4.68-.71v-4.1a11.61 11.61 0 0 0 3.51.52c2.28 0 4-.65 4-2.4 0-2.34-2.67-3.19-5.72-3.51v-6c-7.61-1.11-11.25-6.57-11.57-15.86l8.25-1.63c.26 6.24 1.76 10.27 6 10.27 3.06 0 4.36-2.08 4.36-4.94 0-4.55-2.34-7.08-5.79-10.07l-6.63-5.79c-3.82-3.24-6.14-6.88-6.14-12.77 0-8.32 5.2-13 13.59-13 9.88 0 12.67 6.63 13.19 14.3l-8.25 1.43c-.2-4.94-.91-8.64-5.14-8.64-2.86 0-4.42 2.14-4.42 4.94 0 3.57 1.5 5.52 4.29 7.93l6.57 5.78c4.29 3.71 7.86 8.32 7.86 15.28-.02 7.38-5.02 12.65-12.5 12.98z"/><path d="m289.29 61.63h9.49v52.65h-9.49zm.45-14.3h8.58v8.9h-8.58z"/><path d="m305.6 61.63h9.56v46.08h12.84v6.57h-22.4z"/><path d="m331.66 61.63h22.1v6.76h-12.54v15.14h9.88v6.7h-9.88v17.48h12.67v6.57h-22.23z"/><path d="m358.18 61.63h13c9.23 0 15.41 3.12 15.41 13.52 0 6.43-2.67 10-7.61 10.79 6.18 1.17 9.1 5.59 9.1 13 0 10.07-4.94 15.34-14.69 15.34h-15.21zm12.87 21.51c5.72 0 7.22-2.53 7.22-7.86 0-5.59-2.73-7-8.58-7h-1.95v14.86zm.39 24.38c5.85 0 7.48-2.73 7.48-8.65 0-6.24-2.08-9.1-7.8-9.1h-3.38v17.75z"/><path d="m393.35 61.63h9.49v52.65h-9.49zm.45-14.3h8.58v8.9h-8.58z"/><path d="m409.66 61.63h9.56v46.08h12.78v6.57h-22.34z"/><path d="m436 61.63h9.49v52.65h-9.49zm.45-14.3h8.55v8.9h-8.58z"/><path d="m452.3 61.63h12.7c10.53 0 16.51 3.38 16.51 14 0 6.31-1.56 10.73-6.5 12.74l7.34 25.94h-9.62l-6.3-24.12h-4.55v24.12h-9.58zm12.61 22.55c5.53 0 7.54-2.4 7.54-8.06 0-5.33-1.49-7.93-7-7.93h-3.57v16z"/><path d="m499.49 61.63h8.45l7 37.24 6.56-37.24h8.65l-10.6 52.65h-9.42z"/><path d="m534.2 61.63h22.1v6.76h-12.54v15.14h9.88v6.7h-9.88v17.48h12.67v6.57h-22.23z"/><path d="m185.22 154.71h-8.38v-7.08h26.16v7.08h-8.19v45.57h-9.62z"/><path d="m206.54 147.63h22.1v6.76h-12.54v15.14h9.9v6.7h-9.9v17.48h12.67v6.57h-22.23z"/><path d="m233.84 147.63h9.95l7.47 36.46 7.74-36.46h9.68l1 52.65h-7.15l-.78-36.6-7.48 36.6h-5.78l-7.61-36.73-.71 36.73h-7.22z"/><path d="m276.42 147.63h9.49v52.65h-9.49zm.45-14.3h8.58v8.9h-8.58z"/><path d="m291 194.1 14.1-39.84h-13.41v-6.63h23.08v4.94l-14.69 41.14h14.75v6.57h-23.83z"/><path d="m333.55 147.63h22.1v6.76h-12.55v15.14h9.9v6.7h-9.9v17.48h12.68v6.57h-22.23z"/><path d="m360.07 147.63h6.69l12.81 30v-30h7.93v52.65h-6.37l-12.87-31.46v31.46h-8.19z"/><path d="m394.19 147.63h22.1v6.76h-12.54v15.14h9.88v6.7h-9.88v17.48h12.67v6.57h-22.23z"/><path d="m420.71 147.63h12.68c10.53 0 16.51 3.38 16.51 14 0 6.31-1.56 10.73-6.5 12.74l7.34 25.94h-9.62l-6.3-24.12h-4.55v24.12h-9.56zm12.61 22.55c5.53 0 7.54-2.4 7.54-8.06 0-5.33-1.49-7.93-7-7.93h-3.57v16z"/><path d="m452.56 194.82c5.53 0 7-1 7-6.57v-40.62h9.55v40.88c0 8.84-2.53 13.07-11.89 13.07h-4.62z"/><path d="m476 147.63h9.49v52.65h-9.49zm.45-14.3h8.58v8.9h-8.58z"/><path d="m360.26 350.75a106.34 106.34 0 1 0 106.32 106.33 106.33 106.33 0 0 0 -106.32-106.33m-7.87 42c0-3.54 3.55-7.44 7.92-7.44s7.87 3.9 7.87 7.44v36.5c0 3.53-3.52 7.38-7.87 7.38s-7.92-3.85-7.92-7.38zm7.89 118.81a55.32 55.32 0 0 1 -16.43-108.13v20.57a36.21 36.21 0 1 0 32.77 0v-20.58a55.31 55.31 0 0 1 -16.34 108.15"/><path d="m238.21 456.15c0-4.82-4.27-8.72-8.17-8.72h-46.56c-3.93 0-8.24 3.9-8.24 8.72s4.31 8.76 8.24 8.76h46.52c3.9 0 8.17-3.93 8.17-8.76"/><path d="m545.34 456.15c0-4.82-4.28-8.72-8.18-8.72h-46.56c-3.92 0-8.23 3.9-8.23 8.72s4.31 8.76 8.23 8.76h46.56c3.9 0 8.18-3.93 8.18-8.76"/><path d="m360.31 641.21c4.81 0 8.72-4.27 8.72-8.17v-46.56c0-3.92-3.91-8.24-8.72-8.24s-8.77 4.32-8.77 8.24v46.52c0 3.9 3.94 8.17 8.77 8.17"/><path d="m520.9 548.07c2.39-4.18.63-9.7-2.76-11.63l-40.41-23.13c-3.4-1.95-9.09-.7-11.48 3.49s-.61 9.74 2.8 11.69l40.41 23.12c3.38 1.94 9 .65 11.44-3.54"/><path d="m268.39 616.78c4.18 2.39 9.69.62 11.63-2.76l23.13-40.41c2-3.41.7-9.09-3.49-11.48s-9.75-.61-11.69 2.79l-23.13 40.41c-1.93 3.38-.65 9 3.55 11.45"/><path d="m452.55 616.57c4.17-2.4 5.43-8.05 3.49-11.43l-23.21-40.36c-2-3.41-7.49-5.19-11.67-2.79s-5.45 8.1-3.48 11.51l23.2 40.36c1.95 3.38 7.47 5.12 11.67 2.71"/><path d="m199.89 548.43c2.4 4.17 8 5.43 11.43 3.49l40.35-23.21c3.41-2 5.21-7.49 2.8-11.67s-8.11-5.45-11.5-3.49l-40.37 23.21c-3.38 1.94-5.12 7.48-2.71 11.67"/><path d="m360.31 334.09c4.81 0 8.72-4.27 8.72-8.17v-46.56c0-3.93-3.91-8.24-8.72-8.24s-8.77 4.31-8.77 8.24v46.56c0 3.9 3.94 8.17 8.77 8.17"/><path d="m254.34 395.51c2.4-4.18.64-9.69-2.75-11.63l-40.41-23.12c-3.41-2-9.09-.71-11.49 3.47s-.6 9.75 2.8 11.7l40.41 23.13c3.39 1.94 9 .65 11.44-3.55"/><path d="m420.94 350.23c4.19 2.39 9.69.62 11.63-2.76l23.13-40.41c1.95-3.41.7-9.09-3.48-11.49s-9.75-.61-11.7 2.8l-23.12 40.41c-1.94 3.39-.66 9.05 3.54 11.45"/><path d="m299.45 350.33c4.17-2.4 5.43-8.05 3.49-11.43l-23.21-40.37c-2-3.4-7.49-5.19-11.67-2.78s-5.45 8.1-3.49 11.5l23.21 40.36c2 3.38 7.47 5.13 11.67 2.72"/><path d="m466.13 395.32c2.4 4.18 8.05 5.44 11.43 3.5l40.36-23.21c3.4-2 5.2-7.5 2.8-11.68s-8.1-5.44-11.51-3.48l-40.37 23.21c-3.38 1.94-5.12 7.48-2.71 11.66"/></g></svg>