<svg viewBox="0 0 720 720" xmlns="http://www.w3.org/2000/svg"><path d="m-1.08-1.08h722.16v722.16h-722.16z" fill="#c5192d"/><g fill="#fff"><path d="m94.73 167.13h-41.82v-20.4l35.87-85h30.43v85.51h13.43v19.89h-13.43v32.3h-24.48zm0-19.89v-58.48l-21.08 58.48z"/><path d="m189 61.63h6.7l12.8 30v-30h7.93v52.65h-6.43l-12.85-31.46v31.46h-8.15z"/><path d="m224.65 61.63h9.49v52.65h-9.49zm.45-14.3h8.58v8.9h-8.58z"/><path d="m247.53 68.71h-8.39v-7.08h26.2v7.08h-8.19v45.57h-9.62z"/><path d="m270.15 61.63h22.1v6.76h-12.55v15.14h9.88v6.7h-9.88v17.48h12.68v6.57h-22.23z"/><path d="m298 61.63h9.55v46.08h12.81v6.57h-22.36z"/><path d="m325.59 61.63h9.49v52.65h-9.49zm.46-14.3h8.58v8.9h-8.58z"/><path d="m343.21 61.63h9.55v23.14l10.47-23.14h9.16l-10.07 23.46 11.11 29.19h-9.55l-8.78-23.92-2.34 4v20h-9.55z"/><path d="m377.79 61.63h9.55v46.08h12.81v6.57h-22.36z"/><path d="m405.41 61.63h9.49v52.65h-9.49zm.46-14.3h8.58v8.9h-8.58z"/><path d="m189 139.63h22.1v6.76h-12.58v15.14h9.88v6.7h-9.88v17.48h12.67v6.57h-22.19z"/><path d="m215.94 174.92v-17.68c0-11.31 3.44-18.2 15-18.2 10.79 0 14.56 5.59 14.56 15.34v2.73h-9.16v-3c0-5.07-.52-8.06-5.27-8.06-5.07 0-5.46 4.1-5.46 8.91v22c0 5.46 1 8.91 5.72 8.91s5.79-3.64 5.79-9.36v-4.94h-5.66v-6.05h14.3v26.72h-6.24l-.65-5.14a8.87 8.87 0 0 1 -8.87 5.9c-10.42 0-14.06-7-14.06-18.08zm5.72-48.92h5c.07 3.18 1.24 4.81 4.36 4.81s4.35-1.76 4.35-4.81h5.07c0 5.78-3.18 9.49-9.42 9.49s-9.36-3.73-9.36-9.49z"/><path d="m253.38 139.63h9.49v52.65h-9.49zm.45-14.3h8.58v8.9h-8.58z"/><path d="m276.26 146.71h-8.39v-7.08h26.2v7.08h-8.19v45.57h-9.62z"/><path d="m299.14 139.63h9.49v52.65h-9.49zm.45-14.3h8.58v8.9h-8.58z"/><path d="m317.53 139.63h10l7.47 36.46 7.74-36.46h9.68l1 52.65h-7.22l-.78-36.6-7.48 36.6h-5.78l-7.61-36.73-.71 36.73h-7.22z"/><path d="m318.96 386.25-130.12-75.13v243.05l130.12 39.25z"/><path d="m333.27 386.75v206.76l130.96-39.37v-243.01z"/><path d="m539.4 549.86h-3.82l15.4 53.8 15.38-53.8h-3.82 3.82v-216.24h-3.82-3.82-4.06-7.66-3.77-3.83-3.82v216.24z"/><path d="m492.17 321.56-13.94-11.02v250.22l-144.58 46.71h-6.69-1.32-6.68l-143.93-40.21v-256.72l-13.96 11.02v255.49l157.23 43.53h7.34 1.32 7.35l145.05-46.06 12.81-3.77z"/><path d="m566.37 305a15.4 15.4 0 1 0 -30.79 0v16.6h30.79z"/></g></svg>