<svg viewBox="0 0 720 720" xmlns="http://www.w3.org/2000/svg"><path d="m-1.08-1.08h722.16v722.16h-722.16z" fill="#26bde2"/><g fill="#fff"><path d="m57.16 156.08v-49c0-26.82 7.48-47.08 37.06-47.08 25.33 0 34.68 12.41 34.85 34.85v2.38h-24.82c0-11.56-1.19-17.17-9.86-17.17-8.33 0-10.54 6.63-10.54 27.88v13.94c2.89-4.93 9.52-7.82 17.68-8 21.93-.34 29.75 16.83 29.75 39.61 0 28.05-8.84 47.77-36.89 47.77-26.39.04-37.23-19.17-37.23-45.18zm47.77 1.92c0-13.94-.34-24-10.54-24a12.6 12.6 0 0 0 -10.54 6.29v21.91c0 10.37 2.21 19.55 10.71 19.55 8.67 0 10.37-8.67 10.37-23.75z"/><path d="m194.23 68.71h-8.39v-7.08h26.16v7.08h-8.19v45.57h-9.62z"/><path d="m216.85 61.63h22.15v6.76h-12.6v15.14h9.88v6.7h-9.88v17.48h12.68v6.57h-22.23z"/><path d="m245.45 61.63h9.94l7.48 36.46 7.73-36.46h9.69l1 52.65h-7.15l-.78-36.6-7.47 36.6h-5.79l-7.6-36.73-.72 36.73h-7.21z"/><path d="m289.32 61.63h9.49v52.65h-9.49zm.46-14.3h8.58v8.9h-8.58z"/><path d="m305.18 108.1 14.11-39.84h-13.39v-6.63h23.1v4.94l-14.69 41.14h14.69v6.57h-23.82z"/><path d="m349.06 98.94 8.25-1.63c.26 6.24 1.76 10.27 6 10.27 3.06 0 4.36-2.08 4.36-4.94 0-4.55-2.34-7.08-5.79-10.07l-6.63-5.79c-3.77-3.25-6.11-6.89-6.11-12.74 0-8.32 5.2-13 13.59-13 9.88 0 12.67 6.63 13.19 14.3l-8.25 1.43c-.2-4.94-.91-8.64-5.14-8.64-2.86 0-4.42 2.14-4.42 4.94 0 3.57 1.5 5.52 4.29 7.93l6.6 5.78c4.29 3.71 7.86 8.32 7.86 15.28 0 7.6-5.33 12.93-13.19 12.93-9.67.01-14.22-5.59-14.61-16.05z"/><path d="m382.08 97.25v-35.62h9.36v36.72c0 5 .58 9.49 5.46 9.49s5.52-4.48 5.52-9.49v-36.72h9.3v35.62c0 11-3.06 17.74-14.82 17.74s-14.82-6.69-14.82-17.74z"/><path d="m432.58 61.63h8.42l7 37.24 6.57-37.24h8.65l-10.6 52.65h-9.42z"/><path d="m468.59 61.63h22.1v6.76h-12.55v15.14h9.86v6.7h-9.88v17.48h12.68v6.57h-22.21z"/><path d="m187.66 176.94 8.26-1.63c.26 6.24 1.75 10.27 6 10.27 3 0 4.35-2.08 4.35-4.94 0-4.55-2.34-7.08-5.78-10.07l-6.63-5.79c-3.77-3.25-6.11-6.89-6.11-12.74 0-8.32 5.2-13 13.58-13 9.88 0 12.68 6.63 13.2 14.3l-8.26 1.43c-.19-4.94-.91-8.64-5.13-8.64-2.86 0-4.42 2.14-4.42 4.94 0 3.57 1.49 5.52 4.29 7.93l6.57 5.78c4.29 3.71 7.86 8.32 7.86 15.28 0 7.6-5.33 12.93-13.19 12.93-9.65.01-14.2-5.59-14.59-16.05z"/><path d="m228.68 139.63h10.32l10.53 52.65h-8.91l-2.08-12.16h-9.16l-2.15 12.16h-9zm8.77 34.37-3.57-22.1-3.58 22.1z"/><path d="m254.74 139.63h6.7l12.8 30v-30h7.93v52.65h-6.37l-12.87-31.46v31.46h-8.19z"/><path d="m290.43 139.63h9.49v52.65h-9.49zm.45-14.3h8.58v8.9h-8.58z"/><path d="m313.31 146.71h-8.39v-7.08h26.2v7.08h-8.19v45.57h-9.62z"/><path d="m342.49 139.63h10.27l10.53 52.65h-8.9l-2.08-12.16h-9.17l-2.14 12.16h-9zm8.78 34.37-3.58-22.1-3.57 22.1z"/><path d="m367 176.94 8.25-1.63c.26 6.24 1.76 10.27 6 10.27 3.06 0 4.36-2.08 4.36-4.94 0-4.55-2.34-7.08-5.79-10.07l-6.63-5.79c-3.77-3.25-6.11-6.89-6.11-12.74 0-8.32 5.2-13 13.59-13 9.88 0 12.67 6.63 13.19 14.3l-8.25 1.43c-.2-4.94-.91-8.64-5.14-8.64-2.86 0-4.42 2.14-4.42 4.94 0 3.57 1.5 5.52 4.29 7.93l6.57 5.78c4.29 3.71 7.86 8.32 7.86 15.28 0 7.6-5.33 12.93-13.19 12.93-9.64.01-14.19-5.59-14.58-16.05z"/><path d="m407.49 172.19-10.66-32.56h9l6.5 20.86 6.11-20.86h8.78l-10.53 32.56v20.09h-9.17z"/><path d="m430.44 175.77v-19.77c0-10.66 3.9-17 15.21-17s15.14 6.31 15.14 17v19.76c0 10.59-3.9 17.22-15.14 17.22s-15.21-6.55-15.21-17.21zm20.56 2.23v-24.2c0-4.42-.71-7.74-5.39-7.74s-5.46 3.32-5.46 7.74v24.2c0 4.36.71 7.87 5.46 7.87s5.39-3.47 5.39-7.87z"/><path d="m467.88 139.63h6.69l12.81 30v-30h7.93v52.65h-6.37l-12.88-31.46v31.46h-8.18z"/><path d="m493.61 290.61a3.15 3.15 0 0 0 -2.38-1h-263.23a3.2 3.2 0 0 0 -2.37 1 3.24 3.24 0 0 0 -.66 2.49l44.22 267.44a3.09 3.09 0 0 0 3 2.58h54.27l3.71 43.56h-22.84l53.14 53.14 53.27-53.25h-22.83l3.7-43.49h55.23a3 3 0 0 0 3-2.62l41.37-267.4a3.15 3.15 0 0 0 -.6-2.45zm-101.72 214.11a42.26 42.26 0 0 1 -31.41 10.95 42.24 42.24 0 0 1 -31.43-10.95c-19.72-19.7-12.69-44.21-5.82-56.88 4.23-7.93 34.53-53.42 37.14-57.29v-.31l.11.15.11-.15v.31c2.54 3.87 32.88 49.36 37.12 57.29 6.87 12.67 13.88 37.16-5.82 56.88zm83.49-157.84c-7.13-3.14-16.17-2-24.85 1.51-32.66 13.24-54.89 18-89.24 7.24-21.63-6.77-41.86-20.95-65.79-12.32-15.87 5.71-30.67 11.16-48.62 11l-10.36-53.15h246.32z"/></g></svg>