<svg viewBox="0 0 720 720" xmlns="http://www.w3.org/2000/svg"><path d="m-.59-.59h721.18v721.18h-721.18z" fill="#3f7e44" transform="matrix(0 -1 1 0 -.49 719.51)"/><g fill="#fff"><path d="m51.12 88.93c-4.12 2.21-15.81 5.44-19.89 7.48v-19.55c5.44-2.21 20.57-9.52 25.67-15.13h20.57v137.7h-26.35z"/><path d="m80 160.16v-4.76h26.2v4.6c.17 13.43 2.55 19.72 11.22 19.72 8.84 0 10.71-6.8 10.71-19.89 0-13.77-3.23-21.59-15.3-21.93a29.18 29.18 0 0 0 -4.59-.17v-19.22h4.08c12.24 0 15.81-6.29 15.81-20.4 0-11-2.55-17.34-11.22-17.34s-10.54 7.48-10.71 18.23v6.12h-26.2v-7.52c0-24.14 13.6-37.74 36.89-37.74 23.46 0 37.06 12.92 37.06 36.89 0 16.15-7.48 27.37-17.34 30.09 10 3.74 17.34 12.92 17.34 32.47 0 25-10 42.5-36.89 42.5-27.52 0-37.06-16.66-37.06-41.65z"/><path d="m232 61.63h9.49v52.65h-9.49zm.46-14.3h8.54v8.9h-8.58z"/><path d="m247.66 61.63h9.55v23.14l10.47-23.14h9.16l-10.07 23.46 11.11 29.19h-9.55l-8.78-23.92-2.34 4v20h-9.55z"/><path d="m280.29 61.63h9.55v46.08h12.81v6.57h-22.36z"/><path d="m306 61.63h9.49v52.65h-9.49zm.46-14.3h8.54v8.9h-8.58z"/><path d="m322.4 61.63h10l7.48 36.46 7.73-36.46h9.69l1 52.65h-7.15l-.78-36.6-7.47 36.6h-5.9l-7.6-36.73-.72 36.73h-7.22z"/><path d="m231.73 147.63h22.1v6.76h-12.54v15.14h9.88v6.7h-9.88v17.48h12.71v6.57h-22.27z"/><path d="m265 180.19-10.66-32.56h9l6.5 20.86 6.11-20.86h8.77l-10.53 32.56v20.09h-9.19z"/><path d="m287.31 147.63h9.55v46.08h12.81v6.57h-22.36z"/><path d="m312.72 147.63h22.1v6.76h-12.54v15.14h9.88v6.7h-9.88v17.48h12.72v6.57h-22.28z"/><path d="m339.37 147.63h9.94l7.48 36.46 7.74-36.46h9.68l1 52.65h-7.21l-.78-36.6-7.48 36.6h-5.74l-7.61-36.73-.72 36.73h-7.21z"/><path d="m381.29 147.63h9.49v52.65h-9.49zm.46-14.3h8.58v8.9h-8.58z"/><path d="m631.58 451.81c-19.08-26.81-105.39-133.99-266.1-134.21s-247.32 106.7-266.48 133.49q-1.23 1.71-2.1 3c.58.87 1.27 1.86 2.09 3 19.1 26.82 105.39 134 266.13 134.2s247.3-106.72 266.45-133.49c.84-1.16 1.53-2.14 2.08-3-.55-.84-1.24-1.83-2.07-3m-355.85-66.64c1.45-2.12 6.27-8.18 6.86-9 1.24-1.59 3.7-1.91 5.42-2.22s4 .64 4.25 1.92-.66 6.26-1.51 7.12c-2.36 2.44-8.5 5.88-11.88 5.34-2.61-.41-3.64-2.44-3.14-3.21m-5.73 11.46c.25-.3.48-.55.58-.67 2-2.3 6.05-2.79 8.83-3.22s6.5.93 6.95 2.79-7 5.21-8.36 6.47c-3.87 3.56-9.94 10.81-13.48 11.58a4.21 4.21 0 0 1 -2.89-.3 111.27 111.27 0 0 1 8.37-16.65m60 123.48c-2.19 8.56-4.73 11.64-6.9 14.33s-10.19 6.2-15.28 5.82-5.78-14-5.77-21c0-2.42-3.42 4.74-5.19-9.81-1.12-9.32-7.12 1-7.53-5.25s-3.4-5-6.54-8.85-7 .37-11.39 2.32-2.56 3-8.73 1c-.16-.05-.24-.09-.39-.15a111.55 111.55 0 0 1 -8.74-43.59c0-3.78.21-7.49.57-11.17a7 7 0 0 1 .69-1c5.94-7 5.81-8.64 5.81-8.64l6.55-2.26a110 110 0 0 1 18.33 4.6c6.49 2.45 16.71 8 22.65 5.55 4.3-1.77 7.67-4.11 7.27-7.69-.48-4.49-4-5.56-8.3-2.54-1.58 1.11-4.93-6.77-7.57-6.38s3.25 9.27 1 9.64-6.74-9.25-7.51-10.81-4.23-5.42-7.36-2.48c-6.61 6.27-17.33 5.87-19.49 7.48-6.56 4.9-8.28-1.62-8.13-5.59.26-.91.53-1.83.82-2.72 2.15-2.36 9.83-3.13 12.47-1.37 2.89 1.94 5-.49 6.1-1.66s.75-3 0-4.55 1.45-2.7 2.95-3.09 6.51-3.89 8.5-5.05 12.36-2.4 17-.07a9 9 0 0 0 11.18-2.24 30 30 0 0 1 8.12-6.76c1.63-.75-4-6-8.61-.29s-7 6.2-9.17 6.2-15.09-3.25-16.68-7.34 4-7.13 8.83-9.43 17.82-2.22 21.16-3c6.78-1.48 15.46-4.88 19.83-1.9s-18.26 8.05-10.84 12.07c2.64 1.45 14.6-6.86 18.69-9 9.64-4.95-9.32-6.62-6.85-16.71 2.8-11.41-23.25-7-36.24-6.08a111.94 111.94 0 0 1 169.07 68.41 18.6 18.6 0 0 1 -.55 5.18c-1 4-8.68 7.49-13.12 1-1.12-1.64-5.92-6.18-5.77 1.57s7.53 8.57.37 13.22-8.47 3.52-11.78 4.69-6.51 9.15-5.73 13.43 11 16 3.42 15.47c-1.78-.14-15.15-9.29-17.35-15.17-2.32-6.19-4.85-12.25-6.65-16.92s-6.54-5.84-10.55-3.11 1.11 5.45-1.77 11.28-4.91 11-9.11 6.2c-10.91-12.54-26.8-6.39-29.27-20.32-1.34-7.56-7.84-6.84-13.28-11.13s-8.5-6.58-9.42-3.5c-.82 2.7 17.09 16.93 18.36 20.58 1.89 5.41-5.38 10.17-10.71 11.44s-7.62-3-12.83-8.43-7.49-9.32-7.86-5.06c-.53 6.16 4.94 15.22 10.25 18.61 4.52 2.87 9.6 4.18 8.12 8.83s0 2-5.11 7-6.06 6.67-5.7 13.63-1.46 7.4-2.56 13.21-3.62.78-5.82 9.3m120.16-44.48c3.77-.3 9.41 4.92 7.2 6.92s-7.85 1.25-10.67-1 1.78-5.82 3.47-5.95m-4.75-3.45c-1.21-.45-2.27-1.6-3.18-4.35s1.4-4.31 3.66-3.2 5.27 4.6 5.27 6.43-4.52 1.61-5.75 1.12m-49.37-.18c-2.22 2-7.88 1.24-10.71-1s1.8-5.82 3.48-5.95c3.77-.33 9.42 4.94 7.23 6.93m-45.8 22.16c-1.54 2.52-5.78 21.34-8.6 19.14s1.17-21.83 2-23.32c4.43-8.11 14-7.7 6.61 4.18m15.12 73a112.17 112.17 0 0 1 -31.46-4.56 4.61 4.61 0 0 1 -1.35-5.47c3.48-9 13.8-12.55 21.95-13.32 18.15-1.75 42 11.84 45.8 9.66s11.49-12.15 22.76-11.72c7.68.31 7.62 1.6 10.2 2.57a111.54 111.54 0 0 1 -67.91 22.84m79-32.49a19.5 19.5 0 0 1 -3.51-1.3c-6.11-3.12-5.38 1.85-8.39.75s3.41-8.09-5.63-2.2-6.56-.92-10.47-10.89 4.55-21.32 11.68-23.87c9.73-3.51 15.77-4.22 20.33-5.34 13.46-3.34 16.31-11.32 18.75-6.46.46.91.9 1.78 1.3 2.59a17.62 17.62 0 0 1 1.72 7.3 112 112 0 0 1 -25.72 39.46m30.75-56.48c-3-.83-15.55-18.22-5.6-29.65 1.66-1.88-3.32-7.41-2-7.52 5.44-.42 8.33 3 9.75 7.83.1 2.14.19 4.3.18 6.49a113.17 113.17 0 0 1 -2.37 22.85"/></g></svg>