<svg viewBox="0 0 720 720" xmlns="http://www.w3.org/2000/svg"><path d="m-1.08-1.08h722.16v722.16h-722.16z" fill="#00689d"/><g fill="#fff"><path d="m49.12 88.93c-4.12 2.21-15.81 5.44-19.89 7.48v-19.55c5.44-2.21 20.57-9.52 25.67-15.13h20.57v137.7h-26.35z"/><path d="m80.57 156.08v-49c0-26.82 7.48-47.08 37.06-47.08 25.33 0 34.68 12.41 34.85 34.85v2.38h-24.82c0-11.56-1.19-17.17-9.86-17.17-8.33 0-10.54 6.63-10.54 27.88v13.94c2.89-4.93 9.52-7.82 17.68-8 21.93-.34 29.75 16.83 29.75 39.61 0 28.05-8.84 47.77-36.89 47.77-26.35.04-37.23-19.17-37.23-45.18zm47.77 1.92c0-13.94-.34-24-10.54-24a12.6 12.6 0 0 0 -10.54 6.29v21.91c0 10.37 2.21 19.55 10.71 19.55 8.67 0 10.37-8.67 10.37-23.75z"/><path d="m229.73 61.63h13c9.23 0 15.41 3.12 15.41 13.52 0 6.43-2.67 10-7.61 10.79 6.18 1.17 9.1 5.59 9.1 13 0 10.07-4.94 15.34-14.69 15.34h-15.21zm12.87 21.51c5.72 0 7.22-2.53 7.22-7.86 0-5.59-2.73-7-8.58-7h-2v14.86zm.39 24.38c5.85 0 7.48-2.73 7.48-8.65 0-6.24-2.08-9.1-7.8-9.1h-3.38v17.75z"/><path d="m272.44 61.63h10.27l10.53 52.65h-8.91l-2.08-12.16h-9.16l-2.15 12.16h-9zm8.77 34.37-3.57-22.1-3.58 22.1z"/><path d="m297.2 61.63h12.68c10.53 0 16.51 3.38 16.51 14 0 6.31-1.56 10.73-6.5 12.74l7.34 25.94h-9.62l-6.3-24.12h-4.55v24.12h-9.56zm12.61 22.55c5.53 0 7.54-2.4 7.54-8.06 0-5.33-1.49-7.93-7-7.93h-3.57v16z"/><path d="m332.62 61.63h9.5v52.65h-9.5z"/><path d="m362.91 115v3.25c4.82 0 8.07 2.15 8.07 6.18 0 4.61-4.1 6.56-8.85 6.56a16.92 16.92 0 0 1 -4.68-.71v-4.1a11.61 11.61 0 0 0 3.51.52c2.28 0 4-.65 4-2.4 0-2.34-2.67-3.19-5.72-3.51v-6c-7.61-1.11-11.25-6.57-11.57-15.86l8.25-1.63c.27 6.24 1.76 10.27 6 10.27 3.06 0 4.36-2.08 4.36-4.94 0-4.55-2.34-7.08-5.78-10.07l-6.64-5.79c-3.86-3.24-6.16-6.88-6.16-12.77 0-8.32 5.2-13 13.59-13 9.88 0 12.68 6.63 13.2 14.3l-8.26 1.43c-.2-4.94-.91-8.64-5.14-8.64-2.85 0-4.42 2.14-4.42 4.94 0 3.57 1.5 5.52 4.29 7.93l6.57 5.78c4.29 3.71 7.87 8.32 7.87 15.28 0 7.38-5.01 12.65-12.49 12.98z"/><path d="m379 119.87a5.39 5.39 0 0 0 4.22-5.59h-4.68v-8.78h8.65v8c0 5.59-2.41 8.64-7.28 9.55z"/><path d="m414.65 61.63h10.27l10.53 52.65h-8.9l-2.08-12.16h-9.17l-2.14 12.16h-9zm8.78 34.37-3.58-22.1-3.57 22.1z"/><path d="m439.42 61.63h12.41c12.81 0 16.71 5.13 16.71 16.38v19.17c0 11.57-4 17.1-16.32 17.1h-12.8zm12.58 45.95c6.57 0 6.83-3.51 6.83-10.07v-20.15c0-6.31-.65-8.91-7-8.91h-2.83v39.13z"/><path d="m481.8 61.63h10.27l10.53 52.65h-8.91l-2.08-12.16h-9.16l-2.15 12.16h-9zm8.77 34.37-3.57-22.09-3.58 22.09z"/><path d="m506.56 61.63h9.56v46.08h12.8v6.57h-22.36z"/><path d="m532.63 61.63h22.1v6.76h-12.55v15.14h9.88v6.7h-9.88v17.48h12.68v6.57h-22.23z"/><path d="m564.41 68.71h-8.41v-7.08h26.19v7.08h-8.19v45.57h-9.62z"/><path d="m227.26 147.63h8.45l7 37.24 6.56-37.24h8.65l-10.6 52.65h-9.42z"/><path d="m262 147.63h22.1v6.76h-12.57v15.14h9.88v6.7h-9.88v17.48h12.67v6.57h-22.2z"/><path d="m302.14 182.92v-17.68c0-11.31 3.45-18.2 15-18.2 10.79 0 14.56 5.59 14.56 15.34v2.73h-9.17v-3c0-5.07-.52-8.06-5.26-8.06-5.07 0-5.46 4.1-5.46 8.91v22c0 5.46 1 8.91 5.72 8.91s5.78-3.64 5.78-9.36v-4.94h-5.65v-6.05h14.34v26.72h-6.24l-.65-5.14c-1.43 3.38-4 5.85-8.91 5.85-10.42.05-14.06-6.95-14.06-18.03z"/><path d="m337.63 183.25v-35.62h9.37v36.72c0 5 .59 9.49 5.46 9.49s5.53-4.48 5.53-9.49v-36.72h9.29v35.62c0 11.05-3 17.74-14.82 17.74s-14.83-6.69-14.83-17.74zm4.61-50.7h7.76v8.45h-7.8zm12.75 0h7.79v8.45h-7.78z"/><path d="m392.69 166.61v-4.55c0-4.42-.07-8-4.95-8s-5.39 3.77-5.39 8.58v22.82c0 5.72 1.17 8.45 5.39 8.45 4.75 0 4.95-3.71 4.95-8.39v-4.74h9.22v4.22c0 8.91-2.85 15.47-12.93 16v3.25c4.81 0 8.06 2.15 8.06 6.18-.04 4.57-4.04 6.57-8.84 6.57a16.87 16.87 0 0 1 -4.68-.71v-4.1a11.51 11.51 0 0 0 3.51.52c2.27 0 4-.65 4-2.4 0-2.34-2.66-3.19-5.72-3.51v-5.92c-9.62-1-12.61-7.93-12.61-17.42v-18.8c0-10.79 3.45-17.62 15-17.62 10.79 0 14.23 6 14.23 15.15v4.42z"/><path d="m407.31 147.63h9.55v46.08h12.81v6.57h-22.36z"/><path d="m432.46 183.25v-35.62h9.36v36.72c0 5 .59 9.49 5.46 9.49s5.53-4.48 5.53-9.49v-36.72h9.29v35.62c0 11.05-3.05 17.74-14.82 17.74s-14.82-6.69-14.82-17.74zm4.62-50.7h7.8v8.45h-7.8zm12.74 0h7.8v8.45h-7.8z"/><path d="m229.73 233.63h9.56v23.14l10.46-23.14h9.17l-10.08 23.46 11.16 29.19h-9.6l-8.77-23.92-2.34 4v20h-9.56z"/><path d="m262.49 269.25v-35.62h9.36v36.72c0 5 .59 9.49 5.46 9.49s5.53-4.48 5.53-9.49v-36.72h9.29v35.62c0 11.05-3.05 17.74-14.82 17.74s-14.82-6.69-14.82-17.74z"/><path d="m298.37 233.63h12.68c10.53 0 16.51 3.38 16.51 14 0 6.31-1.56 10.73-6.5 12.74l7.34 25.94h-9.62l-6.3-24.12h-4.55v24.12h-9.56zm12.63 22.55c5.53 0 7.54-2.4 7.54-8.06 0-5.33-1.49-7.93-7-7.93h-3.57v16z"/><path d="m333 269.25v-35.62h9.36v36.72c0 5 .59 9.49 5.46 9.49s5.53-4.48 5.53-9.49v-36.72h9.29v35.62c0 11.05-3 17.74-14.82 17.74s-14.82-6.69-14.82-17.74z"/><path d="m369.61 233.63h9.95l7.44 36.46 7.74-36.46h9.68l1 52.65h-7.15l-.78-36.6-7.49 36.6h-5.78l-7.61-36.73-.71 36.73h-7.2z"/><path d="m411.93 233.63h9.55v46.08h12.81v6.57h-22.36z"/><path d="m445.86 233.63h10.27l10.53 52.65h-8.91l-2.08-12.16h-9.17l-2.14 12.16h-9zm8.77 34.37-3.57-22.1-3.58 22.1z"/><path d="m470.62 233.63h12.67c10.54 0 16.52 3.38 16.52 14 0 6.31-1.57 10.73-6.51 12.74l7.35 25.94h-9.65l-6.31-24.12h-4.55v24.12h-9.55zm12.61 22.55c5.52 0 7.54-2.4 7.54-8.06 0-5.33-1.49-7.93-7-7.93h-3.58v16z"/><path d="m478.8 327.34s-7 9.35-5 18.46 12.45 14.53 12.45 14.53 7.05-9.35 5-18.46-12.44-14.53-12.44-14.53"/><path d="m467.32 380.74s7.05-9.36 5-18.47-12.44-14.52-12.44-14.52-7.05 9.34-5 18.46 12.45 14.53 12.45 14.53"/><path d="m496.26 370.73s7.44 7.5 15.91 6.74 14.75-9.47 14.75-9.47-7.43-7.5-15.91-6.75-14.75 9.47-14.75 9.47"/><path d="m508.45 330.67c-6.89 7-5.92 19.36-5.92 19.36s12.15 1.05 19.05-5.93 5.92-19.36 5.92-19.36-12.16-1.05-19.05 5.93"/><path d="m493.25 398.53c8.43 1 16.37-6.25 16.37-6.25s-5.75-8.86-14.18-9.86-16.38 6.26-16.38 6.26 5.75 8.85 14.19 9.85"/><path d="m500.78 534.19h-63.07a8.92 8.92 0 1 0 0 17.84h63.07a8.92 8.92 0 1 0 0-17.84"/><path d="m500.78 632.54h-63.07a8.93 8.93 0 1 0 0 17.85h63.07a8.93 8.93 0 0 0 0-17.85"/><path d="m217.12 512.52a40.28 40.28 0 0 0 -4.38-1.12s1.62.5 4.38 1.12"/><path d="m498.46 558.26h-58.46a5.09 5.09 0 0 0 -5.08 5.08v17.66l-38.15 4.19-55.77-1.19v-34.09a153.27 153.27 0 0 0 22.18-4.5c53.65-15.14 65.35-48.56 64.19-79.25-1.17-31.26 8.83-43.4 23.21-48.8a64.77 64.77 0 0 1 11.91-3.16c.16 7.68 1.72 16.61 5.15 27.24 1.27-.07 2.54-.17 3.8-.31-3.62-10.88-5.17-19.83-5.25-27.46a66.43 66.43 0 0 1 12.72-.38 81.08 81.08 0 0 1 -12.11-8.63c2.41-14.8 11.23-23.89 20.31-33.18 5-5.12 10.16-10.4 14.22-16.7l-3.16-2c-3.85 6-8.9 11.12-13.76 16.1-8.86 9.07-17.8 18.33-20.83 33a118.36 118.36 0 0 1 -9.19-9.25c-13.23-14.83-30.26-3.93-54.55 18.68s-54.86 23.38-84.7-7.15c-39.38-40.32-73.73-40.09-97.28-37.8 16.11 6.87 21.75 21.92 29.91 60.19 8.54 40.16 30.1 58.32 59.58 60.83-13.66 2.22-17.21 4.11-39.18 19.29-17.16 11.84-41.3 8.1-51.09 5.87 18 5.6 39.25 24.45 58.29 31a140.74 140.74 0 0 0 34.75 7.13v32.59l-105.7-2.26v22.74l192.36-4.27 38.15 4.2v17.69a5.09 5.09 0 0 0 5.08 5.08h58.45a5.09 5.09 0 0 0 5.09-5.08v-58a5.09 5.09 0 0 0 -5.09-5.1zm-179.12-7.13q6.24.11 12.51-.34v33l-12.51-.29z"/><path d="m199 600c0 4.79-3.35 8.68-7.47 8.68h-4.53c-4.12 0-7.48-3.89-7.48-8.68v-15.77c0-4.8 3.36-8.68 7.48-8.68h4.49c4.12 0 7.47 3.88 7.47 8.68z"/></g></svg>