<svg viewBox="0 0 720 720" xmlns="http://www.w3.org/2000/svg"><path d="m-1.08-1.08h722.16v722.16h-722.16z" fill="#ff3a21"/><g fill="#fff"><path d="m55.63 159.48h25.5c0 15.13 1.87 23 11.39 22.61 10-.34 10.54-11.56 10.54-29.58 0-14.62-1.53-25-11.73-25-6.12 0-10 4.25-11.73 12.41h-22.6l1.87-78.2h63.23v22.62h-41.82l-1.36 30.43c2.72-3.4 9.69-6.12 17.34-6.63 21.25-1.87 31.62 15 31.62 43.18 0 29.24-5.61 50.32-36.89 50.32-29.07 0-35.36-16.64-35.36-42.16z"/><path d="m194.23 68.71h-8.39v-7.08h26.16v7.08h-8.19v45.57h-9.62z"/><path d="m215.74 97.77v-19.77c0-10.66 3.9-17 15.21-17s15.15 6.31 15.15 17v19.77c0 10.59-3.9 17.22-15.15 17.22s-15.21-6.56-15.21-17.22zm20.61 2.23v-24.2c0-4.42-.72-7.74-5.4-7.74s-5.46 3.32-5.46 7.74v24.2c0 4.36.72 7.87 5.46 7.87s5.4-3.47 5.4-7.87z"/><path d="m253.18 61.63h15.47c9.43 0 13.46 5.46 13.46 14.95 0 10.33-5.59 14.3-14.11 14.3h-5.26v23.4h-9.56zm13.26 22.49c5.27 0 6.63-2 6.63-7.61s-.71-8.12-6.63-8.12h-3.7v15.73z"/><path d="m287.44 61.63h9.56v46.08h12.8v6.57h-22.36z"/><path d="m313.89 97.25v-35.62h9.36v36.72c0 5 .59 9.49 5.46 9.49s5.53-4.48 5.53-9.49v-36.72h9.29v35.62c0 11-3 17.74-14.82 17.74s-14.82-6.69-14.82-17.74z"/><path d="m351.85 61.63h9.95l7.47 36.46 7.73-36.46h9.68l1 52.65h-7.15l-.78-36.6-7.48 36.6h-5.78l-7.61-36.73-.71 36.73h-7.22z"/><path d="m393.78 98.94 8.22-1.63c.26 6.24 1.76 10.27 6 10.27 3.06 0 4.36-2.08 4.36-4.94 0-4.55-2.34-7.08-5.79-10.07l-6.57-5.79c-3.77-3.25-6.11-6.89-6.11-12.74 0-8.32 5.2-13 13.59-13 9.88 0 12.67 6.63 13.19 14.3l-8.25 1.43c-.2-4.94-.91-8.64-5.14-8.64-2.86 0-4.42 2.14-4.42 4.94 0 3.57 1.5 5.52 4.29 7.93l6.57 5.78c4.29 3.71 7.86 8.32 7.86 15.28 0 7.6-5.33 12.93-13.19 12.93-9.67.01-14.22-5.59-14.61-16.05z"/><path d="m434.79 61.63h10.27l10.53 52.65h-8.9l-2.08-12.16h-9.17l-2.14 12.16h-9zm8.78 34.37-3.57-22.09-3.58 22.09z"/><path d="m460.85 61.63h9.56v46.08h12.81v6.57h-22.37z"/><path d="m188.12 175.44v-18.78c0-10.79 3.44-17.62 15-17.62 10.79 0 14.24 6 14.24 15.15v4.42h-9.23v-4.55c0-4.42-.07-8-4.94-8s-5.4 3.77-5.4 8.58v22.82c0 5.72 1.17 8.45 5.4 8.45 4.74 0 4.94-3.71 4.94-8.39v-4.74h9.23v4.22c0 9.3-3.12 16-14.24 16-11.56 0-15-7.29-15-17.56z"/><path d="m224.32 139.63h9.49v52.65h-9.49zm.46-14.3h8.58v8.9h-8.58z"/><path d="m241.94 139.63h6.69l12.81 30v-30h7.93v52.65h-6.37l-12.87-31.46v31.46h-8.19z"/><path d="m276.06 176.94 8.26-1.63c.26 6.24 1.75 10.27 6 10.27 3.05 0 4.35-2.08 4.35-4.94 0-4.55-2.34-7.08-5.78-10.07l-6.63-5.79c-3.77-3.25-6.11-6.89-6.11-12.74 0-8.32 5.2-13 13.58-13 9.88 0 12.68 6.63 13.2 14.3l-8.26 1.43c-.19-4.94-.91-8.64-5.13-8.64-2.86 0-4.42 2.14-4.42 4.94 0 3.57 1.49 5.52 4.29 7.93l6.56 5.78c4.29 3.71 7.87 8.32 7.87 15.28 0 7.6-5.33 12.93-13.2 12.93-9.64.01-14.19-5.59-14.58-16.05z"/><path d="m309.73 139.63h9.49v52.65h-9.49zm.46-14.3h8.58v8.9h-8.58z"/><path d="m334.69 172.19-10.69-32.56h9l6.5 20.86 6.11-20.86h8.78l-10.53 32.56v20.09h-9.17z"/><path d="m359 139.63h22.1v6.76h-12.54v15.14h9.88v6.7h-9.88v17.48h12.67v6.57h-22.23z"/><path d="m392.09 146.71h-8.39v-7.08h26.2v7.08h-8.19v45.57h-9.62z"/><path d="m430.5 139.63h22.1v6.76h-12.54v15.14h9.88v6.7h-9.88v17.48h12.67v6.57h-22.23z"/><path d="m472.3 193v3.25c4.81 0 8.06 2.15 8.06 6.18 0 4.61-4.1 6.56-8.85 6.56a16.86 16.86 0 0 1 -4.67-.71v-4.1a11.49 11.49 0 0 0 3.5.52c2.28 0 4-.65 4-2.4 0-2.34-2.66-3.19-5.72-3.51v-6c-7.6-1.11-11.25-6.57-11.57-15.86l8.25-1.63c.26 6.24 1.76 10.27 6 10.27 3.05 0 4.35-2.08 4.35-4.94 0-4.55-2.34-7.08-5.78-10.07l-6.64-5.79c-3.77-3.25-6.1-6.89-6.1-12.74 0-8.32 5.19-13 13.58-13 9.88 0 12.68 6.63 13.2 14.3l-8.26 1.43c-.19-4.94-.91-8.64-5.13-8.64-2.87 0-4.42 2.14-4.42 4.94 0 3.57 1.49 5.52 4.28 7.93l6.57 5.78c4.29 3.71 7.87 8.32 7.87 15.28-.04 7.35-5.05 12.62-12.52 12.95z"/><path d="m490.69 139.63h9.49v52.65h-9.49zm.45-14.3h8.58v8.9h-8.58z"/><path d="m513.57 146.71h-8.39v-7.08h26.2v7.08h-8.19v45.57h-9.62z"/><path d="m536.19 139.63h9.55v46.08h12.81v6.57h-22.36z"/><path d="m563.81 139.63h9.49v52.65h-9.49zm.46-14.3h8.58v8.9h-8.58z"/><path d="m580.58 174.92v-17.68c0-11.31 3.45-18.2 15-18.2 10.79 0 14.56 5.59 14.56 15.34v2.73h-9.14v-3c0-5.07-.52-8.06-5.26-8.06-5.07 0-5.46 4.1-5.46 8.91v22c0 5.46 1 8.91 5.72 8.91s5.78-3.64 5.78-9.36v-4.94h-5.65v-6.05h14.3v26.72h-6.24l-.65-5.14c-1.43 3.38-4 5.85-8.91 5.85-10.41.05-14.05-6.95-14.05-18.03zm5.72-48.92h5c.06 3.18 1.23 4.81 4.35 4.81s4.35-1.81 4.35-4.81h5.07c0 5.78-3.19 9.49-9.43 9.49s-9.34-3.73-9.34-9.49z"/><path d="m618 139.63h9.49v52.65h-9.49zm.46-14.3h8.58v8.9h-8.58z"/><path d="m525.68 271.77h-90.16a1.15 1.15 0 0 0 -1.15 1.14v30a1.16 1.16 0 0 0 1.15 1.15h35.9l-39.86 39.84a118 118 0 0 0 -190.91 92.88c0 60 44.92 109.57 102.85 117.08v34.52h-35.56a1.14 1.14 0 0 0 -1.16 1.14v32.12a1.13 1.13 0 0 0 1.16 1.14h35.56v34a1.14 1.14 0 0 0 1.15 1.15h32.1a1.15 1.15 0 0 0 1.16-1.15v-34h35.56a1.13 1.13 0 0 0 1.14-1.14v-32.12a1.14 1.14 0 0 0 -1.14-1.14h-35.56v-35.08a118 118 0 0 0 77.36-184.44l39.3-39.31v33.54a1.15 1.15 0 0 0 1.16 1.14h29.95a1.16 1.16 0 0 0 1.17-1.14v-90.18a1.16 1.16 0 0 0 -1.17-1.14m-166.93 251.94a86.93 86.93 0 1 1 86.92-86.93 87 87 0 0 1 -86.92 86.93"/><path d="m411.84 401.1h-105.43a1.1 1.1 0 0 0 -1.15 1v25.52a1.09 1.09 0 0 0 1.15 1.05h105.43a1.09 1.09 0 0 0 1.17-1.05v-25.49a1.1 1.1 0 0 0 -1.17-1"/><path d="m411.84 446.68h-105.43a1.11 1.11 0 0 0 -1.15 1.06v25.52a1.08 1.08 0 0 0 1.15 1h105.43a1.09 1.09 0 0 0 1.17-1v-25.52a1.11 1.11 0 0 0 -1.17-1.06"/></g></svg>