<svg viewBox="0 0 720 720" xmlns="http://www.w3.org/2000/svg"><path d="m-1.08-1.08h722.16v722.16h-722.16z" fill="#56c02b"/><g fill="#fff"><path d="m48.78 88.93c-4.08 2.21-15.78 5.44-19.89 7.48v-19.55c5.44-2.21 20.57-9.52 25.67-15.13h20.57v137.7h-26.35z"/><path d="m78.7 159.48h25.5c0 15.13 1.87 23 11.39 22.61 10-.34 10.54-11.56 10.54-29.58 0-14.62-1.53-25-11.73-25-6.12 0-10 4.25-11.73 12.41h-22.61l1.87-78.2h63.24v22.62h-41.82l-1.35 30.43c2.72-3.4 9.69-6.12 17.34-6.63 21.25-1.87 31.62 15 31.62 43.18 0 29.24-5.61 50.32-36.89 50.32-29.07 0-35.37-16.64-35.37-42.16z"/><path d="m229.39 61.63h9.61v23.14l10.46-23.14h9.17l-10.13 23.46 11.12 29.19h-9.56l-8.77-23.92-2.34 4v20h-9.56z"/><path d="m269.89 61.63h10.27l10.53 52.65h-8.91l-2.08-12.16h-9.16l-2.15 12.16h-9zm8.77 34.37-3.57-22.1-3.58 22.1z"/><path d="m294 61.63h12.68c10.53 0 16.51 3.38 16.51 14 0 6.31-1.56 10.73-6.5 12.74l7.31 25.91h-9.62l-6.3-24.12h-4.55v24.12h-9.53zm12.61 22.55c5.53 0 7.54-2.4 7.54-8.06 0-5.33-1.49-7.93-7-7.93h-3.57v16z"/><path d="m336.38 61.63h10.27l10.53 52.65h-8.9l-2.08-12.16h-9.2l-2.15 12.16h-9zm8.78 34.37-3.58-22.1-3.58 22.1z"/><path d="m358.93 98.94 8.26-1.63c.26 6.24 1.75 10.27 6 10.27 3.05 0 4.35-2.08 4.35-4.94 0-4.55-2.34-7.08-5.78-10.07l-6.63-5.79c-3.79-3.25-6.13-6.89-6.13-12.78 0-8.32 5.2-13 13.58-13 9.88 0 12.68 6.63 13.2 14.3l-8.26 1.43c-.19-4.94-.91-8.64-5.13-8.64-2.86 0-4.42 2.14-4.42 4.94 0 3.57 1.49 5.52 4.29 7.93l6.56 5.78c4.29 3.71 7.87 8.32 7.87 15.28 0 7.6-5.33 12.93-13.2 12.93-9.62.05-14.17-5.55-14.56-16.01z"/><path d="m398 61.63h10.27l10.53 52.65h-8.91l-2.08-12.16h-9.16l-2.15 12.16h-9zm8.77 34.37-3.57-22.1-3.58 22.1z"/><path d="m422.11 61.63h9.56v46.08h12.8v6.57h-22.36z"/><path d="m236.74 180.19-10.66-32.56h9l6.5 20.86 6.11-20.86h8.77l-10.56 32.56v20.09h-9.16z"/><path d="m265 147.63h10.27l10.53 52.65h-8.91l-2.08-12.16h-9.21l-2.15 12.16h-9zm8.72 34.37-3.57-22.1-3.58 22.1z"/><path d="m302.78 201v3.25c4.81 0 8.06 2.15 8.06 6.18 0 4.61-4.1 6.56-8.84 6.56a16.87 16.87 0 0 1 -4.68-.71v-4.1a11.51 11.51 0 0 0 3.51.52c2.27 0 4-.65 4-2.4 0-2.34-2.66-3.19-5.72-3.51v-6c-7.6-1.11-11.24-6.57-11.57-15.86l8.26-1.63c.26 6.24 1.75 10.27 6 10.27 3.05 0 4.35-2.08 4.35-4.94 0-4.55-2.34-7.08-5.78-10.07l-6.63-5.79c-3.77-3.25-6.11-6.89-6.11-12.74 0-8.32 5.2-13 13.58-13 9.88 0 12.68 6.63 13.2 14.3l-8.26 1.43c-.19-4.94-.91-8.64-5.13-8.64-2.86 0-4.42 2.14-4.42 4.94 0 3.57 1.49 5.52 4.29 7.93l6.56 5.78c4.29 3.71 7.87 8.32 7.87 15.28-.06 7.35-5.07 12.62-12.54 12.95z"/><path d="m326.57 147.63h10.27l10.53 52.65h-8.91l-2.08-12.16h-9.16l-2.15 12.16h-9zm8.77 34.37-3.57-22.1-3.58 22.1z"/><path d="m351.46 147.63h9.94l7.48 36.46 7.74-36.46h9.68l1 52.65h-7.15l-.78-36.6-7.48 36.6h-5.78l-7.61-36.73-.72 36.73h-7.21z"/><path d="m297.69 487.78a1.6 1.6 0 0 1 1.59 1.6v52.83a1.58 1.58 0 0 1 -1.59 1.6h-21.38a1.59 1.59 0 0 1 -1.61-1.6v-52.83a1.61 1.61 0 0 1 1.61-1.6z"/><path d="m532.45 566.5h-352.29a1.64 1.64 0 0 0 -1.61 1.65v21.53a1.6 1.6 0 0 0 1.61 1.59h352.29a1.62 1.62 0 0 0 1.62-1.59v-21.53a1.66 1.66 0 0 0 -1.62-1.65"/><path d="m532.45 609.29h-352.29a1.6 1.6 0 0 0 -1.61 1.59v21.6a1.62 1.62 0 0 0 1.61 1.59h352.29a1.63 1.63 0 0 0 1.62-1.59v-21.6a1.62 1.62 0 0 0 -1.62-1.59"/><path d="m465.42 429.3c-4.41-3.44-16.15-11.48-30.48-11.48-10.24 0-19.77 4-28.29 12a3 3 0 0 0 -.94 2.21v1.97a3.07 3.07 0 0 0 1 2.41 2.84 2.84 0 0 0 2.48.57 3.26 3.26 0 0 0 .67-.16 4.76 4.76 0 0 0 1.76-1.12c1.84-1.24 6.89-2.94 14.11-2.94 7.46 0 22.12 2 36.3 15.22l.32.29a4.26 4.26 0 0 0 3.07 1.27 4.17 4.17 0 0 0 3-1.24l.28-.3c14.25-13.24 28.89-15.24 36.35-15.24 7.27 0 12.3 1.7 14.15 2.94a5.16 5.16 0 0 0 2 1.19 4.35 4.35 0 0 0 2.06.07 3 3 0 0 0 2.22-2.91v-1.7a3.06 3.06 0 0 0 -.95-2.18c-8.6-8.2-18.23-12.34-28.63-12.34-14.2 0-25.89 7.91-30.41 11.5"/><path d="m443.55 288.89a2.9 2.9 0 0 0 -1.53 1.86l-.36 1.17a3 3 0 0 0 .46 2.65 2.92 2.92 0 0 0 2.18 1.18 1.12 1.12 0 0 0 .44 0 3.93 3.93 0 0 0 1.71-.43 8.46 8.46 0 0 1 2.13-.24c1.58 0 15.78.48 25.17 16.44l.12.23a3.61 3.61 0 0 0 2.25 1.8 4.53 4.53 0 0 0 1.13.17 3.68 3.68 0 0 0 1.77-.44l.23-.11a35.1 35.1 0 0 1 15.75-3.87c8.9 0 14.71 3.63 16.07 5.15a4.07 4.07 0 0 0 1.17 1.31 8.64 8.64 0 0 0 1.15.55 4 4 0 0 0 .52.08 1.67 1.67 0 0 0 .32 0 3.05 3.05 0 0 0 2.89-2.16l.29-1a2.61 2.61 0 0 0 .13-.85 2.88 2.88 0 0 0 -.41-1.52c-6.84-11.88-16.77-14.36-23.9-14.36a37.66 37.66 0 0 0 -12.68 2.38c-3.23-4.34-11.38-13.31-23.76-13.31a29.26 29.26 0 0 0 -13.21 3.34"/><path d="m369.11 343.09.11 1.58a2.93 2.93 0 0 0 1.4 2.38 3 3 0 0 0 2.37.36c.17 0 .37-.11.52-.16a3.89 3.89 0 0 0 1.52-1.13c1.5-1.08 6.32-3.05 13.44-3.05 6.84 0 17.25 1.83 27.85 10.54l.25.25a4.19 4.19 0 0 0 2.72 1h.26a4.06 4.06 0 0 0 2.76-1.33l.24-.26c11.74-12.41 24.39-14.27 30.88-14.27 4.63 0 7.91 1 9.19 1.68a4.48 4.48 0 0 0 1.83.95 4 4 0 0 0 1.29.09 5 5 0 0 0 .74-.18 3 3 0 0 0 2-3l-.08-1.38a3 3 0 0 0 -1.06-2.09c-7-5.9-14.58-8.87-22.54-8.87-12.39 0-22.27 7.32-26.37 10.91-3.75-2.55-12.84-7.8-23.5-7.8-9.38 0-17.78 3.89-25 11.55a3.1 3.1 0 0 0 -.82 2.25"/><path d="m190.84 371.37a38.19 38.19 0 0 1 38.16-38.19c.83 0 1.63.07 2.45.12a51.65 51.65 0 1 1 97.93 26.44 57.73 57.73 0 0 1 -12.53 114.09c-2.33 0-77.07-.45-77.07-.45a40.85 40.85 0 0 1 -29.74-68.89 38.13 38.13 0 0 1 -19.2-33.12z"/></g></svg>