<svg viewBox="0 0 720 720" xmlns="http://www.w3.org/2000/svg"><path d="m-1.08-1.08h722.16v722.16h-722.16z" fill="#19486a"/><g fill="#fff"><path d="m50.12 88.93c-4.12 2.21-15.81 5.44-19.89 7.48v-19.55c5.44-2.21 20.57-9.52 25.67-15.13h20.57v137.7h-26.35z"/><path d="m113.53 81.79h-37.4v-20.06h63.07v17.17l-29.07 120.53h-25.5z"/><path d="m237.6 61.63h10.27l10.53 52.65h-8.91l-2.08-12.16h-9.16l-2.15 12.16h-9zm8.77 34.37-3.57-22.1-3.58 22.1z"/><path d="m263 61.63h10l7.47 36.46 7.74-36.46h9.68l1 52.65h-7.15l-.78-36.6-7.48 36.6h-5.79l-7.69-36.73-.72 36.73h-7.18z"/><path d="m313.06 61.63h10.27l10.53 52.65h-8.86l-2.08-12.16h-9.17l-2.14 12.16h-9zm8.78 34.37-3.58-22.1-3.57 22.1z"/><path d="m356.55 80.61v-4.55c0-4.42-.07-8-4.94-8s-5.4 3.77-5.4 8.58v22.82c0 5.72 1.17 8.45 5.4 8.45 4.74 0 4.94-3.71 4.94-8.39v-4.74h9.23v4.22c0 8.91-2.86 15.47-12.94 16v3.25c4.81 0 8.06 2.15 8.06 6.18 0 4.61-4.09 6.56-8.84 6.56a16.87 16.87 0 0 1 -4.68-.71v-4.1a11.61 11.61 0 0 0 3.51.52c2.28 0 4-.65 4-2.4 0-2.34-2.67-3.19-5.73-3.51v-5.92c-9.62-1-12.61-7.93-12.61-17.42v-18.79c0-10.79 3.45-17.62 15-17.62 10.79 0 14.24 6 14.24 15.15v4.42z"/><path d="m371 61.63h9.55v46.08h12.85v6.57h-22.4z"/><path d="m404.84 61.63h10.27l10.53 52.65h-8.91l-2.08-12.16h-9.16l-2.15 12.16h-9zm8.77 34.37-3.61-22.09-3.54 22.09z"/><path d="m429.47 61.63h12.68c10.53 0 16.51 3.38 16.51 14 0 6.31-1.56 10.73-6.5 12.74l7.34 25.94h-9.62l-6.3-24.12h-4.58v24.12h-9.56zm12.61 22.55c5.53 0 7.54-2.4 7.54-8.06 0-5.33-1.49-7.93-7-7.93h-3.62v16z"/><path d="m479.13 61.63h9.49v52.65h-9.49zm.46-14.3h8.58v8.9h-8.58z"/><path d="m514 80.61v-4.55c0-4.42-.06-8-4.94-8s-5.39 3.77-5.39 8.58v22.82c0 5.72 1.17 8.45 5.39 8.45 4.75 0 4.94-3.71 4.94-8.39v-4.74h9.23v4.22c0 8.91-2.86 15.47-12.93 16v3.25c4.81 0 8.06 2.15 8.06 6.18 0 4.61-4.1 6.56-8.84 6.56a16.87 16.87 0 0 1 -4.68-.71v-4.1a11.51 11.51 0 0 0 3.51.52c2.27 0 4-.65 4-2.4 0-2.34-2.66-3.19-5.72-3.51v-5.92c-9.62-1-12.61-7.93-12.61-17.42v-18.79c-.02-10.79 3.38-17.66 14.98-17.66 10.79 0 14.23 6 14.23 15.15v4.42z"/><path d="m528.73 61.63h9.49v52.65h-9.49zm.45-14.3h8.58v8.9h-8.58z"/><path d="m544.39 61.63h6.7l12.8 30v-30h7.93v52.65h-6.37l-12.87-31.46v31.46h-8.19z"/><path d="m228.89 183.77v-19.77c0-10.66 3.9-17 15.21-17s15.14 6.31 15.14 17v19.76c0 10.59-3.9 17.22-15.14 17.22s-15.21-6.55-15.21-17.21zm20.6 2.27v-24.24c0-4.42-.71-7.74-5.39-7.74s-5.46 3.32-5.46 7.74v24.2c0 4.36.71 7.87 5.46 7.87s5.39-3.47 5.39-7.87z"/><path d="m264.89 147.63h12.68c10.53 0 16.51 3.38 16.51 14 0 6.31-1.56 10.73-6.5 12.74l7.35 25.94h-9.62l-6.31-24.15h-4.55v24.12h-9.56zm12.62 22.55c5.52 0 7.54-2.4 7.54-8.06 0-5.33-1.5-7.93-7-7.93h-3.58v16z"/><path d="m304.93 154.71h-8.38v-7.08h26.2v7.08h-8.2v45.57h-9.62z"/><path d="m332.69 147.63h10.31l10.53 52.65h-8.9l-2.08-12.16h-9.17l-2.15 12.16h-9zm8.77 34.37-3.57-22.1-3.58 22.1z"/><path d="m357.32 147.63h9.56v23.14l10.46-23.14h9.17l-10.08 23.46 11.12 29.19h-9.55l-8.77-23.92-2.34 4v20h-9.56z"/><path d="m390.47 147.63h9.53v46.08h12.8v6.57h-22.33z"/><path d="m416.67 147.63h9.49v52.65h-9.49z"/><path d="m432.85 147.63h9.56v23.14l10.46-23.14h9.13l-10 23.46 11.12 29.19h-9.56l-8.77-23.92-2.34 4v20h-9.56z"/><path d="m466 147.63h9.56v46.08h12.8v6.57h-22.36z"/><path d="m499.8 147.63h10.27l10.53 52.65h-8.9l-2.08-12.16h-9.17l-2.14 12.16h-9zm8.78 34.37-3.58-22.09-3.57 22.09z"/><path d="m524.44 147.63h12.67c10.53 0 16.51 3.38 16.51 14 0 6.31-1.56 10.73-6.5 12.74l7.35 25.94h-9.62l-6.31-24.12h-4.54v24.12h-9.55zm12.61 22.55c5.52 0 7.54-2.4 7.54-8.06 0-5.33-1.5-7.93-7-7.93h-3.59v16z"/><path d="m544.38 437.25a94.6 94.6 0 0 0 -91-94.42 94.49 94.49 0 0 0 -178.19 0 94.42 94.42 0 0 0 -54.54 168.9 94.43 94.43 0 0 0 144.1 104.16 94.43 94.43 0 0 0 143.32-104.26 94.38 94.38 0 0 0 36.31-74.38m-104.64-63a75.5 75.5 0 0 1 -64.33 74.55 74.8 74.8 0 0 1 63.35-86.14 75 75 0 0 1 1 11.59m-75.11 217.1a75.25 75.25 0 0 1 -.7-107.5 75.25 75.25 0 0 1 .7 107.5m-74.85-228.66a74.74 74.74 0 0 1 63.35 86.15 74.74 74.74 0 0 1 -63.35-86.15m56.27 108.31a75.18 75.18 0 0 1 -102.07 33.2 75.18 75.18 0 0 1 102.07-33.2m36.18-.51a75.23 75.23 0 0 1 102.56 33.59 75.2 75.2 0 0 1 -102.56-33.59m-18-171.66a75.54 75.54 0 0 1 69.18 45.38 94.82 94.82 0 0 0 -69.18 53.1 94.73 94.73 0 0 0 -69.16-53.1 75.54 75.54 0 0 1 69.16-45.38m-161.04 138.42a75.56 75.56 0 0 1 67.37-75 96.33 96.33 0 0 0 -.79 12.07 94.29 94.29 0 0 0 30.87 69.81 94.71 94.71 0 0 0 -72.45 49.09 75.21 75.21 0 0 1 -25-55.94m32.73 100.72a74.71 74.71 0 0 1 1.65-15.64 94.32 94.32 0 0 0 86.71-2.36 94 94 0 0 0 25.07 83.11 75.32 75.32 0 0 1 -113.43-65.11m256.69-.62a75.35 75.35 0 0 1 -112.63 65.51 94.19 94.19 0 0 0 25.9-64.89 95.31 95.31 0 0 0 -1.76-18.08 94.27 94.27 0 0 0 87 2.37 75.06 75.06 0 0 1 1.53 15.09m-64.15-93.8a94.24 94.24 0 0 0 30.29-69.25 96.33 96.33 0 0 0 -.79-12.07 75.34 75.34 0 0 1 42.55 130.74 94.69 94.69 0 0 0 -72.09-49.46"/></g></svg>