<svg viewBox="0 0 720 720" xmlns="http://www.w3.org/2000/svg"><path d="m-1.08-1.08h722.16v722.16h-722.16z" fill="#dda83a"/><g fill="#fff"><path d="m55.12 180.9 33.49-51.51c7.31-11.39 14.62-20.91 14.62-33.66 0-8.84-3.4-13.6-10-13.6-10 0-12.41 9.18-12.41 20.4v6.29h-25.7v-6.82c0-24.31 10.54-42 37.57-42 24.14 0 36.55 13.43 36.55 36.21 0 16.83-8.67 28.56-18 42.67l-26.54 39.81h40.8v20.74h-70.38z"/><path d="m196.83 61.63h10.27l10.53 52.65h-8.91l-2.08-12.16h-9.16l-2.15 12.16h-9zm8.77 34.37-3.6-22.09-3.55 22.09z"/><path d="m241.42 80.61v-4.55c0-4.42-.07-8-4.94-8s-5.4 3.77-5.4 8.58v22.82c0 5.72 1.17 8.45 5.4 8.45 4.74 0 4.94-3.71 4.94-8.39v-4.74h9.23v4.22c0 8.91-2.86 15.47-12.94 16v3.25c4.81 0 8.06 2.15 8.06 6.18 0 4.61-4.09 6.56-8.84 6.56a16.87 16.87 0 0 1 -4.68-.71v-4.1a11.61 11.61 0 0 0 3.51.52c2.28 0 4-.65 4-2.4 0-2.34-2.67-3.19-5.72-3.51v-5.92c-9.62-1-12.61-7.93-12.61-17.42v-18.79c0-10.79 3.44-17.62 15-17.62 10.79 0 14.24 6 14.24 15.15v4.42z"/><path d="m257 61.63h9.55v46.08h12.81v6.57h-22.36z"/><path d="m284.32 61.63h9.49v52.65h-9.49z"/><path d="m300.76 96.92v-17.68c0-11.31 3.45-18.2 15-18.2 10.79 0 14.56 5.59 14.56 15.34v2.73h-9.17v-3c0-5.07-.52-8.06-5.26-8.06-5.07 0-5.46 4.1-5.46 8.91v22.04c0 5.46 1 8.91 5.72 8.91s5.78-3.64 5.78-9.36v-4.94h-5.63v-6h14.3v26.72h-6.24l-.65-5.14c-1.43 3.38-4 5.85-8.91 5.85-10.4-.04-14.04-7.04-14.04-18.12zm5.72-48.92h5c.06 3.18 1.23 4.81 4.35 4.81s4.37-1.81 4.37-4.81h5.07c0 5.78-3.19 9.49-9.43 9.49s-9.36-3.73-9.36-9.49z"/><path d="m345.48 61.63h10.27l10.53 52.65h-8.9l-2.08-12.16h-9.17l-2.13 12.16h-9zm8.78 34.37-3.58-22.1-3.57 22.1z"/><path d="m187.66 184.94 8.26-1.63c.26 6.24 1.75 10.27 6 10.27 3 0 4.35-2.08 4.35-4.94 0-4.55-2.34-7.08-5.78-10.07l-6.63-5.79c-3.77-3.25-6.11-6.89-6.11-12.74 0-8.32 5.2-13 13.58-13 9.88 0 12.68 6.63 13.2 14.3l-8.26 1.43c-.19-4.94-.91-8.64-5.13-8.64-2.86 0-4.42 2.14-4.42 4.94 0 3.57 1.49 5.52 4.29 7.93l6.56 5.78c4.3 3.71 7.87 8.32 7.87 15.28 0 7.6-5.33 12.93-13.2 12.93-9.64.01-14.19-5.59-14.58-16.05z"/><path d="m219.9 183.77v-19.77c0-10.66 3.9-17 15.21-17s15.15 6.31 15.15 17v19.76c0 10.59-3.9 17.22-15.15 17.22s-15.21-6.55-15.21-17.21zm20.61 2.23v-24.2c0-4.42-.72-7.74-5.4-7.74s-5.46 3.32-5.46 7.74v24.2c0 4.36.72 7.87 5.46 7.87s5.4-3.47 5.4-7.87z"/><path d="m257 147.63h6.69l12.81 30v-30h7.93v52.65h-6.37l-12.87-31.46v31.46h-8.19z"/><path d="m286.64 613.72v10.2a1.57 1.57 0 0 0 0 .23 2 2 0 0 0 0 .24 4.79 4.79 0 0 0 4.7 4.58h.09.12 119.67.11.1a4.81 4.81 0 0 0 4.72-4.79.07.07 0 0 1 0 0v-11.61c67.37-22.09 117.85-76.69 128.93-143.23 0-.14 0-.27.07-.39a4 4 0 0 0 .07-.67 4.83 4.83 0 0 0 -4.84-4.84h-381.38a4.83 4.83 0 0 0 -4.85 4.84l.25 2.17c11.6 67.18 63.48 122.08 132.24 143.27"/><path d="m416 300.65c-1.57 2.24-38.42 55.29.82 98.19 18 19.69 16.44 37.06 11.3 48.79h25.17c5.1-17.32 3-39.05-17.44-61.38-28.91-31.61.37-74.33.81-75 3.45-4.88 1.6-11.16-4.08-14.09s-13.11-1.36-16.58 3.48"/><path d="m352.29 447.63h25.18c5.09-17.32 3-39-17.46-61.38-28.93-31.61.34-74.32.8-75 3.43-4.85 1.62-11.12-4.09-14.06s-13.11-1.36-16.56 3.48c-1.58 2.23-38.46 55.29.82 98.19 18 19.69 16.43 37.07 11.31 48.79"/><path d="m264.27 300.65c-1.59 2.24-38.44 55.29.81 98.19 18 19.7 16.45 37.07 11.32 48.79h25.18c5.09-17.31 3-39-17.47-61.38-28.93-31.61.36-74.33.82-75 3.42-4.86 1.6-11.14-4.11-14.07s-13.1-1.37-16.55 3.48"/></g></svg>